%TF.GenerationSoftware,KiCad,Pcbnew,5.1.9+dfsg1-1*%
%TF.CreationDate,2021-05-25T15:42:46+02:00*%
%TF.ProjectId,vscp-din-wireless-esp32,76736370-2d64-4696-9e2d-776972656c65,rev?*%
%TF.SameCoordinates,Original*%
%TF.FileFunction,Legend,Top*%
%TF.FilePolarity,Positive*%
%FSLAX46Y46*%
G04 Gerber Fmt 4.6, Leading zero omitted, Abs format (unit mm)*
G04 Created by KiCad (PCBNEW 5.1.9+dfsg1-1) date 2021-05-25 15:42:46*
%MOMM*%
%LPD*%
G01*
G04 APERTURE LIST*
%ADD10C,0.300000*%
%ADD11C,0.010000*%
%ADD12C,0.120000*%
%ADD13C,0.150000*%
G04 APERTURE END LIST*
D10*
X131982857Y-75373571D02*
X132482857Y-76873571D01*
X132982857Y-75373571D01*
X133411428Y-76802142D02*
X133625714Y-76873571D01*
X133982857Y-76873571D01*
X134125714Y-76802142D01*
X134197142Y-76730714D01*
X134268571Y-76587857D01*
X134268571Y-76445000D01*
X134197142Y-76302142D01*
X134125714Y-76230714D01*
X133982857Y-76159285D01*
X133697142Y-76087857D01*
X133554285Y-76016428D01*
X133482857Y-75945000D01*
X133411428Y-75802142D01*
X133411428Y-75659285D01*
X133482857Y-75516428D01*
X133554285Y-75445000D01*
X133697142Y-75373571D01*
X134054285Y-75373571D01*
X134268571Y-75445000D01*
X135768571Y-76730714D02*
X135697142Y-76802142D01*
X135482857Y-76873571D01*
X135340000Y-76873571D01*
X135125714Y-76802142D01*
X134982857Y-76659285D01*
X134911428Y-76516428D01*
X134840000Y-76230714D01*
X134840000Y-76016428D01*
X134911428Y-75730714D01*
X134982857Y-75587857D01*
X135125714Y-75445000D01*
X135340000Y-75373571D01*
X135482857Y-75373571D01*
X135697142Y-75445000D01*
X135768571Y-75516428D01*
X136411428Y-76873571D02*
X136411428Y-75373571D01*
X136982857Y-75373571D01*
X137125714Y-75445000D01*
X137197142Y-75516428D01*
X137268571Y-75659285D01*
X137268571Y-75873571D01*
X137197142Y-76016428D01*
X137125714Y-76087857D01*
X136982857Y-76159285D01*
X136411428Y-76159285D01*
X139054285Y-76873571D02*
X139054285Y-75373571D01*
X139411428Y-75373571D01*
X139625714Y-75445000D01*
X139768571Y-75587857D01*
X139840000Y-75730714D01*
X139911428Y-76016428D01*
X139911428Y-76230714D01*
X139840000Y-76516428D01*
X139768571Y-76659285D01*
X139625714Y-76802142D01*
X139411428Y-76873571D01*
X139054285Y-76873571D01*
X140554285Y-76873571D02*
X140554285Y-75373571D01*
X141268571Y-76873571D02*
X141268571Y-75373571D01*
X142125714Y-76873571D01*
X142125714Y-75373571D01*
X143840000Y-75373571D02*
X144197142Y-76873571D01*
X144482857Y-75802142D01*
X144768571Y-76873571D01*
X145125714Y-75373571D01*
X145697142Y-76873571D02*
X145697142Y-75873571D01*
X145697142Y-75373571D02*
X145625714Y-75445000D01*
X145697142Y-75516428D01*
X145768571Y-75445000D01*
X145697142Y-75373571D01*
X145697142Y-75516428D01*
X146411428Y-76873571D02*
X146411428Y-75873571D01*
X146411428Y-76159285D02*
X146482857Y-76016428D01*
X146554285Y-75945000D01*
X146697142Y-75873571D01*
X146840000Y-75873571D01*
X147911428Y-76802142D02*
X147768571Y-76873571D01*
X147482857Y-76873571D01*
X147340000Y-76802142D01*
X147268571Y-76659285D01*
X147268571Y-76087857D01*
X147340000Y-75945000D01*
X147482857Y-75873571D01*
X147768571Y-75873571D01*
X147911428Y-75945000D01*
X147982857Y-76087857D01*
X147982857Y-76230714D01*
X147268571Y-76373571D01*
X148840000Y-76873571D02*
X148697142Y-76802142D01*
X148625714Y-76659285D01*
X148625714Y-75373571D01*
X149982857Y-76802142D02*
X149840000Y-76873571D01*
X149554285Y-76873571D01*
X149411428Y-76802142D01*
X149340000Y-76659285D01*
X149340000Y-76087857D01*
X149411428Y-75945000D01*
X149554285Y-75873571D01*
X149840000Y-75873571D01*
X149982857Y-75945000D01*
X150054285Y-76087857D01*
X150054285Y-76230714D01*
X149340000Y-76373571D01*
X150625714Y-76802142D02*
X150768571Y-76873571D01*
X151054285Y-76873571D01*
X151197142Y-76802142D01*
X151268571Y-76659285D01*
X151268571Y-76587857D01*
X151197142Y-76445000D01*
X151054285Y-76373571D01*
X150840000Y-76373571D01*
X150697142Y-76302142D01*
X150625714Y-76159285D01*
X150625714Y-76087857D01*
X150697142Y-75945000D01*
X150840000Y-75873571D01*
X151054285Y-75873571D01*
X151197142Y-75945000D01*
X151840000Y-76802142D02*
X151982857Y-76873571D01*
X152268571Y-76873571D01*
X152411428Y-76802142D01*
X152482857Y-76659285D01*
X152482857Y-76587857D01*
X152411428Y-76445000D01*
X152268571Y-76373571D01*
X152054285Y-76373571D01*
X151911428Y-76302142D01*
X151840000Y-76159285D01*
X151840000Y-76087857D01*
X151911428Y-75945000D01*
X152054285Y-75873571D01*
X152268571Y-75873571D01*
X152411428Y-75945000D01*
X154268571Y-76087857D02*
X154768571Y-76087857D01*
X154982857Y-76873571D02*
X154268571Y-76873571D01*
X154268571Y-75373571D01*
X154982857Y-75373571D01*
X155554285Y-76802142D02*
X155768571Y-76873571D01*
X156125714Y-76873571D01*
X156268571Y-76802142D01*
X156340000Y-76730714D01*
X156411428Y-76587857D01*
X156411428Y-76445000D01*
X156340000Y-76302142D01*
X156268571Y-76230714D01*
X156125714Y-76159285D01*
X155840000Y-76087857D01*
X155697142Y-76016428D01*
X155625714Y-75945000D01*
X155554285Y-75802142D01*
X155554285Y-75659285D01*
X155625714Y-75516428D01*
X155697142Y-75445000D01*
X155840000Y-75373571D01*
X156197142Y-75373571D01*
X156411428Y-75445000D01*
X157054285Y-76873571D02*
X157054285Y-75373571D01*
X157625714Y-75373571D01*
X157768571Y-75445000D01*
X157840000Y-75516428D01*
X157911428Y-75659285D01*
X157911428Y-75873571D01*
X157840000Y-76016428D01*
X157768571Y-76087857D01*
X157625714Y-76159285D01*
X157054285Y-76159285D01*
X158411428Y-75373571D02*
X159340000Y-75373571D01*
X158840000Y-75945000D01*
X159054285Y-75945000D01*
X159197142Y-76016428D01*
X159268571Y-76087857D01*
X159340000Y-76230714D01*
X159340000Y-76587857D01*
X159268571Y-76730714D01*
X159197142Y-76802142D01*
X159054285Y-76873571D01*
X158625714Y-76873571D01*
X158482857Y-76802142D01*
X158411428Y-76730714D01*
X159911428Y-75516428D02*
X159982857Y-75445000D01*
X160125714Y-75373571D01*
X160482857Y-75373571D01*
X160625714Y-75445000D01*
X160697142Y-75516428D01*
X160768571Y-75659285D01*
X160768571Y-75802142D01*
X160697142Y-76016428D01*
X159840000Y-76873571D01*
X160768571Y-76873571D01*
X162554285Y-76873571D02*
X162554285Y-75373571D01*
X163054285Y-76445000D01*
X163554285Y-75373571D01*
X163554285Y-76873571D01*
X165054285Y-76873571D02*
X164197142Y-76873571D01*
X164625714Y-76873571D02*
X164625714Y-75373571D01*
X164482857Y-75587857D01*
X164340000Y-75730714D01*
X164197142Y-75802142D01*
X146625714Y-79423571D02*
X146125714Y-78709285D01*
X145768571Y-79423571D02*
X145768571Y-77923571D01*
X146340000Y-77923571D01*
X146482857Y-77995000D01*
X146554285Y-78066428D01*
X146625714Y-78209285D01*
X146625714Y-78423571D01*
X146554285Y-78566428D01*
X146482857Y-78637857D01*
X146340000Y-78709285D01*
X145768571Y-78709285D01*
X147840000Y-79352142D02*
X147697142Y-79423571D01*
X147411428Y-79423571D01*
X147268571Y-79352142D01*
X147197142Y-79209285D01*
X147197142Y-78637857D01*
X147268571Y-78495000D01*
X147411428Y-78423571D01*
X147697142Y-78423571D01*
X147840000Y-78495000D01*
X147911428Y-78637857D01*
X147911428Y-78780714D01*
X147197142Y-78923571D01*
X148411428Y-78423571D02*
X148768571Y-79423571D01*
X149125714Y-78423571D01*
X150768571Y-78995000D02*
X151482857Y-78995000D01*
X150625714Y-79423571D02*
X151125714Y-77923571D01*
X151625714Y-79423571D01*
X140225142Y-83319000D02*
X140082285Y-83247571D01*
X139868000Y-83247571D01*
X139653714Y-83319000D01*
X139510857Y-83461857D01*
X139439428Y-83604714D01*
X139368000Y-83890428D01*
X139368000Y-84104714D01*
X139439428Y-84390428D01*
X139510857Y-84533285D01*
X139653714Y-84676142D01*
X139868000Y-84747571D01*
X140010857Y-84747571D01*
X140225142Y-84676142D01*
X140296571Y-84604714D01*
X140296571Y-84104714D01*
X140010857Y-84104714D01*
X140939428Y-84747571D02*
X140939428Y-83747571D01*
X140939428Y-84033285D02*
X141010857Y-83890428D01*
X141082285Y-83819000D01*
X141225142Y-83747571D01*
X141368000Y-83747571D01*
X142082285Y-84747571D02*
X141939428Y-84676142D01*
X141868000Y-84604714D01*
X141796571Y-84461857D01*
X141796571Y-84033285D01*
X141868000Y-83890428D01*
X141939428Y-83819000D01*
X142082285Y-83747571D01*
X142296571Y-83747571D01*
X142439428Y-83819000D01*
X142510857Y-83890428D01*
X142582285Y-84033285D01*
X142582285Y-84461857D01*
X142510857Y-84604714D01*
X142439428Y-84676142D01*
X142296571Y-84747571D01*
X142082285Y-84747571D01*
X143868000Y-84747571D02*
X143868000Y-83247571D01*
X143868000Y-84676142D02*
X143725142Y-84747571D01*
X143439428Y-84747571D01*
X143296571Y-84676142D01*
X143225142Y-84604714D01*
X143153714Y-84461857D01*
X143153714Y-84033285D01*
X143225142Y-83890428D01*
X143296571Y-83819000D01*
X143439428Y-83747571D01*
X143725142Y-83747571D01*
X143868000Y-83819000D01*
X145225142Y-84747571D02*
X145225142Y-83961857D01*
X145153714Y-83819000D01*
X145010857Y-83747571D01*
X144725142Y-83747571D01*
X144582285Y-83819000D01*
X145225142Y-84676142D02*
X145082285Y-84747571D01*
X144725142Y-84747571D01*
X144582285Y-84676142D01*
X144510857Y-84533285D01*
X144510857Y-84390428D01*
X144582285Y-84247571D01*
X144725142Y-84176142D01*
X145082285Y-84176142D01*
X145225142Y-84104714D01*
X145939428Y-83747571D02*
X145939428Y-84747571D01*
X145939428Y-83890428D02*
X146010857Y-83819000D01*
X146153714Y-83747571D01*
X146368000Y-83747571D01*
X146510857Y-83819000D01*
X146582285Y-83961857D01*
X146582285Y-84747571D01*
X147225142Y-84676142D02*
X147368000Y-84747571D01*
X147653714Y-84747571D01*
X147796571Y-84676142D01*
X147868000Y-84533285D01*
X147868000Y-84461857D01*
X147796571Y-84319000D01*
X147653714Y-84247571D01*
X147439428Y-84247571D01*
X147296571Y-84176142D01*
X147225142Y-84033285D01*
X147225142Y-83961857D01*
X147296571Y-83819000D01*
X147439428Y-83747571D01*
X147653714Y-83747571D01*
X147796571Y-83819000D01*
X149653714Y-84747571D02*
X149653714Y-83247571D01*
X150225142Y-83247571D01*
X150368000Y-83319000D01*
X150439428Y-83390428D01*
X150510857Y-83533285D01*
X150510857Y-83747571D01*
X150439428Y-83890428D01*
X150368000Y-83961857D01*
X150225142Y-84033285D01*
X149653714Y-84033285D01*
X151796571Y-84747571D02*
X151796571Y-83961857D01*
X151725142Y-83819000D01*
X151582285Y-83747571D01*
X151296571Y-83747571D01*
X151153714Y-83819000D01*
X151796571Y-84676142D02*
X151653714Y-84747571D01*
X151296571Y-84747571D01*
X151153714Y-84676142D01*
X151082285Y-84533285D01*
X151082285Y-84390428D01*
X151153714Y-84247571D01*
X151296571Y-84176142D01*
X151653714Y-84176142D01*
X151796571Y-84104714D01*
X152510857Y-84747571D02*
X152510857Y-83747571D01*
X152510857Y-84033285D02*
X152582285Y-83890428D01*
X152653714Y-83819000D01*
X152796571Y-83747571D01*
X152939428Y-83747571D01*
X154082285Y-84747571D02*
X154082285Y-83961857D01*
X154010857Y-83819000D01*
X153868000Y-83747571D01*
X153582285Y-83747571D01*
X153439428Y-83819000D01*
X154082285Y-84676142D02*
X153939428Y-84747571D01*
X153582285Y-84747571D01*
X153439428Y-84676142D01*
X153368000Y-84533285D01*
X153368000Y-84390428D01*
X153439428Y-84247571D01*
X153582285Y-84176142D01*
X153939428Y-84176142D01*
X154082285Y-84104714D01*
X155439428Y-84747571D02*
X155439428Y-83247571D01*
X155439428Y-84676142D02*
X155296571Y-84747571D01*
X155010857Y-84747571D01*
X154868000Y-84676142D01*
X154796571Y-84604714D01*
X154725142Y-84461857D01*
X154725142Y-84033285D01*
X154796571Y-83890428D01*
X154868000Y-83819000D01*
X155010857Y-83747571D01*
X155296571Y-83747571D01*
X155439428Y-83819000D01*
X156153714Y-84747571D02*
X156153714Y-83747571D01*
X156153714Y-83247571D02*
X156082285Y-83319000D01*
X156153714Y-83390428D01*
X156225142Y-83319000D01*
X156153714Y-83247571D01*
X156153714Y-83390428D01*
X156796571Y-84676142D02*
X156939428Y-84747571D01*
X157225142Y-84747571D01*
X157368000Y-84676142D01*
X157439428Y-84533285D01*
X157439428Y-84461857D01*
X157368000Y-84319000D01*
X157225142Y-84247571D01*
X157010857Y-84247571D01*
X156868000Y-84176142D01*
X156796571Y-84033285D01*
X156796571Y-83961857D01*
X156868000Y-83819000D01*
X157010857Y-83747571D01*
X157225142Y-83747571D01*
X157368000Y-83819000D01*
X159153714Y-84319000D02*
X159867999Y-84319000D01*
X159010857Y-84747571D02*
X159510857Y-83247571D01*
X160010857Y-84747571D01*
X161010857Y-83961857D02*
X161225142Y-84033285D01*
X161296571Y-84104714D01*
X161367999Y-84247571D01*
X161367999Y-84461857D01*
X161296571Y-84604714D01*
X161225142Y-84676142D01*
X161082285Y-84747571D01*
X160510857Y-84747571D01*
X160510857Y-83247571D01*
X161010857Y-83247571D01*
X161153714Y-83319000D01*
X161225142Y-83390428D01*
X161296571Y-83533285D01*
X161296571Y-83676142D01*
X161225142Y-83819000D01*
X161153714Y-83890428D01*
X161010857Y-83961857D01*
X160510857Y-83961857D01*
X131975142Y-87297571D02*
X131975142Y-85797571D01*
X132618000Y-87297571D02*
X132618000Y-86511857D01*
X132546571Y-86369000D01*
X132403714Y-86297571D01*
X132189428Y-86297571D01*
X132046571Y-86369000D01*
X131975142Y-86440428D01*
X133118000Y-86297571D02*
X133689428Y-86297571D01*
X133332285Y-85797571D02*
X133332285Y-87083285D01*
X133403714Y-87226142D01*
X133546571Y-87297571D01*
X133689428Y-87297571D01*
X133975142Y-86297571D02*
X134546571Y-86297571D01*
X134189428Y-85797571D02*
X134189428Y-87083285D01*
X134260857Y-87226142D01*
X134403714Y-87297571D01*
X134546571Y-87297571D01*
X135046571Y-86297571D02*
X135046571Y-87797571D01*
X135046571Y-86369000D02*
X135189428Y-86297571D01*
X135475142Y-86297571D01*
X135618000Y-86369000D01*
X135689428Y-86440428D01*
X135760857Y-86583285D01*
X135760857Y-87011857D01*
X135689428Y-87154714D01*
X135618000Y-87226142D01*
X135475142Y-87297571D01*
X135189428Y-87297571D01*
X135046571Y-87226142D01*
X136332285Y-87226142D02*
X136475142Y-87297571D01*
X136760857Y-87297571D01*
X136903714Y-87226142D01*
X136975142Y-87083285D01*
X136975142Y-87011857D01*
X136903714Y-86869000D01*
X136760857Y-86797571D01*
X136546571Y-86797571D01*
X136403714Y-86726142D01*
X136332285Y-86583285D01*
X136332285Y-86511857D01*
X136403714Y-86369000D01*
X136546571Y-86297571D01*
X136760857Y-86297571D01*
X136903714Y-86369000D01*
X137618000Y-87154714D02*
X137689428Y-87226142D01*
X137618000Y-87297571D01*
X137546571Y-87226142D01*
X137618000Y-87154714D01*
X137618000Y-87297571D01*
X137618000Y-86369000D02*
X137689428Y-86440428D01*
X137618000Y-86511857D01*
X137546571Y-86440428D01*
X137618000Y-86369000D01*
X137618000Y-86511857D01*
X139403714Y-85726142D02*
X138118000Y-87654714D01*
X140975142Y-85726142D02*
X139689428Y-87654714D01*
X141332285Y-86297571D02*
X141618000Y-87297571D01*
X141903714Y-86583285D01*
X142189428Y-87297571D01*
X142475142Y-86297571D01*
X142903714Y-86297571D02*
X143189428Y-87297571D01*
X143475142Y-86583285D01*
X143760857Y-87297571D01*
X144046571Y-86297571D01*
X144475142Y-86297571D02*
X144760857Y-87297571D01*
X145046571Y-86583285D01*
X145332285Y-87297571D01*
X145618000Y-86297571D01*
X146189428Y-87154714D02*
X146260857Y-87226142D01*
X146189428Y-87297571D01*
X146118000Y-87226142D01*
X146189428Y-87154714D01*
X146189428Y-87297571D01*
X147546571Y-86297571D02*
X147546571Y-87511857D01*
X147475142Y-87654714D01*
X147403714Y-87726142D01*
X147260857Y-87797571D01*
X147046571Y-87797571D01*
X146903714Y-87726142D01*
X147546571Y-87226142D02*
X147403714Y-87297571D01*
X147118000Y-87297571D01*
X146975142Y-87226142D01*
X146903714Y-87154714D01*
X146832285Y-87011857D01*
X146832285Y-86583285D01*
X146903714Y-86440428D01*
X146975142Y-86369000D01*
X147118000Y-86297571D01*
X147403714Y-86297571D01*
X147546571Y-86369000D01*
X148260857Y-87297571D02*
X148260857Y-86297571D01*
X148260857Y-86583285D02*
X148332285Y-86440428D01*
X148403714Y-86369000D01*
X148546571Y-86297571D01*
X148689428Y-86297571D01*
X149403714Y-87297571D02*
X149260857Y-87226142D01*
X149189428Y-87154714D01*
X149118000Y-87011857D01*
X149118000Y-86583285D01*
X149189428Y-86440428D01*
X149260857Y-86369000D01*
X149403714Y-86297571D01*
X149618000Y-86297571D01*
X149760857Y-86369000D01*
X149832285Y-86440428D01*
X149903714Y-86583285D01*
X149903714Y-87011857D01*
X149832285Y-87154714D01*
X149760857Y-87226142D01*
X149618000Y-87297571D01*
X149403714Y-87297571D01*
X151189428Y-87297571D02*
X151189428Y-85797571D01*
X151189428Y-87226142D02*
X151046571Y-87297571D01*
X150760857Y-87297571D01*
X150618000Y-87226142D01*
X150546571Y-87154714D01*
X150475142Y-87011857D01*
X150475142Y-86583285D01*
X150546571Y-86440428D01*
X150618000Y-86369000D01*
X150760857Y-86297571D01*
X151046571Y-86297571D01*
X151189428Y-86369000D01*
X152546571Y-87297571D02*
X152546571Y-86511857D01*
X152475142Y-86369000D01*
X152332285Y-86297571D01*
X152046571Y-86297571D01*
X151903714Y-86369000D01*
X152546571Y-87226142D02*
X152403714Y-87297571D01*
X152046571Y-87297571D01*
X151903714Y-87226142D01*
X151832285Y-87083285D01*
X151832285Y-86940428D01*
X151903714Y-86797571D01*
X152046571Y-86726142D01*
X152403714Y-86726142D01*
X152546571Y-86654714D01*
X153260857Y-86297571D02*
X153260857Y-87297571D01*
X153260857Y-86440428D02*
X153332285Y-86369000D01*
X153475142Y-86297571D01*
X153689428Y-86297571D01*
X153832285Y-86369000D01*
X153903714Y-86511857D01*
X153903714Y-87297571D01*
X154546571Y-87226142D02*
X154689428Y-87297571D01*
X154975142Y-87297571D01*
X155118000Y-87226142D01*
X155189428Y-87083285D01*
X155189428Y-87011857D01*
X155118000Y-86869000D01*
X154975142Y-86797571D01*
X154760857Y-86797571D01*
X154618000Y-86726142D01*
X154546571Y-86583285D01*
X154546571Y-86511857D01*
X154618000Y-86369000D01*
X154760857Y-86297571D01*
X154975142Y-86297571D01*
X155118000Y-86369000D01*
X155832285Y-86297571D02*
X155832285Y-87797571D01*
X155832285Y-86369000D02*
X155975142Y-86297571D01*
X156260857Y-86297571D01*
X156403714Y-86369000D01*
X156475142Y-86440428D01*
X156546571Y-86583285D01*
X156546571Y-87011857D01*
X156475142Y-87154714D01*
X156403714Y-87226142D01*
X156260857Y-87297571D01*
X155975142Y-87297571D01*
X155832285Y-87226142D01*
X157832285Y-87297571D02*
X157832285Y-86511857D01*
X157760857Y-86369000D01*
X157618000Y-86297571D01*
X157332285Y-86297571D01*
X157189428Y-86369000D01*
X157832285Y-87226142D02*
X157689428Y-87297571D01*
X157332285Y-87297571D01*
X157189428Y-87226142D01*
X157118000Y-87083285D01*
X157118000Y-86940428D01*
X157189428Y-86797571D01*
X157332285Y-86726142D01*
X157689428Y-86726142D01*
X157832285Y-86654714D01*
X158546571Y-87297571D02*
X158546571Y-86297571D01*
X158546571Y-86583285D02*
X158618000Y-86440428D01*
X158689428Y-86369000D01*
X158832285Y-86297571D01*
X158975142Y-86297571D01*
X160118000Y-87297571D02*
X160118000Y-86511857D01*
X160046571Y-86369000D01*
X159903714Y-86297571D01*
X159618000Y-86297571D01*
X159475142Y-86369000D01*
X160118000Y-87226142D02*
X159975142Y-87297571D01*
X159618000Y-87297571D01*
X159475142Y-87226142D01*
X159403714Y-87083285D01*
X159403714Y-86940428D01*
X159475142Y-86797571D01*
X159618000Y-86726142D01*
X159975142Y-86726142D01*
X160118000Y-86654714D01*
X161475142Y-87297571D02*
X161475142Y-85797571D01*
X161475142Y-87226142D02*
X161332285Y-87297571D01*
X161046571Y-87297571D01*
X160903714Y-87226142D01*
X160832285Y-87154714D01*
X160760857Y-87011857D01*
X160760857Y-86583285D01*
X160832285Y-86440428D01*
X160903714Y-86369000D01*
X161046571Y-86297571D01*
X161332285Y-86297571D01*
X161475142Y-86369000D01*
X162189428Y-87297571D02*
X162189428Y-86297571D01*
X162189428Y-85797571D02*
X162118000Y-85869000D01*
X162189428Y-85940428D01*
X162260857Y-85869000D01*
X162189428Y-85797571D01*
X162189428Y-85940428D01*
X162832285Y-87226142D02*
X162975142Y-87297571D01*
X163260857Y-87297571D01*
X163403714Y-87226142D01*
X163475142Y-87083285D01*
X163475142Y-87011857D01*
X163403714Y-86869000D01*
X163260857Y-86797571D01*
X163046571Y-86797571D01*
X162903714Y-86726142D01*
X162832285Y-86583285D01*
X162832285Y-86511857D01*
X162903714Y-86369000D01*
X163046571Y-86297571D01*
X163260857Y-86297571D01*
X163403714Y-86369000D01*
X164118000Y-87154714D02*
X164189428Y-87226142D01*
X164118000Y-87297571D01*
X164046571Y-87226142D01*
X164118000Y-87154714D01*
X164118000Y-87297571D01*
X165475142Y-87226142D02*
X165332285Y-87297571D01*
X165046571Y-87297571D01*
X164903714Y-87226142D01*
X164832285Y-87154714D01*
X164760857Y-87011857D01*
X164760857Y-86583285D01*
X164832285Y-86440428D01*
X164903714Y-86369000D01*
X165046571Y-86297571D01*
X165332285Y-86297571D01*
X165475142Y-86369000D01*
X166332285Y-87297571D02*
X166189428Y-87226142D01*
X166118000Y-87154714D01*
X166046571Y-87011857D01*
X166046571Y-86583285D01*
X166118000Y-86440428D01*
X166189428Y-86369000D01*
X166332285Y-86297571D01*
X166546571Y-86297571D01*
X166689428Y-86369000D01*
X166760857Y-86440428D01*
X166832285Y-86583285D01*
X166832285Y-87011857D01*
X166760857Y-87154714D01*
X166689428Y-87226142D01*
X166546571Y-87297571D01*
X166332285Y-87297571D01*
X167475142Y-87297571D02*
X167475142Y-86297571D01*
X167475142Y-86440428D02*
X167546571Y-86369000D01*
X167689428Y-86297571D01*
X167903714Y-86297571D01*
X168046571Y-86369000D01*
X168118000Y-86511857D01*
X168118000Y-87297571D01*
X168118000Y-86511857D02*
X168189428Y-86369000D01*
X168332285Y-86297571D01*
X168546571Y-86297571D01*
X168689428Y-86369000D01*
X168760857Y-86511857D01*
X168760857Y-87297571D01*
D11*
%TO.C,REF\u002A\u002A*%
G36*
X171913014Y-70652998D02*
G01*
X172071006Y-70653863D01*
X172185347Y-70656205D01*
X172263407Y-70660762D01*
X172312554Y-70668270D01*
X172340159Y-70679466D01*
X172353592Y-70695088D01*
X172360221Y-70715873D01*
X172360865Y-70718563D01*
X172370935Y-70767113D01*
X172389575Y-70862905D01*
X172414845Y-70995743D01*
X172444807Y-71155431D01*
X172477522Y-71331774D01*
X172478664Y-71337967D01*
X172511433Y-71510782D01*
X172542093Y-71663469D01*
X172568664Y-71786871D01*
X172589167Y-71871831D01*
X172601626Y-71909190D01*
X172602220Y-71909852D01*
X172638919Y-71928095D01*
X172714586Y-71958497D01*
X172812878Y-71994493D01*
X172813425Y-71994685D01*
X172937233Y-72041222D01*
X173083196Y-72100504D01*
X173220781Y-72160109D01*
X173227293Y-72163056D01*
X173451390Y-72264765D01*
X173947619Y-71925897D01*
X174099846Y-71822592D01*
X174237741Y-71730237D01*
X174353315Y-71654084D01*
X174438579Y-71599385D01*
X174485544Y-71571393D01*
X174490004Y-71569317D01*
X174524134Y-71578560D01*
X174587881Y-71623156D01*
X174683731Y-71705209D01*
X174814169Y-71826821D01*
X174947328Y-71956205D01*
X175075694Y-72083702D01*
X175190581Y-72200046D01*
X175285073Y-72298052D01*
X175352253Y-72370536D01*
X175385206Y-72410313D01*
X175386432Y-72412361D01*
X175390074Y-72439656D01*
X175376350Y-72484234D01*
X175341869Y-72552112D01*
X175283239Y-72649311D01*
X175197070Y-72781851D01*
X175082200Y-72952476D01*
X174980254Y-73102655D01*
X174889123Y-73237350D01*
X174814073Y-73348740D01*
X174760369Y-73429005D01*
X174733280Y-73470325D01*
X174731574Y-73473130D01*
X174734882Y-73512721D01*
X174759953Y-73589669D01*
X174801798Y-73689432D01*
X174816712Y-73721291D01*
X174881786Y-73863226D01*
X174951212Y-74024273D01*
X175007609Y-74163621D01*
X175048247Y-74267044D01*
X175080526Y-74345642D01*
X175099178Y-74386720D01*
X175101497Y-74389885D01*
X175135803Y-74395128D01*
X175216669Y-74409494D01*
X175333343Y-74430937D01*
X175475075Y-74457413D01*
X175631110Y-74486877D01*
X175790698Y-74517283D01*
X175943085Y-74546588D01*
X176077521Y-74572745D01*
X176183252Y-74593710D01*
X176249526Y-74607439D01*
X176265782Y-74611320D01*
X176282573Y-74620900D01*
X176295249Y-74642536D01*
X176304378Y-74683531D01*
X176310531Y-74751189D01*
X176314280Y-74852812D01*
X176316192Y-74995703D01*
X176316840Y-75187165D01*
X176316874Y-75265645D01*
X176316874Y-75903906D01*
X176163598Y-75934160D01*
X176078322Y-75950564D01*
X175951070Y-75974509D01*
X175797315Y-76003107D01*
X175632534Y-76033467D01*
X175586989Y-76041806D01*
X175434932Y-76071370D01*
X175302468Y-76100442D01*
X175200714Y-76126329D01*
X175140788Y-76146337D01*
X175130805Y-76152301D01*
X175106293Y-76194534D01*
X175071148Y-76276370D01*
X175032173Y-76381683D01*
X175024442Y-76404368D01*
X174973360Y-76545018D01*
X174909954Y-76703714D01*
X174847904Y-76846225D01*
X174847598Y-76846886D01*
X174744267Y-77070440D01*
X175423961Y-78070232D01*
X174987621Y-78507300D01*
X174855649Y-78637381D01*
X174735279Y-78752048D01*
X174633273Y-78845181D01*
X174556391Y-78910658D01*
X174511393Y-78942357D01*
X174504938Y-78944368D01*
X174467040Y-78928529D01*
X174389708Y-78884496D01*
X174281389Y-78817490D01*
X174150532Y-78732734D01*
X174009052Y-78637816D01*
X173865461Y-78540998D01*
X173737435Y-78456751D01*
X173633105Y-78390258D01*
X173560600Y-78346702D01*
X173528158Y-78331264D01*
X173488576Y-78344328D01*
X173413519Y-78378750D01*
X173318468Y-78427380D01*
X173308392Y-78432785D01*
X173180391Y-78496980D01*
X173092618Y-78528463D01*
X173038028Y-78528798D01*
X173009575Y-78499548D01*
X173009410Y-78499138D01*
X172995188Y-78464498D01*
X172961269Y-78382269D01*
X172910284Y-78258814D01*
X172844862Y-78100498D01*
X172767634Y-77913686D01*
X172681229Y-77704742D01*
X172597551Y-77502446D01*
X172505588Y-77279200D01*
X172421150Y-77072392D01*
X172346769Y-76888362D01*
X172284974Y-76733451D01*
X172238297Y-76613996D01*
X172209268Y-76536339D01*
X172200322Y-76507356D01*
X172222756Y-76474110D01*
X172281439Y-76421123D01*
X172359689Y-76362704D01*
X172582534Y-76177952D01*
X172756718Y-75966182D01*
X172880154Y-75731856D01*
X172950754Y-75479434D01*
X172966431Y-75213377D01*
X172955036Y-75090575D01*
X172892950Y-74835793D01*
X172786023Y-74610801D01*
X172640889Y-74417817D01*
X172464178Y-74259061D01*
X172262522Y-74136750D01*
X172042554Y-74053105D01*
X171810906Y-74010344D01*
X171574209Y-74010687D01*
X171339095Y-74056352D01*
X171112196Y-74149559D01*
X170900144Y-74292527D01*
X170811636Y-74373383D01*
X170641889Y-74581007D01*
X170523699Y-74807895D01*
X170456278Y-75047433D01*
X170438840Y-75293007D01*
X170470598Y-75538003D01*
X170550765Y-75775808D01*
X170678555Y-75999807D01*
X170853180Y-76203387D01*
X171048312Y-76362704D01*
X171129591Y-76423602D01*
X171187009Y-76476015D01*
X171207678Y-76507406D01*
X171196856Y-76541639D01*
X171166077Y-76623419D01*
X171117874Y-76746407D01*
X171054778Y-76904263D01*
X170979322Y-77090649D01*
X170894038Y-77299226D01*
X170810219Y-77502496D01*
X170717745Y-77725933D01*
X170632089Y-77932984D01*
X170555882Y-78117286D01*
X170491753Y-78272475D01*
X170442332Y-78392188D01*
X170410248Y-78470061D01*
X170398359Y-78499138D01*
X170370274Y-78528677D01*
X170315949Y-78528591D01*
X170228395Y-78497326D01*
X170100619Y-78433329D01*
X170099608Y-78432785D01*
X170003402Y-78383121D01*
X169925631Y-78346945D01*
X169881777Y-78331408D01*
X169879842Y-78331264D01*
X169846829Y-78347024D01*
X169773946Y-78390850D01*
X169669322Y-78457557D01*
X169541090Y-78541964D01*
X169398948Y-78637816D01*
X169254233Y-78734867D01*
X169123804Y-78819270D01*
X169016110Y-78885801D01*
X168939598Y-78929238D01*
X168903062Y-78944368D01*
X168869418Y-78924482D01*
X168801776Y-78868903D01*
X168706893Y-78783754D01*
X168591530Y-78675153D01*
X168462445Y-78549221D01*
X168420229Y-78507149D01*
X167983739Y-78069931D01*
X168315977Y-77582340D01*
X168416946Y-77432605D01*
X168505562Y-77298220D01*
X168576854Y-77186969D01*
X168625850Y-77106639D01*
X168647578Y-77065014D01*
X168648215Y-77062053D01*
X168636760Y-77022818D01*
X168605949Y-76943895D01*
X168561116Y-76838509D01*
X168529647Y-76767954D01*
X168470808Y-76632876D01*
X168415396Y-76496409D01*
X168372436Y-76381103D01*
X168360766Y-76345977D01*
X168327611Y-76252174D01*
X168295201Y-76179694D01*
X168277399Y-76152301D01*
X168238114Y-76135536D01*
X168152374Y-76111770D01*
X168031303Y-76083697D01*
X167886027Y-76054009D01*
X167821012Y-76041806D01*
X167655913Y-76011468D01*
X167497552Y-75982093D01*
X167361404Y-75956569D01*
X167262943Y-75937785D01*
X167244402Y-75934160D01*
X167091127Y-75903906D01*
X167091127Y-75265645D01*
X167091471Y-75055770D01*
X167092884Y-74896980D01*
X167095936Y-74781973D01*
X167101197Y-74703446D01*
X167109237Y-74654096D01*
X167120627Y-74626619D01*
X167135937Y-74613713D01*
X167142218Y-74611320D01*
X167180104Y-74602833D01*
X167263805Y-74585900D01*
X167382567Y-74562566D01*
X167525639Y-74534875D01*
X167682268Y-74504873D01*
X167841703Y-74474604D01*
X167993191Y-74446115D01*
X168125981Y-74421449D01*
X168229319Y-74402651D01*
X168292455Y-74391767D01*
X168306503Y-74389885D01*
X168319230Y-74364704D01*
X168347400Y-74297622D01*
X168385748Y-74201333D01*
X168400391Y-74163621D01*
X168459452Y-74017921D01*
X168529000Y-73856951D01*
X168591288Y-73721291D01*
X168637121Y-73617561D01*
X168667613Y-73532326D01*
X168677792Y-73480126D01*
X168676169Y-73473130D01*
X168654657Y-73440102D01*
X168605535Y-73366643D01*
X168534077Y-73260577D01*
X168445555Y-73129726D01*
X168345241Y-72981912D01*
X168325406Y-72952734D01*
X168209012Y-72779863D01*
X168123452Y-72648226D01*
X168065316Y-72551761D01*
X168031192Y-72484408D01*
X168017669Y-72440106D01*
X168021336Y-72412794D01*
X168021430Y-72412620D01*
X168050293Y-72376746D01*
X168114133Y-72307391D01*
X168206031Y-72211745D01*
X168319067Y-72096999D01*
X168446321Y-71970341D01*
X168460672Y-71956205D01*
X168621043Y-71800903D01*
X168744805Y-71686870D01*
X168834445Y-71612002D01*
X168892448Y-71574196D01*
X168917996Y-71569317D01*
X168955282Y-71590603D01*
X169032657Y-71639773D01*
X169142133Y-71711575D01*
X169275720Y-71800755D01*
X169425430Y-71902063D01*
X169460382Y-71925897D01*
X169956610Y-72264765D01*
X170180707Y-72163056D01*
X170316989Y-72103783D01*
X170463276Y-72044170D01*
X170589035Y-71996640D01*
X170594575Y-71994685D01*
X170692943Y-71958677D01*
X170768771Y-71928229D01*
X170805718Y-71909905D01*
X170805780Y-71909852D01*
X170817504Y-71876729D01*
X170837432Y-71795267D01*
X170863587Y-71674625D01*
X170893990Y-71523959D01*
X170926663Y-71352428D01*
X170929336Y-71337967D01*
X170962110Y-71161235D01*
X170992198Y-71000810D01*
X171017661Y-70866888D01*
X171036559Y-70769663D01*
X171046953Y-70719332D01*
X171047135Y-70718563D01*
X171053461Y-70697153D01*
X171065761Y-70680988D01*
X171091406Y-70669331D01*
X171137765Y-70661445D01*
X171212208Y-70656593D01*
X171322105Y-70654039D01*
X171474825Y-70653045D01*
X171677738Y-70652874D01*
X171704000Y-70652874D01*
X171913014Y-70652998D01*
G37*
X171913014Y-70652998D02*
X172071006Y-70653863D01*
X172185347Y-70656205D01*
X172263407Y-70660762D01*
X172312554Y-70668270D01*
X172340159Y-70679466D01*
X172353592Y-70695088D01*
X172360221Y-70715873D01*
X172360865Y-70718563D01*
X172370935Y-70767113D01*
X172389575Y-70862905D01*
X172414845Y-70995743D01*
X172444807Y-71155431D01*
X172477522Y-71331774D01*
X172478664Y-71337967D01*
X172511433Y-71510782D01*
X172542093Y-71663469D01*
X172568664Y-71786871D01*
X172589167Y-71871831D01*
X172601626Y-71909190D01*
X172602220Y-71909852D01*
X172638919Y-71928095D01*
X172714586Y-71958497D01*
X172812878Y-71994493D01*
X172813425Y-71994685D01*
X172937233Y-72041222D01*
X173083196Y-72100504D01*
X173220781Y-72160109D01*
X173227293Y-72163056D01*
X173451390Y-72264765D01*
X173947619Y-71925897D01*
X174099846Y-71822592D01*
X174237741Y-71730237D01*
X174353315Y-71654084D01*
X174438579Y-71599385D01*
X174485544Y-71571393D01*
X174490004Y-71569317D01*
X174524134Y-71578560D01*
X174587881Y-71623156D01*
X174683731Y-71705209D01*
X174814169Y-71826821D01*
X174947328Y-71956205D01*
X175075694Y-72083702D01*
X175190581Y-72200046D01*
X175285073Y-72298052D01*
X175352253Y-72370536D01*
X175385206Y-72410313D01*
X175386432Y-72412361D01*
X175390074Y-72439656D01*
X175376350Y-72484234D01*
X175341869Y-72552112D01*
X175283239Y-72649311D01*
X175197070Y-72781851D01*
X175082200Y-72952476D01*
X174980254Y-73102655D01*
X174889123Y-73237350D01*
X174814073Y-73348740D01*
X174760369Y-73429005D01*
X174733280Y-73470325D01*
X174731574Y-73473130D01*
X174734882Y-73512721D01*
X174759953Y-73589669D01*
X174801798Y-73689432D01*
X174816712Y-73721291D01*
X174881786Y-73863226D01*
X174951212Y-74024273D01*
X175007609Y-74163621D01*
X175048247Y-74267044D01*
X175080526Y-74345642D01*
X175099178Y-74386720D01*
X175101497Y-74389885D01*
X175135803Y-74395128D01*
X175216669Y-74409494D01*
X175333343Y-74430937D01*
X175475075Y-74457413D01*
X175631110Y-74486877D01*
X175790698Y-74517283D01*
X175943085Y-74546588D01*
X176077521Y-74572745D01*
X176183252Y-74593710D01*
X176249526Y-74607439D01*
X176265782Y-74611320D01*
X176282573Y-74620900D01*
X176295249Y-74642536D01*
X176304378Y-74683531D01*
X176310531Y-74751189D01*
X176314280Y-74852812D01*
X176316192Y-74995703D01*
X176316840Y-75187165D01*
X176316874Y-75265645D01*
X176316874Y-75903906D01*
X176163598Y-75934160D01*
X176078322Y-75950564D01*
X175951070Y-75974509D01*
X175797315Y-76003107D01*
X175632534Y-76033467D01*
X175586989Y-76041806D01*
X175434932Y-76071370D01*
X175302468Y-76100442D01*
X175200714Y-76126329D01*
X175140788Y-76146337D01*
X175130805Y-76152301D01*
X175106293Y-76194534D01*
X175071148Y-76276370D01*
X175032173Y-76381683D01*
X175024442Y-76404368D01*
X174973360Y-76545018D01*
X174909954Y-76703714D01*
X174847904Y-76846225D01*
X174847598Y-76846886D01*
X174744267Y-77070440D01*
X175423961Y-78070232D01*
X174987621Y-78507300D01*
X174855649Y-78637381D01*
X174735279Y-78752048D01*
X174633273Y-78845181D01*
X174556391Y-78910658D01*
X174511393Y-78942357D01*
X174504938Y-78944368D01*
X174467040Y-78928529D01*
X174389708Y-78884496D01*
X174281389Y-78817490D01*
X174150532Y-78732734D01*
X174009052Y-78637816D01*
X173865461Y-78540998D01*
X173737435Y-78456751D01*
X173633105Y-78390258D01*
X173560600Y-78346702D01*
X173528158Y-78331264D01*
X173488576Y-78344328D01*
X173413519Y-78378750D01*
X173318468Y-78427380D01*
X173308392Y-78432785D01*
X173180391Y-78496980D01*
X173092618Y-78528463D01*
X173038028Y-78528798D01*
X173009575Y-78499548D01*
X173009410Y-78499138D01*
X172995188Y-78464498D01*
X172961269Y-78382269D01*
X172910284Y-78258814D01*
X172844862Y-78100498D01*
X172767634Y-77913686D01*
X172681229Y-77704742D01*
X172597551Y-77502446D01*
X172505588Y-77279200D01*
X172421150Y-77072392D01*
X172346769Y-76888362D01*
X172284974Y-76733451D01*
X172238297Y-76613996D01*
X172209268Y-76536339D01*
X172200322Y-76507356D01*
X172222756Y-76474110D01*
X172281439Y-76421123D01*
X172359689Y-76362704D01*
X172582534Y-76177952D01*
X172756718Y-75966182D01*
X172880154Y-75731856D01*
X172950754Y-75479434D01*
X172966431Y-75213377D01*
X172955036Y-75090575D01*
X172892950Y-74835793D01*
X172786023Y-74610801D01*
X172640889Y-74417817D01*
X172464178Y-74259061D01*
X172262522Y-74136750D01*
X172042554Y-74053105D01*
X171810906Y-74010344D01*
X171574209Y-74010687D01*
X171339095Y-74056352D01*
X171112196Y-74149559D01*
X170900144Y-74292527D01*
X170811636Y-74373383D01*
X170641889Y-74581007D01*
X170523699Y-74807895D01*
X170456278Y-75047433D01*
X170438840Y-75293007D01*
X170470598Y-75538003D01*
X170550765Y-75775808D01*
X170678555Y-75999807D01*
X170853180Y-76203387D01*
X171048312Y-76362704D01*
X171129591Y-76423602D01*
X171187009Y-76476015D01*
X171207678Y-76507406D01*
X171196856Y-76541639D01*
X171166077Y-76623419D01*
X171117874Y-76746407D01*
X171054778Y-76904263D01*
X170979322Y-77090649D01*
X170894038Y-77299226D01*
X170810219Y-77502496D01*
X170717745Y-77725933D01*
X170632089Y-77932984D01*
X170555882Y-78117286D01*
X170491753Y-78272475D01*
X170442332Y-78392188D01*
X170410248Y-78470061D01*
X170398359Y-78499138D01*
X170370274Y-78528677D01*
X170315949Y-78528591D01*
X170228395Y-78497326D01*
X170100619Y-78433329D01*
X170099608Y-78432785D01*
X170003402Y-78383121D01*
X169925631Y-78346945D01*
X169881777Y-78331408D01*
X169879842Y-78331264D01*
X169846829Y-78347024D01*
X169773946Y-78390850D01*
X169669322Y-78457557D01*
X169541090Y-78541964D01*
X169398948Y-78637816D01*
X169254233Y-78734867D01*
X169123804Y-78819270D01*
X169016110Y-78885801D01*
X168939598Y-78929238D01*
X168903062Y-78944368D01*
X168869418Y-78924482D01*
X168801776Y-78868903D01*
X168706893Y-78783754D01*
X168591530Y-78675153D01*
X168462445Y-78549221D01*
X168420229Y-78507149D01*
X167983739Y-78069931D01*
X168315977Y-77582340D01*
X168416946Y-77432605D01*
X168505562Y-77298220D01*
X168576854Y-77186969D01*
X168625850Y-77106639D01*
X168647578Y-77065014D01*
X168648215Y-77062053D01*
X168636760Y-77022818D01*
X168605949Y-76943895D01*
X168561116Y-76838509D01*
X168529647Y-76767954D01*
X168470808Y-76632876D01*
X168415396Y-76496409D01*
X168372436Y-76381103D01*
X168360766Y-76345977D01*
X168327611Y-76252174D01*
X168295201Y-76179694D01*
X168277399Y-76152301D01*
X168238114Y-76135536D01*
X168152374Y-76111770D01*
X168031303Y-76083697D01*
X167886027Y-76054009D01*
X167821012Y-76041806D01*
X167655913Y-76011468D01*
X167497552Y-75982093D01*
X167361404Y-75956569D01*
X167262943Y-75937785D01*
X167244402Y-75934160D01*
X167091127Y-75903906D01*
X167091127Y-75265645D01*
X167091471Y-75055770D01*
X167092884Y-74896980D01*
X167095936Y-74781973D01*
X167101197Y-74703446D01*
X167109237Y-74654096D01*
X167120627Y-74626619D01*
X167135937Y-74613713D01*
X167142218Y-74611320D01*
X167180104Y-74602833D01*
X167263805Y-74585900D01*
X167382567Y-74562566D01*
X167525639Y-74534875D01*
X167682268Y-74504873D01*
X167841703Y-74474604D01*
X167993191Y-74446115D01*
X168125981Y-74421449D01*
X168229319Y-74402651D01*
X168292455Y-74391767D01*
X168306503Y-74389885D01*
X168319230Y-74364704D01*
X168347400Y-74297622D01*
X168385748Y-74201333D01*
X168400391Y-74163621D01*
X168459452Y-74017921D01*
X168529000Y-73856951D01*
X168591288Y-73721291D01*
X168637121Y-73617561D01*
X168667613Y-73532326D01*
X168677792Y-73480126D01*
X168676169Y-73473130D01*
X168654657Y-73440102D01*
X168605535Y-73366643D01*
X168534077Y-73260577D01*
X168445555Y-73129726D01*
X168345241Y-72981912D01*
X168325406Y-72952734D01*
X168209012Y-72779863D01*
X168123452Y-72648226D01*
X168065316Y-72551761D01*
X168031192Y-72484408D01*
X168017669Y-72440106D01*
X168021336Y-72412794D01*
X168021430Y-72412620D01*
X168050293Y-72376746D01*
X168114133Y-72307391D01*
X168206031Y-72211745D01*
X168319067Y-72096999D01*
X168446321Y-71970341D01*
X168460672Y-71956205D01*
X168621043Y-71800903D01*
X168744805Y-71686870D01*
X168834445Y-71612002D01*
X168892448Y-71574196D01*
X168917996Y-71569317D01*
X168955282Y-71590603D01*
X169032657Y-71639773D01*
X169142133Y-71711575D01*
X169275720Y-71800755D01*
X169425430Y-71902063D01*
X169460382Y-71925897D01*
X169956610Y-72264765D01*
X170180707Y-72163056D01*
X170316989Y-72103783D01*
X170463276Y-72044170D01*
X170589035Y-71996640D01*
X170594575Y-71994685D01*
X170692943Y-71958677D01*
X170768771Y-71928229D01*
X170805718Y-71909905D01*
X170805780Y-71909852D01*
X170817504Y-71876729D01*
X170837432Y-71795267D01*
X170863587Y-71674625D01*
X170893990Y-71523959D01*
X170926663Y-71352428D01*
X170929336Y-71337967D01*
X170962110Y-71161235D01*
X170992198Y-71000810D01*
X171017661Y-70866888D01*
X171036559Y-70769663D01*
X171046953Y-70719332D01*
X171047135Y-70718563D01*
X171053461Y-70697153D01*
X171065761Y-70680988D01*
X171091406Y-70669331D01*
X171137765Y-70661445D01*
X171212208Y-70656593D01*
X171322105Y-70654039D01*
X171474825Y-70653045D01*
X171677738Y-70652874D01*
X171704000Y-70652874D01*
X171913014Y-70652998D01*
G36*
X178047439Y-80156540D02*
G01*
X178162950Y-80232034D01*
X178218664Y-80299617D01*
X178262804Y-80422255D01*
X178266309Y-80519298D01*
X178258368Y-80649056D01*
X177959115Y-80780039D01*
X177813611Y-80846958D01*
X177718537Y-80900790D01*
X177669101Y-80947416D01*
X177660511Y-80992720D01*
X177687972Y-81042582D01*
X177718253Y-81075632D01*
X177806363Y-81128633D01*
X177902196Y-81132347D01*
X177990212Y-81091041D01*
X178054869Y-81008983D01*
X178066433Y-80980008D01*
X178121825Y-80889509D01*
X178185553Y-80850940D01*
X178272966Y-80817946D01*
X178272966Y-80943034D01*
X178265238Y-81028156D01*
X178234966Y-81099938D01*
X178171518Y-81182356D01*
X178162088Y-81193066D01*
X178091513Y-81266391D01*
X178030847Y-81305742D01*
X177954950Y-81323845D01*
X177892030Y-81329774D01*
X177779487Y-81331251D01*
X177699370Y-81312535D01*
X177649390Y-81284747D01*
X177570838Y-81223641D01*
X177516463Y-81157554D01*
X177482052Y-81074441D01*
X177463388Y-80962254D01*
X177456256Y-80808946D01*
X177455687Y-80731136D01*
X177457622Y-80637853D01*
X177633899Y-80637853D01*
X177635944Y-80687896D01*
X177641039Y-80696092D01*
X177674666Y-80684958D01*
X177747030Y-80655493D01*
X177843747Y-80613601D01*
X177863973Y-80604597D01*
X177986203Y-80542442D01*
X178053547Y-80487815D01*
X178068348Y-80436649D01*
X178032947Y-80384876D01*
X178003711Y-80362000D01*
X177898216Y-80316250D01*
X177799476Y-80323808D01*
X177716812Y-80379651D01*
X177659548Y-80478753D01*
X177641188Y-80557414D01*
X177633899Y-80637853D01*
X177457622Y-80637853D01*
X177459459Y-80549351D01*
X177473359Y-80414853D01*
X177500894Y-80316916D01*
X177545572Y-80244811D01*
X177610901Y-80187813D01*
X177639383Y-80169393D01*
X177768763Y-80121422D01*
X177910412Y-80118403D01*
X178047439Y-80156540D01*
G37*
X178047439Y-80156540D02*
X178162950Y-80232034D01*
X178218664Y-80299617D01*
X178262804Y-80422255D01*
X178266309Y-80519298D01*
X178258368Y-80649056D01*
X177959115Y-80780039D01*
X177813611Y-80846958D01*
X177718537Y-80900790D01*
X177669101Y-80947416D01*
X177660511Y-80992720D01*
X177687972Y-81042582D01*
X177718253Y-81075632D01*
X177806363Y-81128633D01*
X177902196Y-81132347D01*
X177990212Y-81091041D01*
X178054869Y-81008983D01*
X178066433Y-80980008D01*
X178121825Y-80889509D01*
X178185553Y-80850940D01*
X178272966Y-80817946D01*
X178272966Y-80943034D01*
X178265238Y-81028156D01*
X178234966Y-81099938D01*
X178171518Y-81182356D01*
X178162088Y-81193066D01*
X178091513Y-81266391D01*
X178030847Y-81305742D01*
X177954950Y-81323845D01*
X177892030Y-81329774D01*
X177779487Y-81331251D01*
X177699370Y-81312535D01*
X177649390Y-81284747D01*
X177570838Y-81223641D01*
X177516463Y-81157554D01*
X177482052Y-81074441D01*
X177463388Y-80962254D01*
X177456256Y-80808946D01*
X177455687Y-80731136D01*
X177457622Y-80637853D01*
X177633899Y-80637853D01*
X177635944Y-80687896D01*
X177641039Y-80696092D01*
X177674666Y-80684958D01*
X177747030Y-80655493D01*
X177843747Y-80613601D01*
X177863973Y-80604597D01*
X177986203Y-80542442D01*
X178053547Y-80487815D01*
X178068348Y-80436649D01*
X178032947Y-80384876D01*
X178003711Y-80362000D01*
X177898216Y-80316250D01*
X177799476Y-80323808D01*
X177716812Y-80379651D01*
X177659548Y-80478753D01*
X177641188Y-80557414D01*
X177633899Y-80637853D01*
X177457622Y-80637853D01*
X177459459Y-80549351D01*
X177473359Y-80414853D01*
X177500894Y-80316916D01*
X177545572Y-80244811D01*
X177610901Y-80187813D01*
X177639383Y-80169393D01*
X177768763Y-80121422D01*
X177910412Y-80118403D01*
X178047439Y-80156540D01*
G36*
X177039690Y-80140018D02*
G01*
X177074585Y-80155269D01*
X177157877Y-80221235D01*
X177229103Y-80316618D01*
X177273153Y-80418406D01*
X177280322Y-80468587D01*
X177256285Y-80538647D01*
X177203561Y-80575717D01*
X177147031Y-80598164D01*
X177121146Y-80602300D01*
X177108542Y-80572283D01*
X177083654Y-80506961D01*
X177072735Y-80477445D01*
X177011508Y-80375348D01*
X176922861Y-80324423D01*
X176809193Y-80325989D01*
X176800774Y-80327994D01*
X176740088Y-80356767D01*
X176695474Y-80412859D01*
X176665002Y-80503163D01*
X176646744Y-80634571D01*
X176638771Y-80813974D01*
X176638023Y-80909433D01*
X176637652Y-81059913D01*
X176635223Y-81162495D01*
X176628760Y-81227672D01*
X176616288Y-81265938D01*
X176595833Y-81287785D01*
X176565419Y-81303707D01*
X176563661Y-81304509D01*
X176505091Y-81329272D01*
X176476075Y-81338391D01*
X176471616Y-81310822D01*
X176467799Y-81234620D01*
X176464899Y-81119541D01*
X176463191Y-80975341D01*
X176462851Y-80869814D01*
X176464588Y-80665613D01*
X176471382Y-80510697D01*
X176485607Y-80396024D01*
X176509638Y-80312551D01*
X176545848Y-80251236D01*
X176596612Y-80203034D01*
X176646739Y-80169393D01*
X176767275Y-80124619D01*
X176907557Y-80114521D01*
X177039690Y-80140018D01*
G37*
X177039690Y-80140018D02*
X177074585Y-80155269D01*
X177157877Y-80221235D01*
X177229103Y-80316618D01*
X177273153Y-80418406D01*
X177280322Y-80468587D01*
X177256285Y-80538647D01*
X177203561Y-80575717D01*
X177147031Y-80598164D01*
X177121146Y-80602300D01*
X177108542Y-80572283D01*
X177083654Y-80506961D01*
X177072735Y-80477445D01*
X177011508Y-80375348D01*
X176922861Y-80324423D01*
X176809193Y-80325989D01*
X176800774Y-80327994D01*
X176740088Y-80356767D01*
X176695474Y-80412859D01*
X176665002Y-80503163D01*
X176646744Y-80634571D01*
X176638771Y-80813974D01*
X176638023Y-80909433D01*
X176637652Y-81059913D01*
X176635223Y-81162495D01*
X176628760Y-81227672D01*
X176616288Y-81265938D01*
X176595833Y-81287785D01*
X176565419Y-81303707D01*
X176563661Y-81304509D01*
X176505091Y-81329272D01*
X176476075Y-81338391D01*
X176471616Y-81310822D01*
X176467799Y-81234620D01*
X176464899Y-81119541D01*
X176463191Y-80975341D01*
X176462851Y-80869814D01*
X176464588Y-80665613D01*
X176471382Y-80510697D01*
X176485607Y-80396024D01*
X176509638Y-80312551D01*
X176545848Y-80251236D01*
X176596612Y-80203034D01*
X176646739Y-80169393D01*
X176767275Y-80124619D01*
X176907557Y-80114521D01*
X177039690Y-80140018D01*
G36*
X176018406Y-80135156D02*
G01*
X176102469Y-80173393D01*
X176168450Y-80219726D01*
X176216794Y-80271532D01*
X176250172Y-80338363D01*
X176271253Y-80429769D01*
X176282707Y-80555301D01*
X176287203Y-80724508D01*
X176287678Y-80835933D01*
X176287678Y-81270627D01*
X176213316Y-81304509D01*
X176154746Y-81329272D01*
X176125730Y-81338391D01*
X176120179Y-81311257D01*
X176115775Y-81238094D01*
X176113078Y-81131263D01*
X176112506Y-81046437D01*
X176110046Y-80923887D01*
X176103412Y-80826668D01*
X176093726Y-80767134D01*
X176086032Y-80754483D01*
X176034311Y-80767402D01*
X175953117Y-80800539D01*
X175859102Y-80845461D01*
X175768917Y-80893735D01*
X175699215Y-80936928D01*
X175666648Y-80966608D01*
X175666519Y-80966929D01*
X175669320Y-81021857D01*
X175694439Y-81074292D01*
X175738541Y-81116881D01*
X175802909Y-81131126D01*
X175857921Y-81129466D01*
X175935835Y-81128245D01*
X175976732Y-81146498D01*
X176001295Y-81194726D01*
X176004392Y-81203820D01*
X176015040Y-81272598D01*
X175986565Y-81314360D01*
X175912344Y-81334263D01*
X175832168Y-81337944D01*
X175687890Y-81310658D01*
X175613203Y-81271690D01*
X175520963Y-81180148D01*
X175472043Y-81067782D01*
X175467654Y-80949051D01*
X175509001Y-80838411D01*
X175571197Y-80769080D01*
X175633294Y-80730265D01*
X175730895Y-80681125D01*
X175844632Y-80631292D01*
X175863590Y-80623677D01*
X175988521Y-80568545D01*
X176060539Y-80519954D01*
X176083700Y-80471647D01*
X176062064Y-80417370D01*
X176024920Y-80374943D01*
X175937127Y-80322702D01*
X175840530Y-80318784D01*
X175751944Y-80359041D01*
X175688186Y-80439326D01*
X175679817Y-80460040D01*
X175631096Y-80536225D01*
X175559965Y-80592785D01*
X175470207Y-80639201D01*
X175470207Y-80507584D01*
X175475490Y-80427168D01*
X175498142Y-80363786D01*
X175548367Y-80296163D01*
X175596582Y-80244076D01*
X175671554Y-80170322D01*
X175729806Y-80130702D01*
X175792372Y-80114810D01*
X175863193Y-80112184D01*
X176018406Y-80135156D01*
G37*
X176018406Y-80135156D02*
X176102469Y-80173393D01*
X176168450Y-80219726D01*
X176216794Y-80271532D01*
X176250172Y-80338363D01*
X176271253Y-80429769D01*
X176282707Y-80555301D01*
X176287203Y-80724508D01*
X176287678Y-80835933D01*
X176287678Y-81270627D01*
X176213316Y-81304509D01*
X176154746Y-81329272D01*
X176125730Y-81338391D01*
X176120179Y-81311257D01*
X176115775Y-81238094D01*
X176113078Y-81131263D01*
X176112506Y-81046437D01*
X176110046Y-80923887D01*
X176103412Y-80826668D01*
X176093726Y-80767134D01*
X176086032Y-80754483D01*
X176034311Y-80767402D01*
X175953117Y-80800539D01*
X175859102Y-80845461D01*
X175768917Y-80893735D01*
X175699215Y-80936928D01*
X175666648Y-80966608D01*
X175666519Y-80966929D01*
X175669320Y-81021857D01*
X175694439Y-81074292D01*
X175738541Y-81116881D01*
X175802909Y-81131126D01*
X175857921Y-81129466D01*
X175935835Y-81128245D01*
X175976732Y-81146498D01*
X176001295Y-81194726D01*
X176004392Y-81203820D01*
X176015040Y-81272598D01*
X175986565Y-81314360D01*
X175912344Y-81334263D01*
X175832168Y-81337944D01*
X175687890Y-81310658D01*
X175613203Y-81271690D01*
X175520963Y-81180148D01*
X175472043Y-81067782D01*
X175467654Y-80949051D01*
X175509001Y-80838411D01*
X175571197Y-80769080D01*
X175633294Y-80730265D01*
X175730895Y-80681125D01*
X175844632Y-80631292D01*
X175863590Y-80623677D01*
X175988521Y-80568545D01*
X176060539Y-80519954D01*
X176083700Y-80471647D01*
X176062064Y-80417370D01*
X176024920Y-80374943D01*
X175937127Y-80322702D01*
X175840530Y-80318784D01*
X175751944Y-80359041D01*
X175688186Y-80439326D01*
X175679817Y-80460040D01*
X175631096Y-80536225D01*
X175559965Y-80592785D01*
X175470207Y-80639201D01*
X175470207Y-80507584D01*
X175475490Y-80427168D01*
X175498142Y-80363786D01*
X175548367Y-80296163D01*
X175596582Y-80244076D01*
X175671554Y-80170322D01*
X175729806Y-80130702D01*
X175792372Y-80114810D01*
X175863193Y-80112184D01*
X176018406Y-80135156D01*
G36*
X175284124Y-80139840D02*
G01*
X175288579Y-80216653D01*
X175292071Y-80333391D01*
X175294315Y-80480821D01*
X175295035Y-80635455D01*
X175295035Y-81158727D01*
X175202645Y-81251117D01*
X175138978Y-81308047D01*
X175083089Y-81331107D01*
X175006702Y-81329647D01*
X174976380Y-81325934D01*
X174881610Y-81315126D01*
X174803222Y-81308933D01*
X174784115Y-81308361D01*
X174719699Y-81312102D01*
X174627571Y-81321494D01*
X174591850Y-81325934D01*
X174504114Y-81332801D01*
X174445153Y-81317885D01*
X174386690Y-81271835D01*
X174365585Y-81251117D01*
X174273195Y-81158727D01*
X174273195Y-80179947D01*
X174347558Y-80146066D01*
X174411590Y-80120970D01*
X174449052Y-80112184D01*
X174458657Y-80139950D01*
X174467635Y-80217530D01*
X174475386Y-80336348D01*
X174481314Y-80487828D01*
X174484173Y-80615805D01*
X174492161Y-81119425D01*
X174561848Y-81129278D01*
X174625229Y-81122389D01*
X174656286Y-81100083D01*
X174664967Y-81058379D01*
X174672378Y-80969544D01*
X174677931Y-80844834D01*
X174681036Y-80695507D01*
X174681484Y-80618661D01*
X174681931Y-80176287D01*
X174773874Y-80144235D01*
X174838949Y-80122443D01*
X174874347Y-80112281D01*
X174875368Y-80112184D01*
X174878920Y-80139809D01*
X174882823Y-80216411D01*
X174886751Y-80332579D01*
X174890376Y-80478904D01*
X174892908Y-80615805D01*
X174900897Y-81119425D01*
X175076069Y-81119425D01*
X175084107Y-80659965D01*
X175092146Y-80200505D01*
X175177543Y-80156344D01*
X175240593Y-80126019D01*
X175277910Y-80112258D01*
X175278987Y-80112184D01*
X175284124Y-80139840D01*
G37*
X175284124Y-80139840D02*
X175288579Y-80216653D01*
X175292071Y-80333391D01*
X175294315Y-80480821D01*
X175295035Y-80635455D01*
X175295035Y-81158727D01*
X175202645Y-81251117D01*
X175138978Y-81308047D01*
X175083089Y-81331107D01*
X175006702Y-81329647D01*
X174976380Y-81325934D01*
X174881610Y-81315126D01*
X174803222Y-81308933D01*
X174784115Y-81308361D01*
X174719699Y-81312102D01*
X174627571Y-81321494D01*
X174591850Y-81325934D01*
X174504114Y-81332801D01*
X174445153Y-81317885D01*
X174386690Y-81271835D01*
X174365585Y-81251117D01*
X174273195Y-81158727D01*
X174273195Y-80179947D01*
X174347558Y-80146066D01*
X174411590Y-80120970D01*
X174449052Y-80112184D01*
X174458657Y-80139950D01*
X174467635Y-80217530D01*
X174475386Y-80336348D01*
X174481314Y-80487828D01*
X174484173Y-80615805D01*
X174492161Y-81119425D01*
X174561848Y-81129278D01*
X174625229Y-81122389D01*
X174656286Y-81100083D01*
X174664967Y-81058379D01*
X174672378Y-80969544D01*
X174677931Y-80844834D01*
X174681036Y-80695507D01*
X174681484Y-80618661D01*
X174681931Y-80176287D01*
X174773874Y-80144235D01*
X174838949Y-80122443D01*
X174874347Y-80112281D01*
X174875368Y-80112184D01*
X174878920Y-80139809D01*
X174882823Y-80216411D01*
X174886751Y-80332579D01*
X174890376Y-80478904D01*
X174892908Y-80615805D01*
X174900897Y-81119425D01*
X175076069Y-81119425D01*
X175084107Y-80659965D01*
X175092146Y-80200505D01*
X175177543Y-80156344D01*
X175240593Y-80126019D01*
X175277910Y-80112258D01*
X175278987Y-80112184D01*
X175284124Y-80139840D01*
G36*
X174097914Y-80354455D02*
G01*
X174097543Y-80572661D01*
X174096108Y-80740519D01*
X174093002Y-80866070D01*
X174087622Y-80957355D01*
X174079362Y-81022415D01*
X174067616Y-81069291D01*
X174051781Y-81106024D01*
X174039790Y-81126991D01*
X173940490Y-81240694D01*
X173814588Y-81311965D01*
X173675291Y-81337538D01*
X173535805Y-81314150D01*
X173452743Y-81272119D01*
X173365545Y-81199411D01*
X173306117Y-81110612D01*
X173270261Y-80994320D01*
X173253781Y-80839135D01*
X173251447Y-80725287D01*
X173251761Y-80717106D01*
X173455724Y-80717106D01*
X173456970Y-80847657D01*
X173462678Y-80934080D01*
X173475804Y-80990618D01*
X173499306Y-81031514D01*
X173527386Y-81062362D01*
X173621688Y-81121905D01*
X173722940Y-81126992D01*
X173818636Y-81077279D01*
X173826084Y-81070543D01*
X173857874Y-81035502D01*
X173877808Y-80993811D01*
X173888600Y-80931762D01*
X173892965Y-80835644D01*
X173893655Y-80729379D01*
X173892159Y-80595880D01*
X173885964Y-80506822D01*
X173872514Y-80448293D01*
X173849251Y-80406382D01*
X173830175Y-80384123D01*
X173741563Y-80327985D01*
X173639508Y-80321235D01*
X173542095Y-80364114D01*
X173523296Y-80380032D01*
X173491293Y-80415382D01*
X173471318Y-80457502D01*
X173460593Y-80520251D01*
X173456339Y-80617487D01*
X173455724Y-80717106D01*
X173251761Y-80717106D01*
X173258504Y-80541947D01*
X173282472Y-80404195D01*
X173327548Y-80300632D01*
X173397928Y-80219856D01*
X173452743Y-80178455D01*
X173552376Y-80133728D01*
X173667855Y-80112967D01*
X173775199Y-80118525D01*
X173835264Y-80140943D01*
X173858835Y-80147323D01*
X173874477Y-80123535D01*
X173885395Y-80059788D01*
X173893655Y-79962687D01*
X173902699Y-79854541D01*
X173915261Y-79789475D01*
X173938119Y-79752268D01*
X173978051Y-79727699D01*
X174003138Y-79716819D01*
X174098023Y-79677072D01*
X174097914Y-80354455D01*
G37*
X174097914Y-80354455D02*
X174097543Y-80572661D01*
X174096108Y-80740519D01*
X174093002Y-80866070D01*
X174087622Y-80957355D01*
X174079362Y-81022415D01*
X174067616Y-81069291D01*
X174051781Y-81106024D01*
X174039790Y-81126991D01*
X173940490Y-81240694D01*
X173814588Y-81311965D01*
X173675291Y-81337538D01*
X173535805Y-81314150D01*
X173452743Y-81272119D01*
X173365545Y-81199411D01*
X173306117Y-81110612D01*
X173270261Y-80994320D01*
X173253781Y-80839135D01*
X173251447Y-80725287D01*
X173251761Y-80717106D01*
X173455724Y-80717106D01*
X173456970Y-80847657D01*
X173462678Y-80934080D01*
X173475804Y-80990618D01*
X173499306Y-81031514D01*
X173527386Y-81062362D01*
X173621688Y-81121905D01*
X173722940Y-81126992D01*
X173818636Y-81077279D01*
X173826084Y-81070543D01*
X173857874Y-81035502D01*
X173877808Y-80993811D01*
X173888600Y-80931762D01*
X173892965Y-80835644D01*
X173893655Y-80729379D01*
X173892159Y-80595880D01*
X173885964Y-80506822D01*
X173872514Y-80448293D01*
X173849251Y-80406382D01*
X173830175Y-80384123D01*
X173741563Y-80327985D01*
X173639508Y-80321235D01*
X173542095Y-80364114D01*
X173523296Y-80380032D01*
X173491293Y-80415382D01*
X173471318Y-80457502D01*
X173460593Y-80520251D01*
X173456339Y-80617487D01*
X173455724Y-80717106D01*
X173251761Y-80717106D01*
X173258504Y-80541947D01*
X173282472Y-80404195D01*
X173327548Y-80300632D01*
X173397928Y-80219856D01*
X173452743Y-80178455D01*
X173552376Y-80133728D01*
X173667855Y-80112967D01*
X173775199Y-80118525D01*
X173835264Y-80140943D01*
X173858835Y-80147323D01*
X173874477Y-80123535D01*
X173885395Y-80059788D01*
X173893655Y-79962687D01*
X173902699Y-79854541D01*
X173915261Y-79789475D01*
X173938119Y-79752268D01*
X173978051Y-79727699D01*
X174003138Y-79716819D01*
X174098023Y-79677072D01*
X174097914Y-80354455D01*
G36*
X172769943Y-80121920D02*
G01*
X172902565Y-80170859D01*
X173010010Y-80257419D01*
X173052032Y-80318352D01*
X173097843Y-80430161D01*
X173096891Y-80511006D01*
X173048808Y-80565378D01*
X173031017Y-80574624D01*
X172954204Y-80603450D01*
X172914976Y-80596065D01*
X172901689Y-80547658D01*
X172901012Y-80520920D01*
X172876686Y-80422548D01*
X172813281Y-80353734D01*
X172725154Y-80320498D01*
X172626663Y-80328861D01*
X172546602Y-80372296D01*
X172519561Y-80397072D01*
X172500394Y-80427129D01*
X172487446Y-80472565D01*
X172479064Y-80543476D01*
X172473593Y-80649960D01*
X172469378Y-80802112D01*
X172468287Y-80850287D01*
X172464307Y-81015095D01*
X172459781Y-81131088D01*
X172452995Y-81207833D01*
X172442231Y-81254893D01*
X172425773Y-81281835D01*
X172401906Y-81298223D01*
X172386626Y-81305463D01*
X172321733Y-81330220D01*
X172283534Y-81338391D01*
X172270912Y-81311103D01*
X172263208Y-81228603D01*
X172260380Y-81089941D01*
X172262386Y-80894162D01*
X172263011Y-80863965D01*
X172267421Y-80685349D01*
X172272635Y-80554923D01*
X172280055Y-80462492D01*
X172291082Y-80397858D01*
X172307117Y-80350825D01*
X172329561Y-80311196D01*
X172341302Y-80294215D01*
X172408619Y-80219080D01*
X172483910Y-80160638D01*
X172493128Y-80155536D01*
X172628133Y-80115260D01*
X172769943Y-80121920D01*
G37*
X172769943Y-80121920D02*
X172902565Y-80170859D01*
X173010010Y-80257419D01*
X173052032Y-80318352D01*
X173097843Y-80430161D01*
X173096891Y-80511006D01*
X173048808Y-80565378D01*
X173031017Y-80574624D01*
X172954204Y-80603450D01*
X172914976Y-80596065D01*
X172901689Y-80547658D01*
X172901012Y-80520920D01*
X172876686Y-80422548D01*
X172813281Y-80353734D01*
X172725154Y-80320498D01*
X172626663Y-80328861D01*
X172546602Y-80372296D01*
X172519561Y-80397072D01*
X172500394Y-80427129D01*
X172487446Y-80472565D01*
X172479064Y-80543476D01*
X172473593Y-80649960D01*
X172469378Y-80802112D01*
X172468287Y-80850287D01*
X172464307Y-81015095D01*
X172459781Y-81131088D01*
X172452995Y-81207833D01*
X172442231Y-81254893D01*
X172425773Y-81281835D01*
X172401906Y-81298223D01*
X172386626Y-81305463D01*
X172321733Y-81330220D01*
X172283534Y-81338391D01*
X172270912Y-81311103D01*
X172263208Y-81228603D01*
X172260380Y-81089941D01*
X172262386Y-80894162D01*
X172263011Y-80863965D01*
X172267421Y-80685349D01*
X172272635Y-80554923D01*
X172280055Y-80462492D01*
X172291082Y-80397858D01*
X172307117Y-80350825D01*
X172329561Y-80311196D01*
X172341302Y-80294215D01*
X172408619Y-80219080D01*
X172483910Y-80160638D01*
X172493128Y-80155536D01*
X172628133Y-80115260D01*
X172769943Y-80121920D01*
G36*
X171783944Y-80124360D02*
G01*
X171898343Y-80166842D01*
X171899652Y-80167658D01*
X171970403Y-80219730D01*
X172022636Y-80280584D01*
X172059371Y-80359887D01*
X172083634Y-80467309D01*
X172098445Y-80612517D01*
X172106829Y-80805179D01*
X172107564Y-80832628D01*
X172118120Y-81246521D01*
X172029291Y-81292456D01*
X171965018Y-81323498D01*
X171926210Y-81338206D01*
X171924415Y-81338391D01*
X171917700Y-81311250D01*
X171912365Y-81238041D01*
X171909083Y-81131081D01*
X171908368Y-81044469D01*
X171908351Y-80904162D01*
X171901937Y-80816051D01*
X171879580Y-80774025D01*
X171831732Y-80771975D01*
X171748849Y-80803790D01*
X171623713Y-80862272D01*
X171531697Y-80910845D01*
X171484371Y-80952986D01*
X171470458Y-80998916D01*
X171470437Y-81001189D01*
X171493395Y-81080311D01*
X171561370Y-81123055D01*
X171665398Y-81129246D01*
X171740330Y-81128172D01*
X171779839Y-81149753D01*
X171804478Y-81201591D01*
X171818659Y-81267632D01*
X171798223Y-81305104D01*
X171790528Y-81310467D01*
X171718083Y-81332006D01*
X171616633Y-81335055D01*
X171512157Y-81320778D01*
X171438125Y-81294688D01*
X171335772Y-81207785D01*
X171277591Y-81086816D01*
X171266069Y-80992308D01*
X171274862Y-80907062D01*
X171306680Y-80837476D01*
X171369684Y-80775672D01*
X171472031Y-80713772D01*
X171621882Y-80643897D01*
X171631012Y-80639948D01*
X171765997Y-80577588D01*
X171849294Y-80526446D01*
X171884997Y-80480488D01*
X171877203Y-80433683D01*
X171830007Y-80379998D01*
X171815894Y-80367644D01*
X171721359Y-80319741D01*
X171623406Y-80321758D01*
X171538097Y-80368724D01*
X171481496Y-80455669D01*
X171476237Y-80472734D01*
X171425023Y-80555504D01*
X171360037Y-80595372D01*
X171266069Y-80634882D01*
X171266069Y-80532658D01*
X171294653Y-80384072D01*
X171379495Y-80247784D01*
X171423645Y-80202191D01*
X171524005Y-80143674D01*
X171651635Y-80117184D01*
X171783944Y-80124360D01*
G37*
X171783944Y-80124360D02*
X171898343Y-80166842D01*
X171899652Y-80167658D01*
X171970403Y-80219730D01*
X172022636Y-80280584D01*
X172059371Y-80359887D01*
X172083634Y-80467309D01*
X172098445Y-80612517D01*
X172106829Y-80805179D01*
X172107564Y-80832628D01*
X172118120Y-81246521D01*
X172029291Y-81292456D01*
X171965018Y-81323498D01*
X171926210Y-81338206D01*
X171924415Y-81338391D01*
X171917700Y-81311250D01*
X171912365Y-81238041D01*
X171909083Y-81131081D01*
X171908368Y-81044469D01*
X171908351Y-80904162D01*
X171901937Y-80816051D01*
X171879580Y-80774025D01*
X171831732Y-80771975D01*
X171748849Y-80803790D01*
X171623713Y-80862272D01*
X171531697Y-80910845D01*
X171484371Y-80952986D01*
X171470458Y-80998916D01*
X171470437Y-81001189D01*
X171493395Y-81080311D01*
X171561370Y-81123055D01*
X171665398Y-81129246D01*
X171740330Y-81128172D01*
X171779839Y-81149753D01*
X171804478Y-81201591D01*
X171818659Y-81267632D01*
X171798223Y-81305104D01*
X171790528Y-81310467D01*
X171718083Y-81332006D01*
X171616633Y-81335055D01*
X171512157Y-81320778D01*
X171438125Y-81294688D01*
X171335772Y-81207785D01*
X171277591Y-81086816D01*
X171266069Y-80992308D01*
X171274862Y-80907062D01*
X171306680Y-80837476D01*
X171369684Y-80775672D01*
X171472031Y-80713772D01*
X171621882Y-80643897D01*
X171631012Y-80639948D01*
X171765997Y-80577588D01*
X171849294Y-80526446D01*
X171884997Y-80480488D01*
X171877203Y-80433683D01*
X171830007Y-80379998D01*
X171815894Y-80367644D01*
X171721359Y-80319741D01*
X171623406Y-80321758D01*
X171538097Y-80368724D01*
X171481496Y-80455669D01*
X171476237Y-80472734D01*
X171425023Y-80555504D01*
X171360037Y-80595372D01*
X171266069Y-80634882D01*
X171266069Y-80532658D01*
X171294653Y-80384072D01*
X171379495Y-80247784D01*
X171423645Y-80202191D01*
X171524005Y-80143674D01*
X171651635Y-80117184D01*
X171783944Y-80124360D01*
G36*
X170448598Y-79923857D02*
G01*
X170457154Y-80043188D01*
X170466981Y-80113506D01*
X170480599Y-80144179D01*
X170500527Y-80144571D01*
X170506989Y-80140910D01*
X170592940Y-80114398D01*
X170704745Y-80115946D01*
X170818414Y-80143199D01*
X170889510Y-80178455D01*
X170962405Y-80234778D01*
X171015693Y-80298519D01*
X171052275Y-80379510D01*
X171075050Y-80487586D01*
X171086919Y-80632580D01*
X171090782Y-80824326D01*
X171090851Y-80861109D01*
X171090897Y-81274288D01*
X170998954Y-81306339D01*
X170933652Y-81328144D01*
X170897824Y-81338297D01*
X170896770Y-81338391D01*
X170893242Y-81310860D01*
X170890239Y-81234923D01*
X170887990Y-81120565D01*
X170886724Y-80977769D01*
X170886529Y-80890951D01*
X170886123Y-80719773D01*
X170884032Y-80597088D01*
X170878947Y-80513000D01*
X170869560Y-80457614D01*
X170854561Y-80421032D01*
X170832642Y-80393359D01*
X170818957Y-80380032D01*
X170724949Y-80326328D01*
X170622364Y-80322307D01*
X170529290Y-80367725D01*
X170512078Y-80384123D01*
X170486832Y-80414957D01*
X170469320Y-80451531D01*
X170458142Y-80504415D01*
X170451896Y-80584177D01*
X170449182Y-80701385D01*
X170448598Y-80862991D01*
X170448598Y-81274288D01*
X170356655Y-81306339D01*
X170291353Y-81328144D01*
X170255525Y-81338297D01*
X170254471Y-81338391D01*
X170251775Y-81310448D01*
X170249345Y-81231630D01*
X170247278Y-81109453D01*
X170245671Y-80951432D01*
X170244623Y-80765083D01*
X170244231Y-80557920D01*
X170244230Y-80548706D01*
X170244230Y-79759020D01*
X170339115Y-79718997D01*
X170434000Y-79678973D01*
X170448598Y-79923857D01*
G37*
X170448598Y-79923857D02*
X170457154Y-80043188D01*
X170466981Y-80113506D01*
X170480599Y-80144179D01*
X170500527Y-80144571D01*
X170506989Y-80140910D01*
X170592940Y-80114398D01*
X170704745Y-80115946D01*
X170818414Y-80143199D01*
X170889510Y-80178455D01*
X170962405Y-80234778D01*
X171015693Y-80298519D01*
X171052275Y-80379510D01*
X171075050Y-80487586D01*
X171086919Y-80632580D01*
X171090782Y-80824326D01*
X171090851Y-80861109D01*
X171090897Y-81274288D01*
X170998954Y-81306339D01*
X170933652Y-81328144D01*
X170897824Y-81338297D01*
X170896770Y-81338391D01*
X170893242Y-81310860D01*
X170890239Y-81234923D01*
X170887990Y-81120565D01*
X170886724Y-80977769D01*
X170886529Y-80890951D01*
X170886123Y-80719773D01*
X170884032Y-80597088D01*
X170878947Y-80513000D01*
X170869560Y-80457614D01*
X170854561Y-80421032D01*
X170832642Y-80393359D01*
X170818957Y-80380032D01*
X170724949Y-80326328D01*
X170622364Y-80322307D01*
X170529290Y-80367725D01*
X170512078Y-80384123D01*
X170486832Y-80414957D01*
X170469320Y-80451531D01*
X170458142Y-80504415D01*
X170451896Y-80584177D01*
X170449182Y-80701385D01*
X170448598Y-80862991D01*
X170448598Y-81274288D01*
X170356655Y-81306339D01*
X170291353Y-81328144D01*
X170255525Y-81338297D01*
X170254471Y-81338391D01*
X170251775Y-81310448D01*
X170249345Y-81231630D01*
X170247278Y-81109453D01*
X170245671Y-80951432D01*
X170244623Y-80765083D01*
X170244231Y-80557920D01*
X170244230Y-80548706D01*
X170244230Y-79759020D01*
X170339115Y-79718997D01*
X170434000Y-79678973D01*
X170448598Y-79923857D01*
G36*
X168019552Y-80084676D02*
G01*
X168134658Y-80162111D01*
X168223611Y-80273949D01*
X168276749Y-80416265D01*
X168287497Y-80521015D01*
X168286276Y-80564726D01*
X168276056Y-80598194D01*
X168247961Y-80628179D01*
X168193116Y-80661440D01*
X168102645Y-80704738D01*
X167967672Y-80764833D01*
X167966989Y-80765134D01*
X167842751Y-80822037D01*
X167740873Y-80872565D01*
X167671767Y-80911280D01*
X167645846Y-80932740D01*
X167645839Y-80932913D01*
X167668685Y-80979644D01*
X167722109Y-81031154D01*
X167783442Y-81068261D01*
X167814515Y-81075632D01*
X167899289Y-81050138D01*
X167972293Y-80986291D01*
X168007913Y-80916094D01*
X168042180Y-80864343D01*
X168109303Y-80805409D01*
X168188208Y-80754496D01*
X168257821Y-80726809D01*
X168272377Y-80725287D01*
X168288763Y-80750321D01*
X168289750Y-80814311D01*
X168277708Y-80900593D01*
X168255007Y-80992501D01*
X168224014Y-81073369D01*
X168222448Y-81076509D01*
X168129181Y-81206734D01*
X168008304Y-81295311D01*
X167871027Y-81338786D01*
X167728560Y-81333706D01*
X167592112Y-81276616D01*
X167586045Y-81272602D01*
X167478710Y-81175326D01*
X167408132Y-81048409D01*
X167369074Y-80881526D01*
X167363832Y-80834639D01*
X167354548Y-80613329D01*
X167365678Y-80510124D01*
X167645839Y-80510124D01*
X167649479Y-80574503D01*
X167669389Y-80593291D01*
X167719026Y-80579235D01*
X167797267Y-80546009D01*
X167884726Y-80504359D01*
X167886899Y-80503256D01*
X167961030Y-80464265D01*
X167990781Y-80438244D01*
X167983445Y-80410965D01*
X167952553Y-80375121D01*
X167873960Y-80323251D01*
X167789323Y-80319439D01*
X167713403Y-80357189D01*
X167660965Y-80430001D01*
X167645839Y-80510124D01*
X167365678Y-80510124D01*
X167373644Y-80436261D01*
X167422634Y-80295829D01*
X167490836Y-80197447D01*
X167613935Y-80098030D01*
X167749528Y-80048711D01*
X167887955Y-80045568D01*
X168019552Y-80084676D01*
G37*
X168019552Y-80084676D02*
X168134658Y-80162111D01*
X168223611Y-80273949D01*
X168276749Y-80416265D01*
X168287497Y-80521015D01*
X168286276Y-80564726D01*
X168276056Y-80598194D01*
X168247961Y-80628179D01*
X168193116Y-80661440D01*
X168102645Y-80704738D01*
X167967672Y-80764833D01*
X167966989Y-80765134D01*
X167842751Y-80822037D01*
X167740873Y-80872565D01*
X167671767Y-80911280D01*
X167645846Y-80932740D01*
X167645839Y-80932913D01*
X167668685Y-80979644D01*
X167722109Y-81031154D01*
X167783442Y-81068261D01*
X167814515Y-81075632D01*
X167899289Y-81050138D01*
X167972293Y-80986291D01*
X168007913Y-80916094D01*
X168042180Y-80864343D01*
X168109303Y-80805409D01*
X168188208Y-80754496D01*
X168257821Y-80726809D01*
X168272377Y-80725287D01*
X168288763Y-80750321D01*
X168289750Y-80814311D01*
X168277708Y-80900593D01*
X168255007Y-80992501D01*
X168224014Y-81073369D01*
X168222448Y-81076509D01*
X168129181Y-81206734D01*
X168008304Y-81295311D01*
X167871027Y-81338786D01*
X167728560Y-81333706D01*
X167592112Y-81276616D01*
X167586045Y-81272602D01*
X167478710Y-81175326D01*
X167408132Y-81048409D01*
X167369074Y-80881526D01*
X167363832Y-80834639D01*
X167354548Y-80613329D01*
X167365678Y-80510124D01*
X167645839Y-80510124D01*
X167649479Y-80574503D01*
X167669389Y-80593291D01*
X167719026Y-80579235D01*
X167797267Y-80546009D01*
X167884726Y-80504359D01*
X167886899Y-80503256D01*
X167961030Y-80464265D01*
X167990781Y-80438244D01*
X167983445Y-80410965D01*
X167952553Y-80375121D01*
X167873960Y-80323251D01*
X167789323Y-80319439D01*
X167713403Y-80357189D01*
X167660965Y-80430001D01*
X167645839Y-80510124D01*
X167365678Y-80510124D01*
X167373644Y-80436261D01*
X167422634Y-80295829D01*
X167490836Y-80197447D01*
X167613935Y-80098030D01*
X167749528Y-80048711D01*
X167887955Y-80045568D01*
X168019552Y-80084676D01*
G36*
X165752221Y-80066015D02*
G01*
X165889061Y-80137968D01*
X165990051Y-80253766D01*
X166025925Y-80328213D01*
X166053839Y-80439992D01*
X166068129Y-80581227D01*
X166069484Y-80735371D01*
X166058595Y-80885879D01*
X166036153Y-81016205D01*
X166002850Y-81109803D01*
X165992615Y-81125922D01*
X165871382Y-81246249D01*
X165727387Y-81318317D01*
X165571139Y-81339408D01*
X165413148Y-81306802D01*
X165369180Y-81287253D01*
X165283556Y-81227012D01*
X165208408Y-81147135D01*
X165201306Y-81137004D01*
X165172439Y-81088181D01*
X165153357Y-81035990D01*
X165142084Y-80967285D01*
X165136645Y-80868918D01*
X165135062Y-80727744D01*
X165135035Y-80696092D01*
X165135107Y-80686019D01*
X165426989Y-80686019D01*
X165428687Y-80819256D01*
X165435372Y-80907674D01*
X165449425Y-80964785D01*
X165473229Y-81004102D01*
X165485379Y-81017241D01*
X165555236Y-81067172D01*
X165623059Y-81064895D01*
X165691635Y-81021584D01*
X165732535Y-80975346D01*
X165756758Y-80907857D01*
X165770361Y-80801433D01*
X165771294Y-80789020D01*
X165773616Y-80596147D01*
X165749350Y-80452900D01*
X165698824Y-80360160D01*
X165622368Y-80318807D01*
X165595076Y-80316552D01*
X165523411Y-80327893D01*
X165474390Y-80367184D01*
X165444418Y-80442326D01*
X165429899Y-80561222D01*
X165426989Y-80686019D01*
X165135107Y-80686019D01*
X165136122Y-80545659D01*
X165140688Y-80440549D01*
X165150688Y-80367714D01*
X165168079Y-80314108D01*
X165194816Y-80266681D01*
X165200724Y-80257864D01*
X165300032Y-80139007D01*
X165408242Y-80070008D01*
X165539981Y-80042619D01*
X165584717Y-80041281D01*
X165752221Y-80066015D01*
G37*
X165752221Y-80066015D02*
X165889061Y-80137968D01*
X165990051Y-80253766D01*
X166025925Y-80328213D01*
X166053839Y-80439992D01*
X166068129Y-80581227D01*
X166069484Y-80735371D01*
X166058595Y-80885879D01*
X166036153Y-81016205D01*
X166002850Y-81109803D01*
X165992615Y-81125922D01*
X165871382Y-81246249D01*
X165727387Y-81318317D01*
X165571139Y-81339408D01*
X165413148Y-81306802D01*
X165369180Y-81287253D01*
X165283556Y-81227012D01*
X165208408Y-81147135D01*
X165201306Y-81137004D01*
X165172439Y-81088181D01*
X165153357Y-81035990D01*
X165142084Y-80967285D01*
X165136645Y-80868918D01*
X165135062Y-80727744D01*
X165135035Y-80696092D01*
X165135107Y-80686019D01*
X165426989Y-80686019D01*
X165428687Y-80819256D01*
X165435372Y-80907674D01*
X165449425Y-80964785D01*
X165473229Y-81004102D01*
X165485379Y-81017241D01*
X165555236Y-81067172D01*
X165623059Y-81064895D01*
X165691635Y-81021584D01*
X165732535Y-80975346D01*
X165756758Y-80907857D01*
X165770361Y-80801433D01*
X165771294Y-80789020D01*
X165773616Y-80596147D01*
X165749350Y-80452900D01*
X165698824Y-80360160D01*
X165622368Y-80318807D01*
X165595076Y-80316552D01*
X165523411Y-80327893D01*
X165474390Y-80367184D01*
X165444418Y-80442326D01*
X165429899Y-80561222D01*
X165426989Y-80686019D01*
X165135107Y-80686019D01*
X165136122Y-80545659D01*
X165140688Y-80440549D01*
X165150688Y-80367714D01*
X165168079Y-80314108D01*
X165194816Y-80266681D01*
X165200724Y-80257864D01*
X165300032Y-80139007D01*
X165408242Y-80070008D01*
X165539981Y-80042619D01*
X165584717Y-80041281D01*
X165752221Y-80066015D01*
G36*
X169121429Y-80077719D02*
G01*
X169215123Y-80131914D01*
X169280264Y-80185707D01*
X169327907Y-80242066D01*
X169360728Y-80310987D01*
X169381406Y-80402468D01*
X169392620Y-80526506D01*
X169397049Y-80693098D01*
X169397563Y-80812851D01*
X169397563Y-81253659D01*
X169273483Y-81309283D01*
X169149402Y-81364907D01*
X169134805Y-80882095D01*
X169128773Y-80701779D01*
X169122445Y-80570901D01*
X169114606Y-80480511D01*
X169104037Y-80421664D01*
X169089523Y-80385413D01*
X169069848Y-80362810D01*
X169063535Y-80357917D01*
X168967888Y-80319706D01*
X168871207Y-80334827D01*
X168813655Y-80374943D01*
X168790245Y-80403370D01*
X168774039Y-80440672D01*
X168763741Y-80497223D01*
X168758049Y-80583394D01*
X168755664Y-80709558D01*
X168755264Y-80841042D01*
X168755186Y-81005999D01*
X168752361Y-81122761D01*
X168742907Y-81201510D01*
X168722940Y-81252431D01*
X168688576Y-81285706D01*
X168635932Y-81311520D01*
X168565617Y-81338344D01*
X168488820Y-81367542D01*
X168497962Y-80849346D01*
X168501643Y-80662539D01*
X168505950Y-80524490D01*
X168512123Y-80425568D01*
X168521402Y-80356145D01*
X168535027Y-80306590D01*
X168554239Y-80267273D01*
X168577402Y-80232584D01*
X168689152Y-80121770D01*
X168825513Y-80057689D01*
X168973825Y-80042339D01*
X169121429Y-80077719D01*
G37*
X169121429Y-80077719D02*
X169215123Y-80131914D01*
X169280264Y-80185707D01*
X169327907Y-80242066D01*
X169360728Y-80310987D01*
X169381406Y-80402468D01*
X169392620Y-80526506D01*
X169397049Y-80693098D01*
X169397563Y-80812851D01*
X169397563Y-81253659D01*
X169273483Y-81309283D01*
X169149402Y-81364907D01*
X169134805Y-80882095D01*
X169128773Y-80701779D01*
X169122445Y-80570901D01*
X169114606Y-80480511D01*
X169104037Y-80421664D01*
X169089523Y-80385413D01*
X169069848Y-80362810D01*
X169063535Y-80357917D01*
X168967888Y-80319706D01*
X168871207Y-80334827D01*
X168813655Y-80374943D01*
X168790245Y-80403370D01*
X168774039Y-80440672D01*
X168763741Y-80497223D01*
X168758049Y-80583394D01*
X168755664Y-80709558D01*
X168755264Y-80841042D01*
X168755186Y-81005999D01*
X168752361Y-81122761D01*
X168742907Y-81201510D01*
X168722940Y-81252431D01*
X168688576Y-81285706D01*
X168635932Y-81311520D01*
X168565617Y-81338344D01*
X168488820Y-81367542D01*
X168497962Y-80849346D01*
X168501643Y-80662539D01*
X168505950Y-80524490D01*
X168512123Y-80425568D01*
X168521402Y-80356145D01*
X168535027Y-80306590D01*
X168554239Y-80267273D01*
X168577402Y-80232584D01*
X168689152Y-80121770D01*
X168825513Y-80057689D01*
X168973825Y-80042339D01*
X169121429Y-80077719D01*
G36*
X166875900Y-80061903D02*
G01*
X166987450Y-80117522D01*
X167085908Y-80219931D01*
X167113023Y-80257864D01*
X167142562Y-80307500D01*
X167161728Y-80361412D01*
X167172693Y-80433364D01*
X167177629Y-80537122D01*
X167178713Y-80674101D01*
X167173818Y-80861815D01*
X167156804Y-81002758D01*
X167124177Y-81107908D01*
X167072442Y-81188243D01*
X166998104Y-81254741D01*
X166992642Y-81258678D01*
X166919380Y-81298953D01*
X166831160Y-81318880D01*
X166718962Y-81323793D01*
X166536567Y-81323793D01*
X166536491Y-81500857D01*
X166534793Y-81599470D01*
X166524450Y-81657314D01*
X166497422Y-81692006D01*
X166445668Y-81721164D01*
X166433239Y-81727121D01*
X166375077Y-81755039D01*
X166330044Y-81772672D01*
X166296559Y-81774194D01*
X166273038Y-81753781D01*
X166257900Y-81705607D01*
X166249563Y-81623846D01*
X166246444Y-81502672D01*
X166246960Y-81336260D01*
X166249529Y-81118785D01*
X166250332Y-81053736D01*
X166253222Y-80829502D01*
X166255812Y-80682821D01*
X166536414Y-80682821D01*
X166537991Y-80807326D01*
X166545000Y-80888787D01*
X166560858Y-80942515D01*
X166588981Y-80983823D01*
X166608075Y-81003971D01*
X166686135Y-81062921D01*
X166755247Y-81067720D01*
X166826560Y-81019038D01*
X166828368Y-81017241D01*
X166857383Y-80979618D01*
X166875033Y-80928484D01*
X166883936Y-80849738D01*
X166886709Y-80729276D01*
X166886759Y-80702588D01*
X166880058Y-80536583D01*
X166858248Y-80421505D01*
X166818765Y-80351254D01*
X166759044Y-80319729D01*
X166724528Y-80316552D01*
X166642611Y-80331460D01*
X166586421Y-80380548D01*
X166552598Y-80470362D01*
X166537780Y-80607445D01*
X166536414Y-80682821D01*
X166255812Y-80682821D01*
X166256287Y-80655952D01*
X166260247Y-80525382D01*
X166265826Y-80430087D01*
X166273746Y-80362364D01*
X166284731Y-80314507D01*
X166299501Y-80278813D01*
X166318782Y-80247578D01*
X166327049Y-80235824D01*
X166436712Y-80124797D01*
X166575365Y-80061847D01*
X166735754Y-80044297D01*
X166875900Y-80061903D01*
G37*
X166875900Y-80061903D02*
X166987450Y-80117522D01*
X167085908Y-80219931D01*
X167113023Y-80257864D01*
X167142562Y-80307500D01*
X167161728Y-80361412D01*
X167172693Y-80433364D01*
X167177629Y-80537122D01*
X167178713Y-80674101D01*
X167173818Y-80861815D01*
X167156804Y-81002758D01*
X167124177Y-81107908D01*
X167072442Y-81188243D01*
X166998104Y-81254741D01*
X166992642Y-81258678D01*
X166919380Y-81298953D01*
X166831160Y-81318880D01*
X166718962Y-81323793D01*
X166536567Y-81323793D01*
X166536491Y-81500857D01*
X166534793Y-81599470D01*
X166524450Y-81657314D01*
X166497422Y-81692006D01*
X166445668Y-81721164D01*
X166433239Y-81727121D01*
X166375077Y-81755039D01*
X166330044Y-81772672D01*
X166296559Y-81774194D01*
X166273038Y-81753781D01*
X166257900Y-81705607D01*
X166249563Y-81623846D01*
X166246444Y-81502672D01*
X166246960Y-81336260D01*
X166249529Y-81118785D01*
X166250332Y-81053736D01*
X166253222Y-80829502D01*
X166255812Y-80682821D01*
X166536414Y-80682821D01*
X166537991Y-80807326D01*
X166545000Y-80888787D01*
X166560858Y-80942515D01*
X166588981Y-80983823D01*
X166608075Y-81003971D01*
X166686135Y-81062921D01*
X166755247Y-81067720D01*
X166826560Y-81019038D01*
X166828368Y-81017241D01*
X166857383Y-80979618D01*
X166875033Y-80928484D01*
X166883936Y-80849738D01*
X166886709Y-80729276D01*
X166886759Y-80702588D01*
X166880058Y-80536583D01*
X166858248Y-80421505D01*
X166818765Y-80351254D01*
X166759044Y-80319729D01*
X166724528Y-80316552D01*
X166642611Y-80331460D01*
X166586421Y-80380548D01*
X166552598Y-80470362D01*
X166537780Y-80607445D01*
X166536414Y-80682821D01*
X166255812Y-80682821D01*
X166256287Y-80655952D01*
X166260247Y-80525382D01*
X166265826Y-80430087D01*
X166273746Y-80362364D01*
X166284731Y-80314507D01*
X166299501Y-80278813D01*
X166318782Y-80247578D01*
X166327049Y-80235824D01*
X166436712Y-80124797D01*
X166575365Y-80061847D01*
X166735754Y-80044297D01*
X166875900Y-80061903D01*
D12*
%TO.C,R2*%
X164311000Y-59917064D02*
X164311000Y-59462936D01*
X162841000Y-59917064D02*
X162841000Y-59462936D01*
%TO.C,D1*%
X161016000Y-55436000D02*
X161016000Y-55901000D01*
X161016000Y-52811000D02*
X161016000Y-53276000D01*
X165830479Y-55436429D02*
G75*
G02*
X161321316Y-55436000I-2254479J1080429D01*
G01*
X165830479Y-53275571D02*
G75*
G03*
X161321316Y-53276000I-2254479J-1080429D01*
G01*
X166363815Y-55436827D02*
G75*
G02*
X161016000Y-55900830I-2787815J1080827D01*
G01*
X166363815Y-53275173D02*
G75*
G03*
X161016000Y-52811170I-2787815J-1080827D01*
G01*
%TO.C,U1*%
X139200000Y-48206000D02*
X138820000Y-48206000D01*
X139200000Y-41786000D02*
X139200000Y-48206000D01*
X157440000Y-41786000D02*
X157440000Y-48206000D01*
X139200000Y-41786000D02*
X157440000Y-41786000D01*
X157440000Y-67531000D02*
X156440000Y-67531000D01*
X157440000Y-66751000D02*
X157440000Y-67531000D01*
X139200000Y-67531000D02*
X140200000Y-67531000D01*
X139200000Y-66751000D02*
X139200000Y-67531000D01*
%TO.C,R6*%
X160300936Y-50519000D02*
X160755064Y-50519000D01*
X160300936Y-49049000D02*
X160755064Y-49049000D01*
%TO.C,R8*%
X125957000Y-92683064D02*
X125957000Y-92228936D01*
X124487000Y-92683064D02*
X124487000Y-92228936D01*
%TO.C,R7*%
X123671000Y-92683064D02*
X123671000Y-92228936D01*
X122201000Y-92683064D02*
X122201000Y-92228936D01*
%TO.C,R4*%
X135154936Y-54583000D02*
X135609064Y-54583000D01*
X135154936Y-53113000D02*
X135609064Y-53113000D01*
%TO.C,R5*%
X122401064Y-65559000D02*
X121946936Y-65559000D01*
X122401064Y-67029000D02*
X121946936Y-67029000D01*
%TO.C,R3*%
X121946936Y-74903000D02*
X122401064Y-74903000D01*
X121946936Y-73433000D02*
X122401064Y-73433000D01*
%TO.C,R1*%
X161263000Y-61949064D02*
X161263000Y-61494936D01*
X159793000Y-61949064D02*
X159793000Y-61494936D01*
%TO.C,C4*%
X176757000Y-93733252D02*
X176757000Y-93210748D01*
X175287000Y-93733252D02*
X175287000Y-93210748D01*
%TO.C,C1*%
X136879000Y-51061252D02*
X136879000Y-50538748D01*
X135409000Y-51061252D02*
X135409000Y-50538748D01*
%TO.C,C3*%
X135409000Y-56888748D02*
X135409000Y-57411252D01*
X136879000Y-56888748D02*
X136879000Y-57411252D01*
%TO.C,C2*%
X129251225Y-56441000D02*
X129251225Y-56941000D01*
X129001225Y-56691000D02*
X129501225Y-56691000D01*
X134407000Y-57882000D02*
X134407000Y-58450000D01*
X134367000Y-57648000D02*
X134367000Y-58684000D01*
X134327000Y-57489000D02*
X134327000Y-58843000D01*
X134287000Y-57361000D02*
X134287000Y-58971000D01*
X134247000Y-57251000D02*
X134247000Y-59081000D01*
X134207000Y-57155000D02*
X134207000Y-59177000D01*
X134167000Y-57068000D02*
X134167000Y-59264000D01*
X134127000Y-56988000D02*
X134127000Y-59344000D01*
X134087000Y-59206000D02*
X134087000Y-59417000D01*
X134087000Y-56915000D02*
X134087000Y-57126000D01*
X134047000Y-59206000D02*
X134047000Y-59485000D01*
X134047000Y-56847000D02*
X134047000Y-57126000D01*
X134007000Y-59206000D02*
X134007000Y-59549000D01*
X134007000Y-56783000D02*
X134007000Y-57126000D01*
X133967000Y-59206000D02*
X133967000Y-59609000D01*
X133967000Y-56723000D02*
X133967000Y-57126000D01*
X133927000Y-59206000D02*
X133927000Y-59666000D01*
X133927000Y-56666000D02*
X133927000Y-57126000D01*
X133887000Y-59206000D02*
X133887000Y-59720000D01*
X133887000Y-56612000D02*
X133887000Y-57126000D01*
X133847000Y-59206000D02*
X133847000Y-59771000D01*
X133847000Y-56561000D02*
X133847000Y-57126000D01*
X133807000Y-59206000D02*
X133807000Y-59819000D01*
X133807000Y-56513000D02*
X133807000Y-57126000D01*
X133767000Y-59206000D02*
X133767000Y-59865000D01*
X133767000Y-56467000D02*
X133767000Y-57126000D01*
X133727000Y-59206000D02*
X133727000Y-59909000D01*
X133727000Y-56423000D02*
X133727000Y-57126000D01*
X133687000Y-59206000D02*
X133687000Y-59951000D01*
X133687000Y-56381000D02*
X133687000Y-57126000D01*
X133647000Y-59206000D02*
X133647000Y-59992000D01*
X133647000Y-56340000D02*
X133647000Y-57126000D01*
X133607000Y-59206000D02*
X133607000Y-60030000D01*
X133607000Y-56302000D02*
X133607000Y-57126000D01*
X133567000Y-59206000D02*
X133567000Y-60067000D01*
X133567000Y-56265000D02*
X133567000Y-57126000D01*
X133527000Y-59206000D02*
X133527000Y-60103000D01*
X133527000Y-56229000D02*
X133527000Y-57126000D01*
X133487000Y-59206000D02*
X133487000Y-60137000D01*
X133487000Y-56195000D02*
X133487000Y-57126000D01*
X133447000Y-59206000D02*
X133447000Y-60170000D01*
X133447000Y-56162000D02*
X133447000Y-57126000D01*
X133407000Y-59206000D02*
X133407000Y-60201000D01*
X133407000Y-56131000D02*
X133407000Y-57126000D01*
X133367000Y-59206000D02*
X133367000Y-60231000D01*
X133367000Y-56101000D02*
X133367000Y-57126000D01*
X133327000Y-59206000D02*
X133327000Y-60261000D01*
X133327000Y-56071000D02*
X133327000Y-57126000D01*
X133287000Y-59206000D02*
X133287000Y-60288000D01*
X133287000Y-56044000D02*
X133287000Y-57126000D01*
X133247000Y-59206000D02*
X133247000Y-60315000D01*
X133247000Y-56017000D02*
X133247000Y-57126000D01*
X133207000Y-59206000D02*
X133207000Y-60341000D01*
X133207000Y-55991000D02*
X133207000Y-57126000D01*
X133167000Y-59206000D02*
X133167000Y-60366000D01*
X133167000Y-55966000D02*
X133167000Y-57126000D01*
X133127000Y-59206000D02*
X133127000Y-60390000D01*
X133127000Y-55942000D02*
X133127000Y-57126000D01*
X133087000Y-59206000D02*
X133087000Y-60413000D01*
X133087000Y-55919000D02*
X133087000Y-57126000D01*
X133047000Y-59206000D02*
X133047000Y-60434000D01*
X133047000Y-55898000D02*
X133047000Y-57126000D01*
X133007000Y-59206000D02*
X133007000Y-60456000D01*
X133007000Y-55876000D02*
X133007000Y-57126000D01*
X132967000Y-59206000D02*
X132967000Y-60476000D01*
X132967000Y-55856000D02*
X132967000Y-57126000D01*
X132927000Y-59206000D02*
X132927000Y-60495000D01*
X132927000Y-55837000D02*
X132927000Y-57126000D01*
X132887000Y-59206000D02*
X132887000Y-60514000D01*
X132887000Y-55818000D02*
X132887000Y-57126000D01*
X132847000Y-59206000D02*
X132847000Y-60531000D01*
X132847000Y-55801000D02*
X132847000Y-57126000D01*
X132807000Y-59206000D02*
X132807000Y-60548000D01*
X132807000Y-55784000D02*
X132807000Y-57126000D01*
X132767000Y-59206000D02*
X132767000Y-60564000D01*
X132767000Y-55768000D02*
X132767000Y-57126000D01*
X132727000Y-59206000D02*
X132727000Y-60580000D01*
X132727000Y-55752000D02*
X132727000Y-57126000D01*
X132687000Y-59206000D02*
X132687000Y-60594000D01*
X132687000Y-55738000D02*
X132687000Y-57126000D01*
X132647000Y-59206000D02*
X132647000Y-60608000D01*
X132647000Y-55724000D02*
X132647000Y-57126000D01*
X132607000Y-59206000D02*
X132607000Y-60621000D01*
X132607000Y-55711000D02*
X132607000Y-57126000D01*
X132567000Y-59206000D02*
X132567000Y-60634000D01*
X132567000Y-55698000D02*
X132567000Y-57126000D01*
X132527000Y-59206000D02*
X132527000Y-60646000D01*
X132527000Y-55686000D02*
X132527000Y-57126000D01*
X132486000Y-59206000D02*
X132486000Y-60657000D01*
X132486000Y-55675000D02*
X132486000Y-57126000D01*
X132446000Y-59206000D02*
X132446000Y-60667000D01*
X132446000Y-55665000D02*
X132446000Y-57126000D01*
X132406000Y-59206000D02*
X132406000Y-60677000D01*
X132406000Y-55655000D02*
X132406000Y-57126000D01*
X132366000Y-59206000D02*
X132366000Y-60686000D01*
X132366000Y-55646000D02*
X132366000Y-57126000D01*
X132326000Y-59206000D02*
X132326000Y-60694000D01*
X132326000Y-55638000D02*
X132326000Y-57126000D01*
X132286000Y-59206000D02*
X132286000Y-60702000D01*
X132286000Y-55630000D02*
X132286000Y-57126000D01*
X132246000Y-59206000D02*
X132246000Y-60709000D01*
X132246000Y-55623000D02*
X132246000Y-57126000D01*
X132206000Y-59206000D02*
X132206000Y-60716000D01*
X132206000Y-55616000D02*
X132206000Y-57126000D01*
X132166000Y-59206000D02*
X132166000Y-60722000D01*
X132166000Y-55610000D02*
X132166000Y-57126000D01*
X132126000Y-59206000D02*
X132126000Y-60727000D01*
X132126000Y-55605000D02*
X132126000Y-57126000D01*
X132086000Y-59206000D02*
X132086000Y-60731000D01*
X132086000Y-55601000D02*
X132086000Y-57126000D01*
X132046000Y-59206000D02*
X132046000Y-60735000D01*
X132046000Y-55597000D02*
X132046000Y-57126000D01*
X132006000Y-55593000D02*
X132006000Y-60739000D01*
X131966000Y-55590000D02*
X131966000Y-60742000D01*
X131926000Y-55588000D02*
X131926000Y-60744000D01*
X131886000Y-55587000D02*
X131886000Y-60745000D01*
X131846000Y-55586000D02*
X131846000Y-60746000D01*
X131806000Y-55586000D02*
X131806000Y-60746000D01*
X134426000Y-58166000D02*
G75*
G03*
X134426000Y-58166000I-2620000J0D01*
G01*
%TO.C,J1*%
X118870000Y-98930000D02*
X118870000Y-97600000D01*
X120200000Y-98930000D02*
X118870000Y-98930000D01*
X121470000Y-98930000D02*
X121470000Y-96270000D01*
X121470000Y-96270000D02*
X129150000Y-96270000D01*
X121470000Y-98930000D02*
X129150000Y-98930000D01*
X129150000Y-98930000D02*
X129150000Y-96270000D01*
%TO.C,J2*%
X167050000Y-98830000D02*
X167050000Y-97500000D01*
X168380000Y-98830000D02*
X167050000Y-98830000D01*
X169650000Y-98830000D02*
X169650000Y-96170000D01*
X169650000Y-96170000D02*
X177330000Y-96170000D01*
X169650000Y-98830000D02*
X177330000Y-98830000D01*
X177330000Y-98830000D02*
X177330000Y-96170000D01*
%TO.C,J3*%
X116680600Y-65065000D02*
X118010600Y-65065000D01*
X116680600Y-66395000D02*
X116680600Y-65065000D01*
X116680600Y-67665000D02*
X119340600Y-67665000D01*
X119340600Y-67665000D02*
X119340600Y-80425000D01*
X116680600Y-67665000D02*
X116680600Y-80425000D01*
X116680600Y-80425000D02*
X119340600Y-80425000D01*
%TO.C,R2*%
D13*
X162378380Y-59856666D02*
X161902190Y-60190000D01*
X162378380Y-60428095D02*
X161378380Y-60428095D01*
X161378380Y-60047142D01*
X161426000Y-59951904D01*
X161473619Y-59904285D01*
X161568857Y-59856666D01*
X161711714Y-59856666D01*
X161806952Y-59904285D01*
X161854571Y-59951904D01*
X161902190Y-60047142D01*
X161902190Y-60428095D01*
X161473619Y-59475714D02*
X161426000Y-59428095D01*
X161378380Y-59332857D01*
X161378380Y-59094761D01*
X161426000Y-58999523D01*
X161473619Y-58951904D01*
X161568857Y-58904285D01*
X161664095Y-58904285D01*
X161806952Y-58951904D01*
X162378380Y-59523333D01*
X162378380Y-58904285D01*
%TO.C,D1*%
X166393904Y-57348380D02*
X166393904Y-56348380D01*
X166632000Y-56348380D01*
X166774857Y-56396000D01*
X166870095Y-56491238D01*
X166917714Y-56586476D01*
X166965333Y-56776952D01*
X166965333Y-56919809D01*
X166917714Y-57110285D01*
X166870095Y-57205523D01*
X166774857Y-57300761D01*
X166632000Y-57348380D01*
X166393904Y-57348380D01*
X167917714Y-57348380D02*
X167346285Y-57348380D01*
X167632000Y-57348380D02*
X167632000Y-56348380D01*
X167536761Y-56491238D01*
X167441523Y-56586476D01*
X167346285Y-56634095D01*
%TO.C,U1*%
X137162380Y-66842904D02*
X137971904Y-66842904D01*
X138067142Y-66795285D01*
X138114761Y-66747666D01*
X138162380Y-66652428D01*
X138162380Y-66461952D01*
X138114761Y-66366714D01*
X138067142Y-66319095D01*
X137971904Y-66271476D01*
X137162380Y-66271476D01*
X138162380Y-65271476D02*
X138162380Y-65842904D01*
X138162380Y-65557190D02*
X137162380Y-65557190D01*
X137305238Y-65652428D01*
X137400476Y-65747666D01*
X137448095Y-65842904D01*
%TO.C,R6*%
X156805333Y-50236380D02*
X156472000Y-49760190D01*
X156233904Y-50236380D02*
X156233904Y-49236380D01*
X156614857Y-49236380D01*
X156710095Y-49284000D01*
X156757714Y-49331619D01*
X156805333Y-49426857D01*
X156805333Y-49569714D01*
X156757714Y-49664952D01*
X156710095Y-49712571D01*
X156614857Y-49760190D01*
X156233904Y-49760190D01*
X157662476Y-49236380D02*
X157472000Y-49236380D01*
X157376761Y-49284000D01*
X157329142Y-49331619D01*
X157233904Y-49474476D01*
X157186285Y-49664952D01*
X157186285Y-50045904D01*
X157233904Y-50141142D01*
X157281523Y-50188761D01*
X157376761Y-50236380D01*
X157567238Y-50236380D01*
X157662476Y-50188761D01*
X157710095Y-50141142D01*
X157757714Y-50045904D01*
X157757714Y-49807809D01*
X157710095Y-49712571D01*
X157662476Y-49664952D01*
X157567238Y-49617333D01*
X157376761Y-49617333D01*
X157281523Y-49664952D01*
X157233904Y-49712571D01*
X157186285Y-49807809D01*
%TO.C,R8*%
X125674380Y-89066666D02*
X125198190Y-89400000D01*
X125674380Y-89638095D02*
X124674380Y-89638095D01*
X124674380Y-89257142D01*
X124722000Y-89161904D01*
X124769619Y-89114285D01*
X124864857Y-89066666D01*
X125007714Y-89066666D01*
X125102952Y-89114285D01*
X125150571Y-89161904D01*
X125198190Y-89257142D01*
X125198190Y-89638095D01*
X125102952Y-88495238D02*
X125055333Y-88590476D01*
X125007714Y-88638095D01*
X124912476Y-88685714D01*
X124864857Y-88685714D01*
X124769619Y-88638095D01*
X124722000Y-88590476D01*
X124674380Y-88495238D01*
X124674380Y-88304761D01*
X124722000Y-88209523D01*
X124769619Y-88161904D01*
X124864857Y-88114285D01*
X124912476Y-88114285D01*
X125007714Y-88161904D01*
X125055333Y-88209523D01*
X125102952Y-88304761D01*
X125102952Y-88495238D01*
X125150571Y-88590476D01*
X125198190Y-88638095D01*
X125293428Y-88685714D01*
X125483904Y-88685714D01*
X125579142Y-88638095D01*
X125626761Y-88590476D01*
X125674380Y-88495238D01*
X125674380Y-88304761D01*
X125626761Y-88209523D01*
X125579142Y-88161904D01*
X125483904Y-88114285D01*
X125293428Y-88114285D01*
X125198190Y-88161904D01*
X125150571Y-88209523D01*
X125102952Y-88304761D01*
%TO.C,R7*%
X123642380Y-89066666D02*
X123166190Y-89400000D01*
X123642380Y-89638095D02*
X122642380Y-89638095D01*
X122642380Y-89257142D01*
X122690000Y-89161904D01*
X122737619Y-89114285D01*
X122832857Y-89066666D01*
X122975714Y-89066666D01*
X123070952Y-89114285D01*
X123118571Y-89161904D01*
X123166190Y-89257142D01*
X123166190Y-89638095D01*
X122642380Y-88733333D02*
X122642380Y-88066666D01*
X123642380Y-88495238D01*
%TO.C,R4*%
X131913333Y-54300380D02*
X131580000Y-53824190D01*
X131341904Y-54300380D02*
X131341904Y-53300380D01*
X131722857Y-53300380D01*
X131818095Y-53348000D01*
X131865714Y-53395619D01*
X131913333Y-53490857D01*
X131913333Y-53633714D01*
X131865714Y-53728952D01*
X131818095Y-53776571D01*
X131722857Y-53824190D01*
X131341904Y-53824190D01*
X132770476Y-53633714D02*
X132770476Y-54300380D01*
X132532380Y-53252761D02*
X132294285Y-53967047D01*
X132913333Y-53967047D01*
%TO.C,R5*%
X125055333Y-66746380D02*
X124722000Y-66270190D01*
X124483904Y-66746380D02*
X124483904Y-65746380D01*
X124864857Y-65746380D01*
X124960095Y-65794000D01*
X125007714Y-65841619D01*
X125055333Y-65936857D01*
X125055333Y-66079714D01*
X125007714Y-66174952D01*
X124960095Y-66222571D01*
X124864857Y-66270190D01*
X124483904Y-66270190D01*
X125960095Y-65746380D02*
X125483904Y-65746380D01*
X125436285Y-66222571D01*
X125483904Y-66174952D01*
X125579142Y-66127333D01*
X125817238Y-66127333D01*
X125912476Y-66174952D01*
X125960095Y-66222571D01*
X126007714Y-66317809D01*
X126007714Y-66555904D01*
X125960095Y-66651142D01*
X125912476Y-66698761D01*
X125817238Y-66746380D01*
X125579142Y-66746380D01*
X125483904Y-66698761D01*
X125436285Y-66651142D01*
%TO.C,R3*%
X125055333Y-74620380D02*
X124722000Y-74144190D01*
X124483904Y-74620380D02*
X124483904Y-73620380D01*
X124864857Y-73620380D01*
X124960095Y-73668000D01*
X125007714Y-73715619D01*
X125055333Y-73810857D01*
X125055333Y-73953714D01*
X125007714Y-74048952D01*
X124960095Y-74096571D01*
X124864857Y-74144190D01*
X124483904Y-74144190D01*
X125388666Y-73620380D02*
X126007714Y-73620380D01*
X125674380Y-74001333D01*
X125817238Y-74001333D01*
X125912476Y-74048952D01*
X125960095Y-74096571D01*
X126007714Y-74191809D01*
X126007714Y-74429904D01*
X125960095Y-74525142D01*
X125912476Y-74572761D01*
X125817238Y-74620380D01*
X125531523Y-74620380D01*
X125436285Y-74572761D01*
X125388666Y-74525142D01*
%TO.C,R1*%
X159330380Y-61888666D02*
X158854190Y-62222000D01*
X159330380Y-62460095D02*
X158330380Y-62460095D01*
X158330380Y-62079142D01*
X158378000Y-61983904D01*
X158425619Y-61936285D01*
X158520857Y-61888666D01*
X158663714Y-61888666D01*
X158758952Y-61936285D01*
X158806571Y-61983904D01*
X158854190Y-62079142D01*
X158854190Y-62460095D01*
X159330380Y-60936285D02*
X159330380Y-61507714D01*
X159330380Y-61222000D02*
X158330380Y-61222000D01*
X158473238Y-61317238D01*
X158568476Y-61412476D01*
X158616095Y-61507714D01*
%TO.C,C4*%
X174699142Y-93638666D02*
X174746761Y-93686285D01*
X174794380Y-93829142D01*
X174794380Y-93924380D01*
X174746761Y-94067238D01*
X174651523Y-94162476D01*
X174556285Y-94210095D01*
X174365809Y-94257714D01*
X174222952Y-94257714D01*
X174032476Y-94210095D01*
X173937238Y-94162476D01*
X173842000Y-94067238D01*
X173794380Y-93924380D01*
X173794380Y-93829142D01*
X173842000Y-93686285D01*
X173889619Y-93638666D01*
X174127714Y-92781523D02*
X174794380Y-92781523D01*
X173746761Y-93019619D02*
X174461047Y-93257714D01*
X174461047Y-92638666D01*
%TO.C,C1*%
X134723142Y-50966666D02*
X134770761Y-51014285D01*
X134818380Y-51157142D01*
X134818380Y-51252380D01*
X134770761Y-51395238D01*
X134675523Y-51490476D01*
X134580285Y-51538095D01*
X134389809Y-51585714D01*
X134246952Y-51585714D01*
X134056476Y-51538095D01*
X133961238Y-51490476D01*
X133866000Y-51395238D01*
X133818380Y-51252380D01*
X133818380Y-51157142D01*
X133866000Y-51014285D01*
X133913619Y-50966666D01*
X134818380Y-50014285D02*
X134818380Y-50585714D01*
X134818380Y-50300000D02*
X133818380Y-50300000D01*
X133961238Y-50395238D01*
X134056476Y-50490476D01*
X134104095Y-50585714D01*
%TO.C,C3*%
X135977333Y-60301142D02*
X135929714Y-60348761D01*
X135786857Y-60396380D01*
X135691619Y-60396380D01*
X135548761Y-60348761D01*
X135453523Y-60253523D01*
X135405904Y-60158285D01*
X135358285Y-59967809D01*
X135358285Y-59824952D01*
X135405904Y-59634476D01*
X135453523Y-59539238D01*
X135548761Y-59444000D01*
X135691619Y-59396380D01*
X135786857Y-59396380D01*
X135929714Y-59444000D01*
X135977333Y-59491619D01*
X136310666Y-59396380D02*
X136929714Y-59396380D01*
X136596380Y-59777333D01*
X136739238Y-59777333D01*
X136834476Y-59824952D01*
X136882095Y-59872571D01*
X136929714Y-59967809D01*
X136929714Y-60205904D01*
X136882095Y-60301142D01*
X136834476Y-60348761D01*
X136739238Y-60396380D01*
X136453523Y-60396380D01*
X136358285Y-60348761D01*
X136310666Y-60301142D01*
%TO.C,C2*%
X135723333Y-58523142D02*
X135675714Y-58570761D01*
X135532857Y-58618380D01*
X135437619Y-58618380D01*
X135294761Y-58570761D01*
X135199523Y-58475523D01*
X135151904Y-58380285D01*
X135104285Y-58189809D01*
X135104285Y-58046952D01*
X135151904Y-57856476D01*
X135199523Y-57761238D01*
X135294761Y-57666000D01*
X135437619Y-57618380D01*
X135532857Y-57618380D01*
X135675714Y-57666000D01*
X135723333Y-57713619D01*
X136104285Y-57713619D02*
X136151904Y-57666000D01*
X136247142Y-57618380D01*
X136485238Y-57618380D01*
X136580476Y-57666000D01*
X136628095Y-57713619D01*
X136675714Y-57808857D01*
X136675714Y-57904095D01*
X136628095Y-58046952D01*
X136056666Y-58618380D01*
X136675714Y-58618380D01*
%TO.C,J1*%
X117322380Y-97933333D02*
X118036666Y-97933333D01*
X118179523Y-97980952D01*
X118274761Y-98076190D01*
X118322380Y-98219047D01*
X118322380Y-98314285D01*
X118322380Y-96933333D02*
X118322380Y-97504761D01*
X118322380Y-97219047D02*
X117322380Y-97219047D01*
X117465238Y-97314285D01*
X117560476Y-97409523D01*
X117608095Y-97504761D01*
%TO.C,J2*%
X165502380Y-97833333D02*
X166216666Y-97833333D01*
X166359523Y-97880952D01*
X166454761Y-97976190D01*
X166502380Y-98119047D01*
X166502380Y-98214285D01*
X165597619Y-97404761D02*
X165550000Y-97357142D01*
X165502380Y-97261904D01*
X165502380Y-97023809D01*
X165550000Y-96928571D01*
X165597619Y-96880952D01*
X165692857Y-96833333D01*
X165788095Y-96833333D01*
X165930952Y-96880952D01*
X166502380Y-97452380D01*
X166502380Y-96833333D01*
%TO.C,J3*%
X117522666Y-82002380D02*
X117522666Y-82716666D01*
X117475047Y-82859523D01*
X117379809Y-82954761D01*
X117236952Y-83002380D01*
X117141714Y-83002380D01*
X117903619Y-82002380D02*
X118522666Y-82002380D01*
X118189333Y-82383333D01*
X118332190Y-82383333D01*
X118427428Y-82430952D01*
X118475047Y-82478571D01*
X118522666Y-82573809D01*
X118522666Y-82811904D01*
X118475047Y-82907142D01*
X118427428Y-82954761D01*
X118332190Y-83002380D01*
X118046476Y-83002380D01*
X117951238Y-82954761D01*
X117903619Y-82907142D01*
%TD*%
M02*
