%TF.GenerationSoftware,KiCad,Pcbnew,5.1.9+dfsg1-1*%
%TF.CreationDate,2021-05-25T15:42:46+02:00*%
%TF.ProjectId,vscp-din-wireless-esp32,76736370-2d64-4696-9e2d-776972656c65,rev?*%
%TF.SameCoordinates,Original*%
%TF.FileFunction,Copper,L2,Bot*%
%TF.FilePolarity,Positive*%
%FSLAX46Y46*%
G04 Gerber Fmt 4.6, Leading zero omitted, Abs format (unit mm)*
G04 Created by KiCad (PCBNEW 5.1.9+dfsg1-1) date 2021-05-25 15:42:46*
%MOMM*%
%LPD*%
G01*
G04 APERTURE LIST*
%TA.AperFunction,ComponentPad*%
%ADD10C,1.800000*%
%TD*%
%TA.AperFunction,ComponentPad*%
%ADD11R,1.800000X1.800000*%
%TD*%
%TA.AperFunction,ComponentPad*%
%ADD12C,1.600000*%
%TD*%
%TA.AperFunction,ComponentPad*%
%ADD13R,1.600000X1.600000*%
%TD*%
%TA.AperFunction,ComponentPad*%
%ADD14O,1.700000X1.700000*%
%TD*%
%TA.AperFunction,ComponentPad*%
%ADD15R,1.700000X1.700000*%
%TD*%
%TA.AperFunction,ViaPad*%
%ADD16C,0.800000*%
%TD*%
%TA.AperFunction,Conductor*%
%ADD17C,0.250000*%
%TD*%
%TA.AperFunction,Conductor*%
%ADD18C,0.254000*%
%TD*%
%TA.AperFunction,Conductor*%
%ADD19C,0.100000*%
%TD*%
G04 APERTURE END LIST*
D10*
%TO.P,D1,3*%
%TO.N,/leda*%
X166116000Y-54356000D03*
%TO.P,D1,2*%
%TO.N,Net-(D1-Pad2)*%
X163576000Y-54356000D03*
D11*
%TO.P,D1,1*%
%TO.N,/ledb*%
X161036000Y-54356000D03*
%TD*%
D12*
%TO.P,C2,2*%
%TO.N,GND*%
X133056000Y-58166000D03*
D13*
%TO.P,C2,1*%
%TO.N,VCC*%
X130556000Y-58166000D03*
%TD*%
D14*
%TO.P,J1,4*%
%TO.N,GND*%
X127820000Y-97600000D03*
%TO.P,J1,3*%
%TO.N,/scl*%
X125280000Y-97600000D03*
%TO.P,J1,2*%
%TO.N,/sda*%
X122740000Y-97600000D03*
D15*
%TO.P,J1,1*%
%TO.N,/irq*%
X120200000Y-97600000D03*
%TD*%
D14*
%TO.P,J2,4*%
%TO.N,Net-(J2-Pad4)*%
X176000000Y-97500000D03*
%TO.P,J2,3*%
%TO.N,Net-(J2-Pad3)*%
X173460000Y-97500000D03*
%TO.P,J2,2*%
%TO.N,VCC*%
X170920000Y-97500000D03*
D15*
%TO.P,J2,1*%
%TO.N,GND*%
X168380000Y-97500000D03*
%TD*%
D14*
%TO.P,J3,6*%
%TO.N,GND*%
X118010600Y-79095000D03*
%TO.P,J3,5*%
%TO.N,VCC*%
X118010600Y-76555000D03*
%TO.P,J3,4*%
%TO.N,/RESET*%
X118010600Y-74015000D03*
%TO.P,J3,3*%
%TO.N,/RXD*%
X118010600Y-71475000D03*
%TO.P,J3,2*%
%TO.N,/TXD*%
X118010600Y-68935000D03*
D15*
%TO.P,J3,1*%
%TO.N,/FLASH*%
X118010600Y-66395000D03*
%TD*%
D16*
%TO.N,GND*%
X151638000Y-57912000D03*
X133096000Y-50038000D03*
X142240000Y-50038000D03*
X173736000Y-90932000D03*
X127762000Y-73914000D03*
X124714000Y-70104000D03*
X160274000Y-58166000D03*
X166370000Y-51562000D03*
X137668000Y-55118000D03*
X132588000Y-60706000D03*
X133858000Y-69342000D03*
%TO.N,/reset*%
X132334000Y-70866000D03*
X129032000Y-70866000D03*
%TO.N,/sda*%
X153924000Y-55880000D03*
%TO.N,/scl*%
X143002000Y-63246000D03*
%TO.N,/TXD*%
X153924000Y-53340000D03*
%TO.N,/RXD*%
X153804000Y-54476000D03*
%TO.N,/irq*%
X141986000Y-64516000D03*
%TO.N,Net-(R5-Pad1)*%
X133350000Y-66040000D03*
X129032000Y-66040000D03*
%TD*%
D17*
%TO.N,/reset*%
X129032000Y-70866000D02*
X132334000Y-70866000D01*
%TO.N,/sda*%
X153924000Y-55880000D02*
X153924000Y-89154000D01*
X153924000Y-89154000D02*
X149098000Y-93980000D01*
X149098000Y-93980000D02*
X123190000Y-93980000D01*
X122740000Y-94430000D02*
X122740000Y-97600000D01*
X123190000Y-93980000D02*
X122740000Y-94430000D01*
%TO.N,/scl*%
X124104999Y-98775001D02*
X125280000Y-97600000D01*
X122175999Y-98775001D02*
X124104999Y-98775001D01*
X121564999Y-98164001D02*
X122175999Y-98775001D01*
X121564999Y-86010003D02*
X121564999Y-98164001D01*
X143002000Y-64573002D02*
X121564999Y-86010003D01*
X143002000Y-63246000D02*
X143002000Y-64573002D01*
%TO.N,/TXD*%
X118010600Y-68935000D02*
X119533000Y-68935000D01*
X119533000Y-68935000D02*
X123444000Y-65024000D01*
X123444000Y-65024000D02*
X127508000Y-65024000D01*
X127508000Y-65024000D02*
X128016000Y-64516000D01*
X128016000Y-64516000D02*
X128016000Y-54102000D01*
X128016000Y-54102000D02*
X128778000Y-53340000D01*
X152457002Y-53340000D02*
X153924000Y-53340000D01*
X128778000Y-53340000D02*
X152457002Y-53340000D01*
%TO.N,/RXD*%
X119634000Y-71374000D02*
X119533000Y-71475000D01*
X119634000Y-69470410D02*
X119634000Y-71374000D01*
X128466010Y-54413990D02*
X128466009Y-64702401D01*
X129032000Y-53848000D02*
X128466010Y-54413990D01*
X152908000Y-53848000D02*
X129032000Y-53848000D01*
X119533000Y-71475000D02*
X118010600Y-71475000D01*
X128466009Y-64702401D02*
X127382410Y-65786000D01*
X153804000Y-54476000D02*
X152908000Y-53848000D01*
X123318410Y-65786000D02*
X119634000Y-69470410D01*
X127382410Y-65786000D02*
X123318410Y-65786000D01*
%TO.N,/irq*%
X141986000Y-64516000D02*
X123698000Y-82804000D01*
X123698000Y-82804000D02*
X121412000Y-82804000D01*
X120200000Y-84016000D02*
X120200000Y-97600000D01*
X121412000Y-82804000D02*
X120200000Y-84016000D01*
%TO.N,Net-(R5-Pad1)*%
X133350000Y-66040000D02*
X129032000Y-66040000D01*
%TD*%
D18*
%TO.N,GND*%
X168440000Y-64367581D02*
X168436807Y-64400000D01*
X168449550Y-64529383D01*
X168487290Y-64653793D01*
X168548575Y-64768450D01*
X168616639Y-64851386D01*
X168631052Y-64868948D01*
X168731550Y-64951425D01*
X168846207Y-65012710D01*
X168970617Y-65050450D01*
X169100000Y-65063193D01*
X169132419Y-65060000D01*
X179707144Y-65060000D01*
X179840000Y-82995605D01*
X179840000Y-98740000D01*
X176817138Y-98740000D01*
X176946632Y-98653475D01*
X177153475Y-98446632D01*
X177315990Y-98203411D01*
X177427932Y-97933158D01*
X177485000Y-97646260D01*
X177485000Y-97353740D01*
X177427932Y-97066842D01*
X177315990Y-96796589D01*
X177153475Y-96553368D01*
X176946632Y-96346525D01*
X176703411Y-96184010D01*
X176433158Y-96072068D01*
X176146260Y-96015000D01*
X175853740Y-96015000D01*
X175566842Y-96072068D01*
X175296589Y-96184010D01*
X175053368Y-96346525D01*
X174846525Y-96553368D01*
X174730000Y-96727760D01*
X174613475Y-96553368D01*
X174406632Y-96346525D01*
X174163411Y-96184010D01*
X173893158Y-96072068D01*
X173606260Y-96015000D01*
X173313740Y-96015000D01*
X173026842Y-96072068D01*
X172756589Y-96184010D01*
X172513368Y-96346525D01*
X172306525Y-96553368D01*
X172190000Y-96727760D01*
X172073475Y-96553368D01*
X171866632Y-96346525D01*
X171623411Y-96184010D01*
X171353158Y-96072068D01*
X171066260Y-96015000D01*
X170773740Y-96015000D01*
X170486842Y-96072068D01*
X170216589Y-96184010D01*
X169973368Y-96346525D01*
X169841513Y-96478380D01*
X169819502Y-96405820D01*
X169760537Y-96295506D01*
X169681185Y-96198815D01*
X169584494Y-96119463D01*
X169474180Y-96060498D01*
X169354482Y-96024188D01*
X169230000Y-96011928D01*
X168665750Y-96015000D01*
X168507000Y-96173750D01*
X168507000Y-97373000D01*
X168527000Y-97373000D01*
X168527000Y-97627000D01*
X168507000Y-97627000D01*
X168507000Y-97647000D01*
X168253000Y-97647000D01*
X168253000Y-97627000D01*
X167053750Y-97627000D01*
X166895000Y-97785750D01*
X166891928Y-98350000D01*
X166904188Y-98474482D01*
X166940498Y-98594180D01*
X166999463Y-98704494D01*
X167028602Y-98740000D01*
X128763408Y-98740000D01*
X128820269Y-98697588D01*
X129015178Y-98481355D01*
X129164157Y-98231252D01*
X129261481Y-97956891D01*
X129140814Y-97727000D01*
X127947000Y-97727000D01*
X127947000Y-97747000D01*
X127693000Y-97747000D01*
X127693000Y-97727000D01*
X127673000Y-97727000D01*
X127673000Y-97473000D01*
X127693000Y-97473000D01*
X127693000Y-96279845D01*
X127947000Y-96279845D01*
X127947000Y-97473000D01*
X129140814Y-97473000D01*
X129261481Y-97243109D01*
X129164157Y-96968748D01*
X129015178Y-96718645D01*
X128953303Y-96650000D01*
X166891928Y-96650000D01*
X166895000Y-97214250D01*
X167053750Y-97373000D01*
X168253000Y-97373000D01*
X168253000Y-96173750D01*
X168094250Y-96015000D01*
X167530000Y-96011928D01*
X167405518Y-96024188D01*
X167285820Y-96060498D01*
X167175506Y-96119463D01*
X167078815Y-96198815D01*
X166999463Y-96295506D01*
X166940498Y-96405820D01*
X166904188Y-96525518D01*
X166891928Y-96650000D01*
X128953303Y-96650000D01*
X128820269Y-96502412D01*
X128586920Y-96328359D01*
X128324099Y-96203175D01*
X128176890Y-96158524D01*
X127947000Y-96279845D01*
X127693000Y-96279845D01*
X127463110Y-96158524D01*
X127315901Y-96203175D01*
X127053080Y-96328359D01*
X126819731Y-96502412D01*
X126624822Y-96718645D01*
X126555195Y-96835534D01*
X126433475Y-96653368D01*
X126226632Y-96446525D01*
X125983411Y-96284010D01*
X125713158Y-96172068D01*
X125426260Y-96115000D01*
X125133740Y-96115000D01*
X124846842Y-96172068D01*
X124576589Y-96284010D01*
X124333368Y-96446525D01*
X124126525Y-96653368D01*
X124010000Y-96827760D01*
X123893475Y-96653368D01*
X123686632Y-96446525D01*
X123500000Y-96321822D01*
X123500000Y-94744801D01*
X123504801Y-94740000D01*
X149060678Y-94740000D01*
X149098000Y-94743676D01*
X149135322Y-94740000D01*
X149135333Y-94740000D01*
X149246986Y-94729003D01*
X149390247Y-94685546D01*
X149522276Y-94614974D01*
X149638001Y-94520001D01*
X149661804Y-94490997D01*
X154435003Y-89717799D01*
X154464001Y-89694001D01*
X154558974Y-89578276D01*
X154629546Y-89446247D01*
X154673003Y-89302986D01*
X154684000Y-89191333D01*
X154684000Y-89191325D01*
X154687676Y-89154000D01*
X154684000Y-89116675D01*
X154684000Y-56583711D01*
X154727937Y-56539774D01*
X154841205Y-56370256D01*
X154919226Y-56181898D01*
X154959000Y-55981939D01*
X154959000Y-55778061D01*
X154919226Y-55578102D01*
X154841205Y-55389744D01*
X154727937Y-55220226D01*
X154622176Y-55114465D01*
X154721205Y-54966256D01*
X154799226Y-54777898D01*
X154839000Y-54577939D01*
X154839000Y-54374061D01*
X154799226Y-54174102D01*
X154727286Y-54000425D01*
X154727937Y-53999774D01*
X154841205Y-53830256D01*
X154919226Y-53641898D01*
X154956203Y-53456000D01*
X159497928Y-53456000D01*
X159497928Y-55256000D01*
X159510188Y-55380482D01*
X159546498Y-55500180D01*
X159605463Y-55610494D01*
X159684815Y-55707185D01*
X159781506Y-55786537D01*
X159891820Y-55845502D01*
X160011518Y-55881812D01*
X160136000Y-55894072D01*
X161936000Y-55894072D01*
X162060482Y-55881812D01*
X162180180Y-55845502D01*
X162290494Y-55786537D01*
X162387185Y-55707185D01*
X162466537Y-55610494D01*
X162525502Y-55500180D01*
X162531056Y-55481873D01*
X162597495Y-55548312D01*
X162848905Y-55716299D01*
X163128257Y-55832011D01*
X163424816Y-55891000D01*
X163727184Y-55891000D01*
X164023743Y-55832011D01*
X164303095Y-55716299D01*
X164554505Y-55548312D01*
X164768312Y-55334505D01*
X164846000Y-55218237D01*
X164923688Y-55334505D01*
X165137495Y-55548312D01*
X165388905Y-55716299D01*
X165668257Y-55832011D01*
X165964816Y-55891000D01*
X166267184Y-55891000D01*
X166563743Y-55832011D01*
X166843095Y-55716299D01*
X167094505Y-55548312D01*
X167308312Y-55334505D01*
X167476299Y-55083095D01*
X167592011Y-54803743D01*
X167651000Y-54507184D01*
X167651000Y-54204816D01*
X167592011Y-53908257D01*
X167476299Y-53628905D01*
X167308312Y-53377495D01*
X167094505Y-53163688D01*
X166843095Y-52995701D01*
X166563743Y-52879989D01*
X166267184Y-52821000D01*
X165964816Y-52821000D01*
X165668257Y-52879989D01*
X165388905Y-52995701D01*
X165137495Y-53163688D01*
X164923688Y-53377495D01*
X164846000Y-53493763D01*
X164768312Y-53377495D01*
X164554505Y-53163688D01*
X164303095Y-52995701D01*
X164023743Y-52879989D01*
X163727184Y-52821000D01*
X163424816Y-52821000D01*
X163128257Y-52879989D01*
X162848905Y-52995701D01*
X162597495Y-53163688D01*
X162531056Y-53230127D01*
X162525502Y-53211820D01*
X162466537Y-53101506D01*
X162387185Y-53004815D01*
X162290494Y-52925463D01*
X162180180Y-52866498D01*
X162060482Y-52830188D01*
X161936000Y-52817928D01*
X160136000Y-52817928D01*
X160011518Y-52830188D01*
X159891820Y-52866498D01*
X159781506Y-52925463D01*
X159684815Y-53004815D01*
X159605463Y-53101506D01*
X159546498Y-53211820D01*
X159510188Y-53331518D01*
X159497928Y-53456000D01*
X154956203Y-53456000D01*
X154959000Y-53441939D01*
X154959000Y-53238061D01*
X154919226Y-53038102D01*
X154841205Y-52849744D01*
X154727937Y-52680226D01*
X154583774Y-52536063D01*
X154414256Y-52422795D01*
X154225898Y-52344774D01*
X154025939Y-52305000D01*
X153822061Y-52305000D01*
X153622102Y-52344774D01*
X153433744Y-52422795D01*
X153264226Y-52536063D01*
X153220289Y-52580000D01*
X128815325Y-52580000D01*
X128778000Y-52576324D01*
X128740675Y-52580000D01*
X128740667Y-52580000D01*
X128629014Y-52590997D01*
X128485753Y-52634454D01*
X128353724Y-52705026D01*
X128237999Y-52799999D01*
X128214201Y-52828998D01*
X127760000Y-53283199D01*
X127760000Y-49060000D01*
X168440001Y-49060000D01*
X168440000Y-64367581D01*
%TA.AperFunction,Conductor*%
D19*
G36*
X168440000Y-64367581D02*
G01*
X168436807Y-64400000D01*
X168449550Y-64529383D01*
X168487290Y-64653793D01*
X168548575Y-64768450D01*
X168616639Y-64851386D01*
X168631052Y-64868948D01*
X168731550Y-64951425D01*
X168846207Y-65012710D01*
X168970617Y-65050450D01*
X169100000Y-65063193D01*
X169132419Y-65060000D01*
X179707144Y-65060000D01*
X179840000Y-82995605D01*
X179840000Y-98740000D01*
X176817138Y-98740000D01*
X176946632Y-98653475D01*
X177153475Y-98446632D01*
X177315990Y-98203411D01*
X177427932Y-97933158D01*
X177485000Y-97646260D01*
X177485000Y-97353740D01*
X177427932Y-97066842D01*
X177315990Y-96796589D01*
X177153475Y-96553368D01*
X176946632Y-96346525D01*
X176703411Y-96184010D01*
X176433158Y-96072068D01*
X176146260Y-96015000D01*
X175853740Y-96015000D01*
X175566842Y-96072068D01*
X175296589Y-96184010D01*
X175053368Y-96346525D01*
X174846525Y-96553368D01*
X174730000Y-96727760D01*
X174613475Y-96553368D01*
X174406632Y-96346525D01*
X174163411Y-96184010D01*
X173893158Y-96072068D01*
X173606260Y-96015000D01*
X173313740Y-96015000D01*
X173026842Y-96072068D01*
X172756589Y-96184010D01*
X172513368Y-96346525D01*
X172306525Y-96553368D01*
X172190000Y-96727760D01*
X172073475Y-96553368D01*
X171866632Y-96346525D01*
X171623411Y-96184010D01*
X171353158Y-96072068D01*
X171066260Y-96015000D01*
X170773740Y-96015000D01*
X170486842Y-96072068D01*
X170216589Y-96184010D01*
X169973368Y-96346525D01*
X169841513Y-96478380D01*
X169819502Y-96405820D01*
X169760537Y-96295506D01*
X169681185Y-96198815D01*
X169584494Y-96119463D01*
X169474180Y-96060498D01*
X169354482Y-96024188D01*
X169230000Y-96011928D01*
X168665750Y-96015000D01*
X168507000Y-96173750D01*
X168507000Y-97373000D01*
X168527000Y-97373000D01*
X168527000Y-97627000D01*
X168507000Y-97627000D01*
X168507000Y-97647000D01*
X168253000Y-97647000D01*
X168253000Y-97627000D01*
X167053750Y-97627000D01*
X166895000Y-97785750D01*
X166891928Y-98350000D01*
X166904188Y-98474482D01*
X166940498Y-98594180D01*
X166999463Y-98704494D01*
X167028602Y-98740000D01*
X128763408Y-98740000D01*
X128820269Y-98697588D01*
X129015178Y-98481355D01*
X129164157Y-98231252D01*
X129261481Y-97956891D01*
X129140814Y-97727000D01*
X127947000Y-97727000D01*
X127947000Y-97747000D01*
X127693000Y-97747000D01*
X127693000Y-97727000D01*
X127673000Y-97727000D01*
X127673000Y-97473000D01*
X127693000Y-97473000D01*
X127693000Y-96279845D01*
X127947000Y-96279845D01*
X127947000Y-97473000D01*
X129140814Y-97473000D01*
X129261481Y-97243109D01*
X129164157Y-96968748D01*
X129015178Y-96718645D01*
X128953303Y-96650000D01*
X166891928Y-96650000D01*
X166895000Y-97214250D01*
X167053750Y-97373000D01*
X168253000Y-97373000D01*
X168253000Y-96173750D01*
X168094250Y-96015000D01*
X167530000Y-96011928D01*
X167405518Y-96024188D01*
X167285820Y-96060498D01*
X167175506Y-96119463D01*
X167078815Y-96198815D01*
X166999463Y-96295506D01*
X166940498Y-96405820D01*
X166904188Y-96525518D01*
X166891928Y-96650000D01*
X128953303Y-96650000D01*
X128820269Y-96502412D01*
X128586920Y-96328359D01*
X128324099Y-96203175D01*
X128176890Y-96158524D01*
X127947000Y-96279845D01*
X127693000Y-96279845D01*
X127463110Y-96158524D01*
X127315901Y-96203175D01*
X127053080Y-96328359D01*
X126819731Y-96502412D01*
X126624822Y-96718645D01*
X126555195Y-96835534D01*
X126433475Y-96653368D01*
X126226632Y-96446525D01*
X125983411Y-96284010D01*
X125713158Y-96172068D01*
X125426260Y-96115000D01*
X125133740Y-96115000D01*
X124846842Y-96172068D01*
X124576589Y-96284010D01*
X124333368Y-96446525D01*
X124126525Y-96653368D01*
X124010000Y-96827760D01*
X123893475Y-96653368D01*
X123686632Y-96446525D01*
X123500000Y-96321822D01*
X123500000Y-94744801D01*
X123504801Y-94740000D01*
X149060678Y-94740000D01*
X149098000Y-94743676D01*
X149135322Y-94740000D01*
X149135333Y-94740000D01*
X149246986Y-94729003D01*
X149390247Y-94685546D01*
X149522276Y-94614974D01*
X149638001Y-94520001D01*
X149661804Y-94490997D01*
X154435003Y-89717799D01*
X154464001Y-89694001D01*
X154558974Y-89578276D01*
X154629546Y-89446247D01*
X154673003Y-89302986D01*
X154684000Y-89191333D01*
X154684000Y-89191325D01*
X154687676Y-89154000D01*
X154684000Y-89116675D01*
X154684000Y-56583711D01*
X154727937Y-56539774D01*
X154841205Y-56370256D01*
X154919226Y-56181898D01*
X154959000Y-55981939D01*
X154959000Y-55778061D01*
X154919226Y-55578102D01*
X154841205Y-55389744D01*
X154727937Y-55220226D01*
X154622176Y-55114465D01*
X154721205Y-54966256D01*
X154799226Y-54777898D01*
X154839000Y-54577939D01*
X154839000Y-54374061D01*
X154799226Y-54174102D01*
X154727286Y-54000425D01*
X154727937Y-53999774D01*
X154841205Y-53830256D01*
X154919226Y-53641898D01*
X154956203Y-53456000D01*
X159497928Y-53456000D01*
X159497928Y-55256000D01*
X159510188Y-55380482D01*
X159546498Y-55500180D01*
X159605463Y-55610494D01*
X159684815Y-55707185D01*
X159781506Y-55786537D01*
X159891820Y-55845502D01*
X160011518Y-55881812D01*
X160136000Y-55894072D01*
X161936000Y-55894072D01*
X162060482Y-55881812D01*
X162180180Y-55845502D01*
X162290494Y-55786537D01*
X162387185Y-55707185D01*
X162466537Y-55610494D01*
X162525502Y-55500180D01*
X162531056Y-55481873D01*
X162597495Y-55548312D01*
X162848905Y-55716299D01*
X163128257Y-55832011D01*
X163424816Y-55891000D01*
X163727184Y-55891000D01*
X164023743Y-55832011D01*
X164303095Y-55716299D01*
X164554505Y-55548312D01*
X164768312Y-55334505D01*
X164846000Y-55218237D01*
X164923688Y-55334505D01*
X165137495Y-55548312D01*
X165388905Y-55716299D01*
X165668257Y-55832011D01*
X165964816Y-55891000D01*
X166267184Y-55891000D01*
X166563743Y-55832011D01*
X166843095Y-55716299D01*
X167094505Y-55548312D01*
X167308312Y-55334505D01*
X167476299Y-55083095D01*
X167592011Y-54803743D01*
X167651000Y-54507184D01*
X167651000Y-54204816D01*
X167592011Y-53908257D01*
X167476299Y-53628905D01*
X167308312Y-53377495D01*
X167094505Y-53163688D01*
X166843095Y-52995701D01*
X166563743Y-52879989D01*
X166267184Y-52821000D01*
X165964816Y-52821000D01*
X165668257Y-52879989D01*
X165388905Y-52995701D01*
X165137495Y-53163688D01*
X164923688Y-53377495D01*
X164846000Y-53493763D01*
X164768312Y-53377495D01*
X164554505Y-53163688D01*
X164303095Y-52995701D01*
X164023743Y-52879989D01*
X163727184Y-52821000D01*
X163424816Y-52821000D01*
X163128257Y-52879989D01*
X162848905Y-52995701D01*
X162597495Y-53163688D01*
X162531056Y-53230127D01*
X162525502Y-53211820D01*
X162466537Y-53101506D01*
X162387185Y-53004815D01*
X162290494Y-52925463D01*
X162180180Y-52866498D01*
X162060482Y-52830188D01*
X161936000Y-52817928D01*
X160136000Y-52817928D01*
X160011518Y-52830188D01*
X159891820Y-52866498D01*
X159781506Y-52925463D01*
X159684815Y-53004815D01*
X159605463Y-53101506D01*
X159546498Y-53211820D01*
X159510188Y-53331518D01*
X159497928Y-53456000D01*
X154956203Y-53456000D01*
X154959000Y-53441939D01*
X154959000Y-53238061D01*
X154919226Y-53038102D01*
X154841205Y-52849744D01*
X154727937Y-52680226D01*
X154583774Y-52536063D01*
X154414256Y-52422795D01*
X154225898Y-52344774D01*
X154025939Y-52305000D01*
X153822061Y-52305000D01*
X153622102Y-52344774D01*
X153433744Y-52422795D01*
X153264226Y-52536063D01*
X153220289Y-52580000D01*
X128815325Y-52580000D01*
X128778000Y-52576324D01*
X128740675Y-52580000D01*
X128740667Y-52580000D01*
X128629014Y-52590997D01*
X128485753Y-52634454D01*
X128353724Y-52705026D01*
X128237999Y-52799999D01*
X128214201Y-52828998D01*
X127760000Y-53283199D01*
X127760000Y-49060000D01*
X168440001Y-49060000D01*
X168440000Y-64367581D01*
G37*
%TD.AperFunction*%
D18*
X152792281Y-54694980D02*
X152808774Y-54777898D01*
X152886795Y-54966256D01*
X153000063Y-55135774D01*
X153105824Y-55241535D01*
X153006795Y-55389744D01*
X152928774Y-55578102D01*
X152889000Y-55778061D01*
X152889000Y-55981939D01*
X152928774Y-56181898D01*
X153006795Y-56370256D01*
X153120063Y-56539774D01*
X153164000Y-56583711D01*
X153164001Y-88839197D01*
X148783199Y-93220000D01*
X123227322Y-93220000D01*
X123189999Y-93216324D01*
X123152676Y-93220000D01*
X123152667Y-93220000D01*
X123041014Y-93230997D01*
X122897753Y-93274454D01*
X122765723Y-93345026D01*
X122723146Y-93379969D01*
X122649999Y-93439999D01*
X122626196Y-93469003D01*
X122324999Y-93770200D01*
X122324999Y-86324804D01*
X143513003Y-65136801D01*
X143542001Y-65113003D01*
X143636974Y-64997278D01*
X143707546Y-64865249D01*
X143751003Y-64721988D01*
X143762000Y-64610335D01*
X143765677Y-64573002D01*
X143762000Y-64535669D01*
X143762000Y-63949711D01*
X143805937Y-63905774D01*
X143919205Y-63736256D01*
X143997226Y-63547898D01*
X144037000Y-63347939D01*
X144037000Y-63144061D01*
X143997226Y-62944102D01*
X143919205Y-62755744D01*
X143805937Y-62586226D01*
X143661774Y-62442063D01*
X143492256Y-62328795D01*
X143303898Y-62250774D01*
X143103939Y-62211000D01*
X142900061Y-62211000D01*
X142700102Y-62250774D01*
X142511744Y-62328795D01*
X142342226Y-62442063D01*
X142198063Y-62586226D01*
X142084795Y-62755744D01*
X142006774Y-62944102D01*
X141967000Y-63144061D01*
X141967000Y-63347939D01*
X141993467Y-63481000D01*
X141884061Y-63481000D01*
X141684102Y-63520774D01*
X141495744Y-63598795D01*
X141326226Y-63712063D01*
X141182063Y-63856226D01*
X141068795Y-64025744D01*
X140990774Y-64214102D01*
X140951000Y-64414061D01*
X140951000Y-64476198D01*
X123383199Y-82044000D01*
X121449323Y-82044000D01*
X121412000Y-82040324D01*
X121374677Y-82044000D01*
X121374667Y-82044000D01*
X121263014Y-82054997D01*
X121119753Y-82098454D01*
X120987724Y-82169026D01*
X120871999Y-82263999D01*
X120848201Y-82292997D01*
X119689003Y-83452196D01*
X119659999Y-83475999D01*
X119604871Y-83543174D01*
X119565026Y-83591724D01*
X119494455Y-83723753D01*
X119494454Y-83723754D01*
X119450997Y-83867015D01*
X119440000Y-83978668D01*
X119440000Y-83978678D01*
X119436324Y-84016000D01*
X119440000Y-84053322D01*
X119440001Y-96111928D01*
X119350000Y-96111928D01*
X119225518Y-96124188D01*
X119105820Y-96160498D01*
X118995506Y-96219463D01*
X118898815Y-96298815D01*
X118819463Y-96395506D01*
X118760498Y-96505820D01*
X118724188Y-96625518D01*
X118711928Y-96750000D01*
X118711928Y-98450000D01*
X118724188Y-98574482D01*
X118760498Y-98694180D01*
X118784990Y-98740000D01*
X116360000Y-98740000D01*
X116360000Y-79451890D01*
X116569124Y-79451890D01*
X116613775Y-79599099D01*
X116738959Y-79861920D01*
X116913012Y-80095269D01*
X117129245Y-80290178D01*
X117379348Y-80439157D01*
X117653709Y-80536481D01*
X117883600Y-80415814D01*
X117883600Y-79222000D01*
X118137600Y-79222000D01*
X118137600Y-80415814D01*
X118367491Y-80536481D01*
X118641852Y-80439157D01*
X118891955Y-80290178D01*
X119108188Y-80095269D01*
X119282241Y-79861920D01*
X119407425Y-79599099D01*
X119452076Y-79451890D01*
X119330755Y-79222000D01*
X118137600Y-79222000D01*
X117883600Y-79222000D01*
X116690445Y-79222000D01*
X116569124Y-79451890D01*
X116360000Y-79451890D01*
X116360000Y-65060000D01*
X116750619Y-65060000D01*
X116709415Y-65093815D01*
X116630063Y-65190506D01*
X116571098Y-65300820D01*
X116534788Y-65420518D01*
X116522528Y-65545000D01*
X116522528Y-67245000D01*
X116534788Y-67369482D01*
X116571098Y-67489180D01*
X116630063Y-67599494D01*
X116709415Y-67696185D01*
X116806106Y-67775537D01*
X116916420Y-67834502D01*
X116988980Y-67856513D01*
X116857125Y-67988368D01*
X116694610Y-68231589D01*
X116582668Y-68501842D01*
X116525600Y-68788740D01*
X116525600Y-69081260D01*
X116582668Y-69368158D01*
X116694610Y-69638411D01*
X116857125Y-69881632D01*
X117063968Y-70088475D01*
X117238360Y-70205000D01*
X117063968Y-70321525D01*
X116857125Y-70528368D01*
X116694610Y-70771589D01*
X116582668Y-71041842D01*
X116525600Y-71328740D01*
X116525600Y-71621260D01*
X116582668Y-71908158D01*
X116694610Y-72178411D01*
X116857125Y-72421632D01*
X117063968Y-72628475D01*
X117238360Y-72745000D01*
X117063968Y-72861525D01*
X116857125Y-73068368D01*
X116694610Y-73311589D01*
X116582668Y-73581842D01*
X116525600Y-73868740D01*
X116525600Y-74161260D01*
X116582668Y-74448158D01*
X116694610Y-74718411D01*
X116857125Y-74961632D01*
X117063968Y-75168475D01*
X117238360Y-75285000D01*
X117063968Y-75401525D01*
X116857125Y-75608368D01*
X116694610Y-75851589D01*
X116582668Y-76121842D01*
X116525600Y-76408740D01*
X116525600Y-76701260D01*
X116582668Y-76988158D01*
X116694610Y-77258411D01*
X116857125Y-77501632D01*
X117063968Y-77708475D01*
X117246134Y-77830195D01*
X117129245Y-77899822D01*
X116913012Y-78094731D01*
X116738959Y-78328080D01*
X116613775Y-78590901D01*
X116569124Y-78738110D01*
X116690445Y-78968000D01*
X117883600Y-78968000D01*
X117883600Y-78948000D01*
X118137600Y-78948000D01*
X118137600Y-78968000D01*
X119330755Y-78968000D01*
X119452076Y-78738110D01*
X119407425Y-78590901D01*
X119282241Y-78328080D01*
X119108188Y-78094731D01*
X118891955Y-77899822D01*
X118775066Y-77830195D01*
X118957232Y-77708475D01*
X119164075Y-77501632D01*
X119326590Y-77258411D01*
X119438532Y-76988158D01*
X119495600Y-76701260D01*
X119495600Y-76408740D01*
X119438532Y-76121842D01*
X119326590Y-75851589D01*
X119164075Y-75608368D01*
X118957232Y-75401525D01*
X118782840Y-75285000D01*
X118957232Y-75168475D01*
X119164075Y-74961632D01*
X119326590Y-74718411D01*
X119438532Y-74448158D01*
X119495600Y-74161260D01*
X119495600Y-73868740D01*
X119438532Y-73581842D01*
X119326590Y-73311589D01*
X119164075Y-73068368D01*
X118957232Y-72861525D01*
X118782840Y-72745000D01*
X118957232Y-72628475D01*
X119164075Y-72421632D01*
X119288778Y-72235000D01*
X119495678Y-72235000D01*
X119533000Y-72238676D01*
X119570322Y-72235000D01*
X119570333Y-72235000D01*
X119681986Y-72224003D01*
X119825247Y-72180546D01*
X119957276Y-72109974D01*
X120073001Y-72015001D01*
X120096804Y-71985997D01*
X120144997Y-71937804D01*
X120174001Y-71914001D01*
X120268974Y-71798276D01*
X120339546Y-71666247D01*
X120383003Y-71522986D01*
X120394000Y-71411333D01*
X120397677Y-71374000D01*
X120394000Y-71336667D01*
X120394000Y-70764061D01*
X127997000Y-70764061D01*
X127997000Y-70967939D01*
X128036774Y-71167898D01*
X128114795Y-71356256D01*
X128228063Y-71525774D01*
X128372226Y-71669937D01*
X128541744Y-71783205D01*
X128730102Y-71861226D01*
X128930061Y-71901000D01*
X129133939Y-71901000D01*
X129333898Y-71861226D01*
X129522256Y-71783205D01*
X129691774Y-71669937D01*
X129735711Y-71626000D01*
X131630289Y-71626000D01*
X131674226Y-71669937D01*
X131843744Y-71783205D01*
X132032102Y-71861226D01*
X132232061Y-71901000D01*
X132435939Y-71901000D01*
X132635898Y-71861226D01*
X132824256Y-71783205D01*
X132993774Y-71669937D01*
X133137937Y-71525774D01*
X133251205Y-71356256D01*
X133329226Y-71167898D01*
X133369000Y-70967939D01*
X133369000Y-70764061D01*
X133329226Y-70564102D01*
X133251205Y-70375744D01*
X133137937Y-70206226D01*
X132993774Y-70062063D01*
X132824256Y-69948795D01*
X132635898Y-69870774D01*
X132435939Y-69831000D01*
X132232061Y-69831000D01*
X132032102Y-69870774D01*
X131843744Y-69948795D01*
X131674226Y-70062063D01*
X131630289Y-70106000D01*
X129735711Y-70106000D01*
X129691774Y-70062063D01*
X129522256Y-69948795D01*
X129333898Y-69870774D01*
X129133939Y-69831000D01*
X128930061Y-69831000D01*
X128730102Y-69870774D01*
X128541744Y-69948795D01*
X128372226Y-70062063D01*
X128228063Y-70206226D01*
X128114795Y-70375744D01*
X128036774Y-70564102D01*
X127997000Y-70764061D01*
X120394000Y-70764061D01*
X120394000Y-69785211D01*
X123633212Y-66546000D01*
X127345088Y-66546000D01*
X127382410Y-66549676D01*
X127419732Y-66546000D01*
X127419743Y-66546000D01*
X127531396Y-66535003D01*
X127674657Y-66491546D01*
X127806686Y-66420974D01*
X127922411Y-66326001D01*
X127946213Y-66296998D01*
X128014300Y-66228911D01*
X128036774Y-66341898D01*
X128114795Y-66530256D01*
X128228063Y-66699774D01*
X128372226Y-66843937D01*
X128541744Y-66957205D01*
X128730102Y-67035226D01*
X128930061Y-67075000D01*
X129133939Y-67075000D01*
X129333898Y-67035226D01*
X129522256Y-66957205D01*
X129691774Y-66843937D01*
X129735711Y-66800000D01*
X132646289Y-66800000D01*
X132690226Y-66843937D01*
X132859744Y-66957205D01*
X133048102Y-67035226D01*
X133248061Y-67075000D01*
X133451939Y-67075000D01*
X133651898Y-67035226D01*
X133840256Y-66957205D01*
X134009774Y-66843937D01*
X134153937Y-66699774D01*
X134267205Y-66530256D01*
X134345226Y-66341898D01*
X134385000Y-66141939D01*
X134385000Y-65938061D01*
X134345226Y-65738102D01*
X134267205Y-65549744D01*
X134153937Y-65380226D01*
X134009774Y-65236063D01*
X133840256Y-65122795D01*
X133651898Y-65044774D01*
X133451939Y-65005000D01*
X133248061Y-65005000D01*
X133048102Y-65044774D01*
X132859744Y-65122795D01*
X132690226Y-65236063D01*
X132646289Y-65280000D01*
X129735711Y-65280000D01*
X129691774Y-65236063D01*
X129522256Y-65122795D01*
X129333898Y-65044774D01*
X129162938Y-65010768D01*
X129171554Y-64994648D01*
X129215011Y-64851388D01*
X129229685Y-64702402D01*
X129226008Y-64665069D01*
X129226009Y-59321159D01*
X129304815Y-59417185D01*
X129401506Y-59496537D01*
X129511820Y-59555502D01*
X129631518Y-59591812D01*
X129756000Y-59604072D01*
X131356000Y-59604072D01*
X131480482Y-59591812D01*
X131600180Y-59555502D01*
X131710494Y-59496537D01*
X131807185Y-59417185D01*
X131886537Y-59320494D01*
X131945502Y-59210180D01*
X131961117Y-59158702D01*
X132242903Y-59158702D01*
X132314486Y-59402671D01*
X132569996Y-59523571D01*
X132844184Y-59592300D01*
X133126512Y-59606217D01*
X133406130Y-59564787D01*
X133672292Y-59469603D01*
X133797514Y-59402671D01*
X133869097Y-59158702D01*
X133056000Y-58345605D01*
X132242903Y-59158702D01*
X131961117Y-59158702D01*
X131981812Y-59090482D01*
X131994072Y-58966000D01*
X131994072Y-58958785D01*
X132063298Y-58979097D01*
X132876395Y-58166000D01*
X133235605Y-58166000D01*
X134048702Y-58979097D01*
X134292671Y-58907514D01*
X134413571Y-58652004D01*
X134482300Y-58377816D01*
X134496217Y-58095488D01*
X134454787Y-57815870D01*
X134359603Y-57549708D01*
X134292671Y-57424486D01*
X134048702Y-57352903D01*
X133235605Y-58166000D01*
X132876395Y-58166000D01*
X132063298Y-57352903D01*
X131994072Y-57373215D01*
X131994072Y-57366000D01*
X131981812Y-57241518D01*
X131961118Y-57173298D01*
X132242903Y-57173298D01*
X133056000Y-57986395D01*
X133869097Y-57173298D01*
X133797514Y-56929329D01*
X133542004Y-56808429D01*
X133267816Y-56739700D01*
X132985488Y-56725783D01*
X132705870Y-56767213D01*
X132439708Y-56862397D01*
X132314486Y-56929329D01*
X132242903Y-57173298D01*
X131961118Y-57173298D01*
X131945502Y-57121820D01*
X131886537Y-57011506D01*
X131807185Y-56914815D01*
X131710494Y-56835463D01*
X131600180Y-56776498D01*
X131480482Y-56740188D01*
X131356000Y-56727928D01*
X129756000Y-56727928D01*
X129631518Y-56740188D01*
X129511820Y-56776498D01*
X129401506Y-56835463D01*
X129304815Y-56914815D01*
X129226009Y-57010840D01*
X129226010Y-54728791D01*
X129346802Y-54608000D01*
X152668182Y-54608000D01*
X152792281Y-54694980D01*
%TA.AperFunction,Conductor*%
D19*
G36*
X152792281Y-54694980D02*
G01*
X152808774Y-54777898D01*
X152886795Y-54966256D01*
X153000063Y-55135774D01*
X153105824Y-55241535D01*
X153006795Y-55389744D01*
X152928774Y-55578102D01*
X152889000Y-55778061D01*
X152889000Y-55981939D01*
X152928774Y-56181898D01*
X153006795Y-56370256D01*
X153120063Y-56539774D01*
X153164000Y-56583711D01*
X153164001Y-88839197D01*
X148783199Y-93220000D01*
X123227322Y-93220000D01*
X123189999Y-93216324D01*
X123152676Y-93220000D01*
X123152667Y-93220000D01*
X123041014Y-93230997D01*
X122897753Y-93274454D01*
X122765723Y-93345026D01*
X122723146Y-93379969D01*
X122649999Y-93439999D01*
X122626196Y-93469003D01*
X122324999Y-93770200D01*
X122324999Y-86324804D01*
X143513003Y-65136801D01*
X143542001Y-65113003D01*
X143636974Y-64997278D01*
X143707546Y-64865249D01*
X143751003Y-64721988D01*
X143762000Y-64610335D01*
X143765677Y-64573002D01*
X143762000Y-64535669D01*
X143762000Y-63949711D01*
X143805937Y-63905774D01*
X143919205Y-63736256D01*
X143997226Y-63547898D01*
X144037000Y-63347939D01*
X144037000Y-63144061D01*
X143997226Y-62944102D01*
X143919205Y-62755744D01*
X143805937Y-62586226D01*
X143661774Y-62442063D01*
X143492256Y-62328795D01*
X143303898Y-62250774D01*
X143103939Y-62211000D01*
X142900061Y-62211000D01*
X142700102Y-62250774D01*
X142511744Y-62328795D01*
X142342226Y-62442063D01*
X142198063Y-62586226D01*
X142084795Y-62755744D01*
X142006774Y-62944102D01*
X141967000Y-63144061D01*
X141967000Y-63347939D01*
X141993467Y-63481000D01*
X141884061Y-63481000D01*
X141684102Y-63520774D01*
X141495744Y-63598795D01*
X141326226Y-63712063D01*
X141182063Y-63856226D01*
X141068795Y-64025744D01*
X140990774Y-64214102D01*
X140951000Y-64414061D01*
X140951000Y-64476198D01*
X123383199Y-82044000D01*
X121449323Y-82044000D01*
X121412000Y-82040324D01*
X121374677Y-82044000D01*
X121374667Y-82044000D01*
X121263014Y-82054997D01*
X121119753Y-82098454D01*
X120987724Y-82169026D01*
X120871999Y-82263999D01*
X120848201Y-82292997D01*
X119689003Y-83452196D01*
X119659999Y-83475999D01*
X119604871Y-83543174D01*
X119565026Y-83591724D01*
X119494455Y-83723753D01*
X119494454Y-83723754D01*
X119450997Y-83867015D01*
X119440000Y-83978668D01*
X119440000Y-83978678D01*
X119436324Y-84016000D01*
X119440000Y-84053322D01*
X119440001Y-96111928D01*
X119350000Y-96111928D01*
X119225518Y-96124188D01*
X119105820Y-96160498D01*
X118995506Y-96219463D01*
X118898815Y-96298815D01*
X118819463Y-96395506D01*
X118760498Y-96505820D01*
X118724188Y-96625518D01*
X118711928Y-96750000D01*
X118711928Y-98450000D01*
X118724188Y-98574482D01*
X118760498Y-98694180D01*
X118784990Y-98740000D01*
X116360000Y-98740000D01*
X116360000Y-79451890D01*
X116569124Y-79451890D01*
X116613775Y-79599099D01*
X116738959Y-79861920D01*
X116913012Y-80095269D01*
X117129245Y-80290178D01*
X117379348Y-80439157D01*
X117653709Y-80536481D01*
X117883600Y-80415814D01*
X117883600Y-79222000D01*
X118137600Y-79222000D01*
X118137600Y-80415814D01*
X118367491Y-80536481D01*
X118641852Y-80439157D01*
X118891955Y-80290178D01*
X119108188Y-80095269D01*
X119282241Y-79861920D01*
X119407425Y-79599099D01*
X119452076Y-79451890D01*
X119330755Y-79222000D01*
X118137600Y-79222000D01*
X117883600Y-79222000D01*
X116690445Y-79222000D01*
X116569124Y-79451890D01*
X116360000Y-79451890D01*
X116360000Y-65060000D01*
X116750619Y-65060000D01*
X116709415Y-65093815D01*
X116630063Y-65190506D01*
X116571098Y-65300820D01*
X116534788Y-65420518D01*
X116522528Y-65545000D01*
X116522528Y-67245000D01*
X116534788Y-67369482D01*
X116571098Y-67489180D01*
X116630063Y-67599494D01*
X116709415Y-67696185D01*
X116806106Y-67775537D01*
X116916420Y-67834502D01*
X116988980Y-67856513D01*
X116857125Y-67988368D01*
X116694610Y-68231589D01*
X116582668Y-68501842D01*
X116525600Y-68788740D01*
X116525600Y-69081260D01*
X116582668Y-69368158D01*
X116694610Y-69638411D01*
X116857125Y-69881632D01*
X117063968Y-70088475D01*
X117238360Y-70205000D01*
X117063968Y-70321525D01*
X116857125Y-70528368D01*
X116694610Y-70771589D01*
X116582668Y-71041842D01*
X116525600Y-71328740D01*
X116525600Y-71621260D01*
X116582668Y-71908158D01*
X116694610Y-72178411D01*
X116857125Y-72421632D01*
X117063968Y-72628475D01*
X117238360Y-72745000D01*
X117063968Y-72861525D01*
X116857125Y-73068368D01*
X116694610Y-73311589D01*
X116582668Y-73581842D01*
X116525600Y-73868740D01*
X116525600Y-74161260D01*
X116582668Y-74448158D01*
X116694610Y-74718411D01*
X116857125Y-74961632D01*
X117063968Y-75168475D01*
X117238360Y-75285000D01*
X117063968Y-75401525D01*
X116857125Y-75608368D01*
X116694610Y-75851589D01*
X116582668Y-76121842D01*
X116525600Y-76408740D01*
X116525600Y-76701260D01*
X116582668Y-76988158D01*
X116694610Y-77258411D01*
X116857125Y-77501632D01*
X117063968Y-77708475D01*
X117246134Y-77830195D01*
X117129245Y-77899822D01*
X116913012Y-78094731D01*
X116738959Y-78328080D01*
X116613775Y-78590901D01*
X116569124Y-78738110D01*
X116690445Y-78968000D01*
X117883600Y-78968000D01*
X117883600Y-78948000D01*
X118137600Y-78948000D01*
X118137600Y-78968000D01*
X119330755Y-78968000D01*
X119452076Y-78738110D01*
X119407425Y-78590901D01*
X119282241Y-78328080D01*
X119108188Y-78094731D01*
X118891955Y-77899822D01*
X118775066Y-77830195D01*
X118957232Y-77708475D01*
X119164075Y-77501632D01*
X119326590Y-77258411D01*
X119438532Y-76988158D01*
X119495600Y-76701260D01*
X119495600Y-76408740D01*
X119438532Y-76121842D01*
X119326590Y-75851589D01*
X119164075Y-75608368D01*
X118957232Y-75401525D01*
X118782840Y-75285000D01*
X118957232Y-75168475D01*
X119164075Y-74961632D01*
X119326590Y-74718411D01*
X119438532Y-74448158D01*
X119495600Y-74161260D01*
X119495600Y-73868740D01*
X119438532Y-73581842D01*
X119326590Y-73311589D01*
X119164075Y-73068368D01*
X118957232Y-72861525D01*
X118782840Y-72745000D01*
X118957232Y-72628475D01*
X119164075Y-72421632D01*
X119288778Y-72235000D01*
X119495678Y-72235000D01*
X119533000Y-72238676D01*
X119570322Y-72235000D01*
X119570333Y-72235000D01*
X119681986Y-72224003D01*
X119825247Y-72180546D01*
X119957276Y-72109974D01*
X120073001Y-72015001D01*
X120096804Y-71985997D01*
X120144997Y-71937804D01*
X120174001Y-71914001D01*
X120268974Y-71798276D01*
X120339546Y-71666247D01*
X120383003Y-71522986D01*
X120394000Y-71411333D01*
X120397677Y-71374000D01*
X120394000Y-71336667D01*
X120394000Y-70764061D01*
X127997000Y-70764061D01*
X127997000Y-70967939D01*
X128036774Y-71167898D01*
X128114795Y-71356256D01*
X128228063Y-71525774D01*
X128372226Y-71669937D01*
X128541744Y-71783205D01*
X128730102Y-71861226D01*
X128930061Y-71901000D01*
X129133939Y-71901000D01*
X129333898Y-71861226D01*
X129522256Y-71783205D01*
X129691774Y-71669937D01*
X129735711Y-71626000D01*
X131630289Y-71626000D01*
X131674226Y-71669937D01*
X131843744Y-71783205D01*
X132032102Y-71861226D01*
X132232061Y-71901000D01*
X132435939Y-71901000D01*
X132635898Y-71861226D01*
X132824256Y-71783205D01*
X132993774Y-71669937D01*
X133137937Y-71525774D01*
X133251205Y-71356256D01*
X133329226Y-71167898D01*
X133369000Y-70967939D01*
X133369000Y-70764061D01*
X133329226Y-70564102D01*
X133251205Y-70375744D01*
X133137937Y-70206226D01*
X132993774Y-70062063D01*
X132824256Y-69948795D01*
X132635898Y-69870774D01*
X132435939Y-69831000D01*
X132232061Y-69831000D01*
X132032102Y-69870774D01*
X131843744Y-69948795D01*
X131674226Y-70062063D01*
X131630289Y-70106000D01*
X129735711Y-70106000D01*
X129691774Y-70062063D01*
X129522256Y-69948795D01*
X129333898Y-69870774D01*
X129133939Y-69831000D01*
X128930061Y-69831000D01*
X128730102Y-69870774D01*
X128541744Y-69948795D01*
X128372226Y-70062063D01*
X128228063Y-70206226D01*
X128114795Y-70375744D01*
X128036774Y-70564102D01*
X127997000Y-70764061D01*
X120394000Y-70764061D01*
X120394000Y-69785211D01*
X123633212Y-66546000D01*
X127345088Y-66546000D01*
X127382410Y-66549676D01*
X127419732Y-66546000D01*
X127419743Y-66546000D01*
X127531396Y-66535003D01*
X127674657Y-66491546D01*
X127806686Y-66420974D01*
X127922411Y-66326001D01*
X127946213Y-66296998D01*
X128014300Y-66228911D01*
X128036774Y-66341898D01*
X128114795Y-66530256D01*
X128228063Y-66699774D01*
X128372226Y-66843937D01*
X128541744Y-66957205D01*
X128730102Y-67035226D01*
X128930061Y-67075000D01*
X129133939Y-67075000D01*
X129333898Y-67035226D01*
X129522256Y-66957205D01*
X129691774Y-66843937D01*
X129735711Y-66800000D01*
X132646289Y-66800000D01*
X132690226Y-66843937D01*
X132859744Y-66957205D01*
X133048102Y-67035226D01*
X133248061Y-67075000D01*
X133451939Y-67075000D01*
X133651898Y-67035226D01*
X133840256Y-66957205D01*
X134009774Y-66843937D01*
X134153937Y-66699774D01*
X134267205Y-66530256D01*
X134345226Y-66341898D01*
X134385000Y-66141939D01*
X134385000Y-65938061D01*
X134345226Y-65738102D01*
X134267205Y-65549744D01*
X134153937Y-65380226D01*
X134009774Y-65236063D01*
X133840256Y-65122795D01*
X133651898Y-65044774D01*
X133451939Y-65005000D01*
X133248061Y-65005000D01*
X133048102Y-65044774D01*
X132859744Y-65122795D01*
X132690226Y-65236063D01*
X132646289Y-65280000D01*
X129735711Y-65280000D01*
X129691774Y-65236063D01*
X129522256Y-65122795D01*
X129333898Y-65044774D01*
X129162938Y-65010768D01*
X129171554Y-64994648D01*
X129215011Y-64851388D01*
X129229685Y-64702402D01*
X129226008Y-64665069D01*
X129226009Y-59321159D01*
X129304815Y-59417185D01*
X129401506Y-59496537D01*
X129511820Y-59555502D01*
X129631518Y-59591812D01*
X129756000Y-59604072D01*
X131356000Y-59604072D01*
X131480482Y-59591812D01*
X131600180Y-59555502D01*
X131710494Y-59496537D01*
X131807185Y-59417185D01*
X131886537Y-59320494D01*
X131945502Y-59210180D01*
X131961117Y-59158702D01*
X132242903Y-59158702D01*
X132314486Y-59402671D01*
X132569996Y-59523571D01*
X132844184Y-59592300D01*
X133126512Y-59606217D01*
X133406130Y-59564787D01*
X133672292Y-59469603D01*
X133797514Y-59402671D01*
X133869097Y-59158702D01*
X133056000Y-58345605D01*
X132242903Y-59158702D01*
X131961117Y-59158702D01*
X131981812Y-59090482D01*
X131994072Y-58966000D01*
X131994072Y-58958785D01*
X132063298Y-58979097D01*
X132876395Y-58166000D01*
X133235605Y-58166000D01*
X134048702Y-58979097D01*
X134292671Y-58907514D01*
X134413571Y-58652004D01*
X134482300Y-58377816D01*
X134496217Y-58095488D01*
X134454787Y-57815870D01*
X134359603Y-57549708D01*
X134292671Y-57424486D01*
X134048702Y-57352903D01*
X133235605Y-58166000D01*
X132876395Y-58166000D01*
X132063298Y-57352903D01*
X131994072Y-57373215D01*
X131994072Y-57366000D01*
X131981812Y-57241518D01*
X131961118Y-57173298D01*
X132242903Y-57173298D01*
X133056000Y-57986395D01*
X133869097Y-57173298D01*
X133797514Y-56929329D01*
X133542004Y-56808429D01*
X133267816Y-56739700D01*
X132985488Y-56725783D01*
X132705870Y-56767213D01*
X132439708Y-56862397D01*
X132314486Y-56929329D01*
X132242903Y-57173298D01*
X131961118Y-57173298D01*
X131945502Y-57121820D01*
X131886537Y-57011506D01*
X131807185Y-56914815D01*
X131710494Y-56835463D01*
X131600180Y-56776498D01*
X131480482Y-56740188D01*
X131356000Y-56727928D01*
X129756000Y-56727928D01*
X129631518Y-56740188D01*
X129511820Y-56776498D01*
X129401506Y-56835463D01*
X129304815Y-56914815D01*
X129226009Y-57010840D01*
X129226010Y-54728791D01*
X129346802Y-54608000D01*
X152668182Y-54608000D01*
X152792281Y-54694980D01*
G37*
%TD.AperFunction*%
%TD*%
M02*
