M48
; DRILL file {KiCad 5.1.9+dfsg1-1} date Tue May 25 15:42:40 2021
; FORMAT={-:-/ absolute / inch / decimal}
; #@! TF.CreationDate,2021-05-25T15:42:40+02:00
; #@! TF.GenerationSoftware,Kicad,Pcbnew,5.1.9+dfsg1-1
; #@! TF.FileFunction,Plated,1,2,PTH
FMAT,2
INCH
T1C0.0157
T2C0.0315
T3C0.0354
T4C0.0394
%
G90
G05
T1
X4.91Y-2.76
X5.03Y-2.91
X5.08Y-2.6
X5.08Y-2.79
X5.21Y-2.79
X5.22Y-2.39
X5.24Y-1.97
X5.25Y-2.6
X5.27Y-2.73
X5.42Y-2.17
X5.59Y-2.54
X5.6Y-1.97
X5.63Y-2.49
X5.97Y-2.28
X6.0553Y-2.1447
X6.06Y-2.1
X6.06Y-2.2
X6.31Y-2.29
X6.55Y-2.03
X6.84Y-3.58
T2
X5.14Y-2.29
X5.2384Y-2.29
T3
X6.34Y-2.14
X6.44Y-2.14
X6.54Y-2.14
T4
X4.6461Y-2.614
X4.6461Y-2.714
X4.6461Y-2.814
X4.6461Y-2.914
X4.6461Y-3.014
X4.6461Y-3.114
X4.7323Y-3.8425
X4.8323Y-3.8425
X4.9323Y-3.8425
X5.0323Y-3.8425
X6.6291Y-3.8386
X6.7291Y-3.8386
X6.8291Y-3.8386
X6.9291Y-3.8386
T0
M30
