%TF.GenerationSoftware,KiCad,Pcbnew,5.1.9+dfsg1-1*%
%TF.CreationDate,2021-05-25T15:42:46+02:00*%
%TF.ProjectId,vscp-din-wireless-esp32,76736370-2d64-4696-9e2d-776972656c65,rev?*%
%TF.SameCoordinates,Original*%
%TF.FileFunction,Copper,L1,Top*%
%TF.FilePolarity,Positive*%
%FSLAX46Y46*%
G04 Gerber Fmt 4.6, Leading zero omitted, Abs format (unit mm)*
G04 Created by KiCad (PCBNEW 5.1.9+dfsg1-1) date 2021-05-25 15:42:46*
%MOMM*%
%LPD*%
G01*
G04 APERTURE LIST*
%TA.AperFunction,ComponentPad*%
%ADD10C,1.800000*%
%TD*%
%TA.AperFunction,ComponentPad*%
%ADD11R,1.800000X1.800000*%
%TD*%
%TA.AperFunction,SMDPad,CuDef*%
%ADD12R,2.000000X0.900000*%
%TD*%
%TA.AperFunction,SMDPad,CuDef*%
%ADD13R,0.900000X2.000000*%
%TD*%
%TA.AperFunction,SMDPad,CuDef*%
%ADD14R,5.000000X5.000000*%
%TD*%
%TA.AperFunction,ComponentPad*%
%ADD15C,1.600000*%
%TD*%
%TA.AperFunction,ComponentPad*%
%ADD16R,1.600000X1.600000*%
%TD*%
%TA.AperFunction,ComponentPad*%
%ADD17O,1.700000X1.700000*%
%TD*%
%TA.AperFunction,ComponentPad*%
%ADD18R,1.700000X1.700000*%
%TD*%
%TA.AperFunction,ViaPad*%
%ADD19C,0.800000*%
%TD*%
%TA.AperFunction,Conductor*%
%ADD20C,0.250000*%
%TD*%
%TA.AperFunction,Conductor*%
%ADD21C,1.000000*%
%TD*%
%TA.AperFunction,Conductor*%
%ADD22C,0.254000*%
%TD*%
%TA.AperFunction,Conductor*%
%ADD23C,0.100000*%
%TD*%
G04 APERTURE END LIST*
%TO.P,R2,2*%
%TO.N,Net-(D1-Pad2)*%
%TA.AperFunction,SMDPad,CuDef*%
G36*
G01*
X164026001Y-59290000D02*
X163125999Y-59290000D01*
G75*
G02*
X162876000Y-59040001I0J249999D01*
G01*
X162876000Y-58514999D01*
G75*
G02*
X163125999Y-58265000I249999J0D01*
G01*
X164026001Y-58265000D01*
G75*
G02*
X164276000Y-58514999I0J-249999D01*
G01*
X164276000Y-59040001D01*
G75*
G02*
X164026001Y-59290000I-249999J0D01*
G01*
G37*
%TD.AperFunction*%
%TO.P,R2,1*%
%TO.N,VCC*%
%TA.AperFunction,SMDPad,CuDef*%
G36*
G01*
X164026001Y-61115000D02*
X163125999Y-61115000D01*
G75*
G02*
X162876000Y-60865001I0J249999D01*
G01*
X162876000Y-60339999D01*
G75*
G02*
X163125999Y-60090000I249999J0D01*
G01*
X164026001Y-60090000D01*
G75*
G02*
X164276000Y-60339999I0J-249999D01*
G01*
X164276000Y-60865001D01*
G75*
G02*
X164026001Y-61115000I-249999J0D01*
G01*
G37*
%TD.AperFunction*%
%TD*%
D10*
%TO.P,D1,3*%
%TO.N,/leda*%
X166116000Y-54356000D03*
%TO.P,D1,2*%
%TO.N,Net-(D1-Pad2)*%
X163576000Y-54356000D03*
D11*
%TO.P,D1,1*%
%TO.N,/ledb*%
X161036000Y-54356000D03*
%TD*%
D12*
%TO.P,U1,38*%
%TO.N,GND*%
X156820000Y-49396000D03*
%TO.P,U1,37*%
%TO.N,/irq*%
X156820000Y-50666000D03*
%TO.P,U1,36*%
%TO.N,/scl*%
X156820000Y-51936000D03*
%TO.P,U1,35*%
%TO.N,/TXD*%
X156820000Y-53206000D03*
%TO.P,U1,34*%
%TO.N,/RXD*%
X156820000Y-54476000D03*
%TO.P,U1,33*%
%TO.N,/sda*%
X156820000Y-55746000D03*
%TO.P,U1,32*%
%TO.N,Net-(U1-Pad32)*%
X156820000Y-57016000D03*
%TO.P,U1,31*%
%TO.N,/ledb*%
X156820000Y-58286000D03*
%TO.P,U1,30*%
%TO.N,/leda*%
X156820000Y-59556000D03*
%TO.P,U1,29*%
%TO.N,Net-(R1-Pad2)*%
X156820000Y-60826000D03*
%TO.P,U1,28*%
%TO.N,Net-(U1-Pad28)*%
X156820000Y-62096000D03*
%TO.P,U1,27*%
%TO.N,Net-(U1-Pad27)*%
X156820000Y-63366000D03*
%TO.P,U1,26*%
%TO.N,Net-(U1-Pad26)*%
X156820000Y-64636000D03*
%TO.P,U1,25*%
%TO.N,Net-(R5-Pad1)*%
X156820000Y-65906000D03*
D13*
%TO.P,U1,24*%
%TO.N,/gpio2*%
X154035000Y-66906000D03*
%TO.P,U1,23*%
%TO.N,Net-(U1-Pad23)*%
X152765000Y-66906000D03*
%TO.P,U1,22*%
%TO.N,Net-(U1-Pad22)*%
X151495000Y-66906000D03*
%TO.P,U1,21*%
%TO.N,Net-(U1-Pad21)*%
X150225000Y-66906000D03*
%TO.P,U1,20*%
%TO.N,Net-(U1-Pad20)*%
X148955000Y-66906000D03*
%TO.P,U1,19*%
%TO.N,Net-(U1-Pad19)*%
X147685000Y-66906000D03*
%TO.P,U1,18*%
%TO.N,Net-(U1-Pad18)*%
X146415000Y-66906000D03*
%TO.P,U1,17*%
%TO.N,Net-(U1-Pad17)*%
X145145000Y-66906000D03*
%TO.P,U1,16*%
%TO.N,Net-(U1-Pad16)*%
X143875000Y-66906000D03*
%TO.P,U1,15*%
%TO.N,GND*%
X142605000Y-66906000D03*
D12*
%TO.P,U1,14*%
%TO.N,Net-(U1-Pad14)*%
X139820000Y-65906000D03*
%TO.P,U1,13*%
%TO.N,Net-(U1-Pad13)*%
X139820000Y-64636000D03*
%TO.P,U1,12*%
%TO.N,Net-(U1-Pad12)*%
X139820000Y-63366000D03*
%TO.P,U1,11*%
%TO.N,Net-(U1-Pad11)*%
X139820000Y-62096000D03*
%TO.P,U1,10*%
%TO.N,Net-(U1-Pad10)*%
X139820000Y-60826000D03*
%TO.P,U1,9*%
%TO.N,Net-(U1-Pad9)*%
X139820000Y-59556000D03*
%TO.P,U1,8*%
%TO.N,Net-(U1-Pad8)*%
X139820000Y-58286000D03*
%TO.P,U1,7*%
%TO.N,Net-(U1-Pad7)*%
X139820000Y-57016000D03*
%TO.P,U1,6*%
%TO.N,Net-(U1-Pad6)*%
X139820000Y-55746000D03*
%TO.P,U1,5*%
%TO.N,Net-(U1-Pad5)*%
X139820000Y-54476000D03*
%TO.P,U1,4*%
%TO.N,Net-(U1-Pad4)*%
X139820000Y-53206000D03*
%TO.P,U1,3*%
%TO.N,/reset*%
X139820000Y-51936000D03*
%TO.P,U1,2*%
%TO.N,VCC*%
X139820000Y-50666000D03*
%TO.P,U1,1*%
%TO.N,GND*%
X139820000Y-49396000D03*
D14*
%TO.P,U1,39*%
X147320000Y-56896000D03*
%TD*%
%TO.P,R6,2*%
%TO.N,VCC*%
%TA.AperFunction,SMDPad,CuDef*%
G36*
G01*
X160928000Y-50234001D02*
X160928000Y-49333999D01*
G75*
G02*
X161177999Y-49084000I249999J0D01*
G01*
X161703001Y-49084000D01*
G75*
G02*
X161953000Y-49333999I0J-249999D01*
G01*
X161953000Y-50234001D01*
G75*
G02*
X161703001Y-50484000I-249999J0D01*
G01*
X161177999Y-50484000D01*
G75*
G02*
X160928000Y-50234001I0J249999D01*
G01*
G37*
%TD.AperFunction*%
%TO.P,R6,1*%
%TO.N,/irq*%
%TA.AperFunction,SMDPad,CuDef*%
G36*
G01*
X159103000Y-50234001D02*
X159103000Y-49333999D01*
G75*
G02*
X159352999Y-49084000I249999J0D01*
G01*
X159878001Y-49084000D01*
G75*
G02*
X160128000Y-49333999I0J-249999D01*
G01*
X160128000Y-50234001D01*
G75*
G02*
X159878001Y-50484000I-249999J0D01*
G01*
X159352999Y-50484000D01*
G75*
G02*
X159103000Y-50234001I0J249999D01*
G01*
G37*
%TD.AperFunction*%
%TD*%
%TO.P,R8,2*%
%TO.N,VCC*%
%TA.AperFunction,SMDPad,CuDef*%
G36*
G01*
X125672001Y-92056000D02*
X124771999Y-92056000D01*
G75*
G02*
X124522000Y-91806001I0J249999D01*
G01*
X124522000Y-91280999D01*
G75*
G02*
X124771999Y-91031000I249999J0D01*
G01*
X125672001Y-91031000D01*
G75*
G02*
X125922000Y-91280999I0J-249999D01*
G01*
X125922000Y-91806001D01*
G75*
G02*
X125672001Y-92056000I-249999J0D01*
G01*
G37*
%TD.AperFunction*%
%TO.P,R8,1*%
%TO.N,/scl*%
%TA.AperFunction,SMDPad,CuDef*%
G36*
G01*
X125672001Y-93881000D02*
X124771999Y-93881000D01*
G75*
G02*
X124522000Y-93631001I0J249999D01*
G01*
X124522000Y-93105999D01*
G75*
G02*
X124771999Y-92856000I249999J0D01*
G01*
X125672001Y-92856000D01*
G75*
G02*
X125922000Y-93105999I0J-249999D01*
G01*
X125922000Y-93631001D01*
G75*
G02*
X125672001Y-93881000I-249999J0D01*
G01*
G37*
%TD.AperFunction*%
%TD*%
%TO.P,R7,2*%
%TO.N,VCC*%
%TA.AperFunction,SMDPad,CuDef*%
G36*
G01*
X123386001Y-92056000D02*
X122485999Y-92056000D01*
G75*
G02*
X122236000Y-91806001I0J249999D01*
G01*
X122236000Y-91280999D01*
G75*
G02*
X122485999Y-91031000I249999J0D01*
G01*
X123386001Y-91031000D01*
G75*
G02*
X123636000Y-91280999I0J-249999D01*
G01*
X123636000Y-91806001D01*
G75*
G02*
X123386001Y-92056000I-249999J0D01*
G01*
G37*
%TD.AperFunction*%
%TO.P,R7,1*%
%TO.N,/sda*%
%TA.AperFunction,SMDPad,CuDef*%
G36*
G01*
X123386001Y-93881000D02*
X122485999Y-93881000D01*
G75*
G02*
X122236000Y-93631001I0J249999D01*
G01*
X122236000Y-93105999D01*
G75*
G02*
X122485999Y-92856000I249999J0D01*
G01*
X123386001Y-92856000D01*
G75*
G02*
X123636000Y-93105999I0J-249999D01*
G01*
X123636000Y-93631001D01*
G75*
G02*
X123386001Y-93881000I-249999J0D01*
G01*
G37*
%TD.AperFunction*%
%TD*%
%TO.P,R4,2*%
%TO.N,/reset*%
%TA.AperFunction,SMDPad,CuDef*%
G36*
G01*
X135782000Y-54298001D02*
X135782000Y-53397999D01*
G75*
G02*
X136031999Y-53148000I249999J0D01*
G01*
X136557001Y-53148000D01*
G75*
G02*
X136807000Y-53397999I0J-249999D01*
G01*
X136807000Y-54298001D01*
G75*
G02*
X136557001Y-54548000I-249999J0D01*
G01*
X136031999Y-54548000D01*
G75*
G02*
X135782000Y-54298001I0J249999D01*
G01*
G37*
%TD.AperFunction*%
%TO.P,R4,1*%
%TO.N,VCC*%
%TA.AperFunction,SMDPad,CuDef*%
G36*
G01*
X133957000Y-54298001D02*
X133957000Y-53397999D01*
G75*
G02*
X134206999Y-53148000I249999J0D01*
G01*
X134732001Y-53148000D01*
G75*
G02*
X134982000Y-53397999I0J-249999D01*
G01*
X134982000Y-54298001D01*
G75*
G02*
X134732001Y-54548000I-249999J0D01*
G01*
X134206999Y-54548000D01*
G75*
G02*
X133957000Y-54298001I0J249999D01*
G01*
G37*
%TD.AperFunction*%
%TD*%
%TO.P,R5,2*%
%TO.N,/FLASH*%
%TA.AperFunction,SMDPad,CuDef*%
G36*
G01*
X121774000Y-65843999D02*
X121774000Y-66744001D01*
G75*
G02*
X121524001Y-66994000I-249999J0D01*
G01*
X120998999Y-66994000D01*
G75*
G02*
X120749000Y-66744001I0J249999D01*
G01*
X120749000Y-65843999D01*
G75*
G02*
X120998999Y-65594000I249999J0D01*
G01*
X121524001Y-65594000D01*
G75*
G02*
X121774000Y-65843999I0J-249999D01*
G01*
G37*
%TD.AperFunction*%
%TO.P,R5,1*%
%TO.N,Net-(R5-Pad1)*%
%TA.AperFunction,SMDPad,CuDef*%
G36*
G01*
X123599000Y-65843999D02*
X123599000Y-66744001D01*
G75*
G02*
X123349001Y-66994000I-249999J0D01*
G01*
X122823999Y-66994000D01*
G75*
G02*
X122574000Y-66744001I0J249999D01*
G01*
X122574000Y-65843999D01*
G75*
G02*
X122823999Y-65594000I249999J0D01*
G01*
X123349001Y-65594000D01*
G75*
G02*
X123599000Y-65843999I0J-249999D01*
G01*
G37*
%TD.AperFunction*%
%TD*%
%TO.P,R3,2*%
%TO.N,/reset*%
%TA.AperFunction,SMDPad,CuDef*%
G36*
G01*
X122574000Y-74618001D02*
X122574000Y-73717999D01*
G75*
G02*
X122823999Y-73468000I249999J0D01*
G01*
X123349001Y-73468000D01*
G75*
G02*
X123599000Y-73717999I0J-249999D01*
G01*
X123599000Y-74618001D01*
G75*
G02*
X123349001Y-74868000I-249999J0D01*
G01*
X122823999Y-74868000D01*
G75*
G02*
X122574000Y-74618001I0J249999D01*
G01*
G37*
%TD.AperFunction*%
%TO.P,R3,1*%
%TO.N,/RESET*%
%TA.AperFunction,SMDPad,CuDef*%
G36*
G01*
X120749000Y-74618001D02*
X120749000Y-73717999D01*
G75*
G02*
X120998999Y-73468000I249999J0D01*
G01*
X121524001Y-73468000D01*
G75*
G02*
X121774000Y-73717999I0J-249999D01*
G01*
X121774000Y-74618001D01*
G75*
G02*
X121524001Y-74868000I-249999J0D01*
G01*
X120998999Y-74868000D01*
G75*
G02*
X120749000Y-74618001I0J249999D01*
G01*
G37*
%TD.AperFunction*%
%TD*%
%TO.P,R1,2*%
%TO.N,Net-(R1-Pad2)*%
%TA.AperFunction,SMDPad,CuDef*%
G36*
G01*
X160978001Y-61322000D02*
X160077999Y-61322000D01*
G75*
G02*
X159828000Y-61072001I0J249999D01*
G01*
X159828000Y-60546999D01*
G75*
G02*
X160077999Y-60297000I249999J0D01*
G01*
X160978001Y-60297000D01*
G75*
G02*
X161228000Y-60546999I0J-249999D01*
G01*
X161228000Y-61072001D01*
G75*
G02*
X160978001Y-61322000I-249999J0D01*
G01*
G37*
%TD.AperFunction*%
%TO.P,R1,1*%
%TO.N,VCC*%
%TA.AperFunction,SMDPad,CuDef*%
G36*
G01*
X160978001Y-63147000D02*
X160077999Y-63147000D01*
G75*
G02*
X159828000Y-62897001I0J249999D01*
G01*
X159828000Y-62371999D01*
G75*
G02*
X160077999Y-62122000I249999J0D01*
G01*
X160978001Y-62122000D01*
G75*
G02*
X161228000Y-62371999I0J-249999D01*
G01*
X161228000Y-62897001D01*
G75*
G02*
X160978001Y-63147000I-249999J0D01*
G01*
G37*
%TD.AperFunction*%
%TD*%
%TO.P,C4,2*%
%TO.N,GND*%
%TA.AperFunction,SMDPad,CuDef*%
G36*
G01*
X176497000Y-93022000D02*
X175547000Y-93022000D01*
G75*
G02*
X175297000Y-92772000I0J250000D01*
G01*
X175297000Y-92272000D01*
G75*
G02*
X175547000Y-92022000I250000J0D01*
G01*
X176497000Y-92022000D01*
G75*
G02*
X176747000Y-92272000I0J-250000D01*
G01*
X176747000Y-92772000D01*
G75*
G02*
X176497000Y-93022000I-250000J0D01*
G01*
G37*
%TD.AperFunction*%
%TO.P,C4,1*%
%TO.N,VCC*%
%TA.AperFunction,SMDPad,CuDef*%
G36*
G01*
X176497000Y-94922000D02*
X175547000Y-94922000D01*
G75*
G02*
X175297000Y-94672000I0J250000D01*
G01*
X175297000Y-94172000D01*
G75*
G02*
X175547000Y-93922000I250000J0D01*
G01*
X176497000Y-93922000D01*
G75*
G02*
X176747000Y-94172000I0J-250000D01*
G01*
X176747000Y-94672000D01*
G75*
G02*
X176497000Y-94922000I-250000J0D01*
G01*
G37*
%TD.AperFunction*%
%TD*%
%TO.P,C1,2*%
%TO.N,GND*%
%TA.AperFunction,SMDPad,CuDef*%
G36*
G01*
X136619000Y-50350000D02*
X135669000Y-50350000D01*
G75*
G02*
X135419000Y-50100000I0J250000D01*
G01*
X135419000Y-49600000D01*
G75*
G02*
X135669000Y-49350000I250000J0D01*
G01*
X136619000Y-49350000D01*
G75*
G02*
X136869000Y-49600000I0J-250000D01*
G01*
X136869000Y-50100000D01*
G75*
G02*
X136619000Y-50350000I-250000J0D01*
G01*
G37*
%TD.AperFunction*%
%TO.P,C1,1*%
%TO.N,VCC*%
%TA.AperFunction,SMDPad,CuDef*%
G36*
G01*
X136619000Y-52250000D02*
X135669000Y-52250000D01*
G75*
G02*
X135419000Y-52000000I0J250000D01*
G01*
X135419000Y-51500000D01*
G75*
G02*
X135669000Y-51250000I250000J0D01*
G01*
X136619000Y-51250000D01*
G75*
G02*
X136869000Y-51500000I0J-250000D01*
G01*
X136869000Y-52000000D01*
G75*
G02*
X136619000Y-52250000I-250000J0D01*
G01*
G37*
%TD.AperFunction*%
%TD*%
%TO.P,C3,2*%
%TO.N,GND*%
%TA.AperFunction,SMDPad,CuDef*%
G36*
G01*
X135669000Y-57600000D02*
X136619000Y-57600000D01*
G75*
G02*
X136869000Y-57850000I0J-250000D01*
G01*
X136869000Y-58350000D01*
G75*
G02*
X136619000Y-58600000I-250000J0D01*
G01*
X135669000Y-58600000D01*
G75*
G02*
X135419000Y-58350000I0J250000D01*
G01*
X135419000Y-57850000D01*
G75*
G02*
X135669000Y-57600000I250000J0D01*
G01*
G37*
%TD.AperFunction*%
%TO.P,C3,1*%
%TO.N,/reset*%
%TA.AperFunction,SMDPad,CuDef*%
G36*
G01*
X135669000Y-55700000D02*
X136619000Y-55700000D01*
G75*
G02*
X136869000Y-55950000I0J-250000D01*
G01*
X136869000Y-56450000D01*
G75*
G02*
X136619000Y-56700000I-250000J0D01*
G01*
X135669000Y-56700000D01*
G75*
G02*
X135419000Y-56450000I0J250000D01*
G01*
X135419000Y-55950000D01*
G75*
G02*
X135669000Y-55700000I250000J0D01*
G01*
G37*
%TD.AperFunction*%
%TD*%
D15*
%TO.P,C2,2*%
%TO.N,GND*%
X133056000Y-58166000D03*
D16*
%TO.P,C2,1*%
%TO.N,VCC*%
X130556000Y-58166000D03*
%TD*%
D17*
%TO.P,J1,4*%
%TO.N,GND*%
X127820000Y-97600000D03*
%TO.P,J1,3*%
%TO.N,/scl*%
X125280000Y-97600000D03*
%TO.P,J1,2*%
%TO.N,/sda*%
X122740000Y-97600000D03*
D18*
%TO.P,J1,1*%
%TO.N,/irq*%
X120200000Y-97600000D03*
%TD*%
D17*
%TO.P,J2,4*%
%TO.N,Net-(J2-Pad4)*%
X176000000Y-97500000D03*
%TO.P,J2,3*%
%TO.N,Net-(J2-Pad3)*%
X173460000Y-97500000D03*
%TO.P,J2,2*%
%TO.N,VCC*%
X170920000Y-97500000D03*
D18*
%TO.P,J2,1*%
%TO.N,GND*%
X168380000Y-97500000D03*
%TD*%
D17*
%TO.P,J3,6*%
%TO.N,GND*%
X118010600Y-79095000D03*
%TO.P,J3,5*%
%TO.N,VCC*%
X118010600Y-76555000D03*
%TO.P,J3,4*%
%TO.N,/RESET*%
X118010600Y-74015000D03*
%TO.P,J3,3*%
%TO.N,/RXD*%
X118010600Y-71475000D03*
%TO.P,J3,2*%
%TO.N,/TXD*%
X118010600Y-68935000D03*
D18*
%TO.P,J3,1*%
%TO.N,/FLASH*%
X118010600Y-66395000D03*
%TD*%
D19*
%TO.N,GND*%
X151638000Y-57912000D03*
X133096000Y-50038000D03*
X142240000Y-50038000D03*
X173736000Y-90932000D03*
X127762000Y-73914000D03*
X124714000Y-70104000D03*
X160274000Y-58166000D03*
X166370000Y-51562000D03*
X137668000Y-55118000D03*
X132588000Y-60706000D03*
X133858000Y-69342000D03*
%TO.N,/reset*%
X132334000Y-70866000D03*
X129032000Y-70866000D03*
%TO.N,/sda*%
X153924000Y-55880000D03*
%TO.N,/scl*%
X143002000Y-63246000D03*
%TO.N,/TXD*%
X153924000Y-53340000D03*
%TO.N,/RXD*%
X153804000Y-54476000D03*
%TO.N,/irq*%
X141986000Y-64516000D03*
%TO.N,Net-(R5-Pad1)*%
X133350000Y-66040000D03*
X129032000Y-66040000D03*
%TD*%
D20*
%TO.N,*%
X160528000Y-49530000D02*
X160453010Y-49530000D01*
D21*
%TO.N,VCC*%
X134469500Y-52474500D02*
X134469500Y-53848000D01*
X135194000Y-51750000D02*
X134469500Y-52474500D01*
D20*
X136144000Y-51750000D02*
X136972000Y-51750000D01*
D21*
X138056000Y-50666000D02*
X139820000Y-50666000D01*
X136972000Y-51750000D02*
X138056000Y-50666000D01*
X136144000Y-51750000D02*
X135570000Y-51750000D01*
D20*
X135570000Y-51750000D02*
X135194000Y-51750000D01*
D21*
X130556000Y-58166000D02*
X130556000Y-54864000D01*
X131572000Y-53848000D02*
X134469500Y-53848000D01*
X130556000Y-54864000D02*
X131572000Y-53848000D01*
X161440500Y-49784000D02*
X167386000Y-49784000D01*
X167386000Y-49784000D02*
X168148000Y-50546000D01*
X168148000Y-50546000D02*
X168148000Y-59436000D01*
X166981500Y-60602500D02*
X163576000Y-60602500D01*
X176022000Y-94422000D02*
X178882000Y-94422000D01*
X178882000Y-94422000D02*
X179070000Y-94234000D01*
X179070000Y-94234000D02*
X179070000Y-67310000D01*
X179070000Y-67310000D02*
X177546000Y-65786000D01*
X177546000Y-65786000D02*
X168148000Y-65786000D01*
X168148000Y-65786000D02*
X167640000Y-65278000D01*
X167640000Y-59944000D02*
X167894000Y-59690000D01*
X167640000Y-65278000D02*
X167640000Y-59944000D01*
X167894000Y-59690000D02*
X166981500Y-60602500D01*
D20*
X168148000Y-59436000D02*
X167894000Y-59690000D01*
D21*
X160528000Y-62634500D02*
X163171500Y-62634500D01*
X163576000Y-62230000D02*
X163576000Y-60602500D01*
X163171500Y-62634500D02*
X163576000Y-62230000D01*
X122936000Y-91543500D02*
X125222000Y-91543500D01*
X125222000Y-91543500D02*
X171045500Y-91543500D01*
X173924000Y-94422000D02*
X176022000Y-94422000D01*
X122936000Y-91543500D02*
X122936000Y-78486000D01*
X121005000Y-76555000D02*
X118010600Y-76555000D01*
X122936000Y-78486000D02*
X121005000Y-76555000D01*
X121005000Y-76555000D02*
X128423000Y-76555000D01*
X130556000Y-74422000D02*
X130556000Y-58166000D01*
X128423000Y-76555000D02*
X130556000Y-74422000D01*
X170920000Y-97500000D02*
X170920000Y-95272000D01*
X172593000Y-93599000D02*
X173101000Y-93599000D01*
X170920000Y-95272000D02*
X172593000Y-93599000D01*
X173101000Y-93599000D02*
X173924000Y-94422000D01*
X171045500Y-91543500D02*
X173101000Y-93599000D01*
D20*
%TO.N,/reset*%
X138818000Y-51936000D02*
X139820000Y-51936000D01*
X136906000Y-53848000D02*
X138818000Y-51936000D01*
X136294500Y-53848000D02*
X136906000Y-53848000D01*
X136144000Y-53998500D02*
X136294500Y-53848000D01*
X136144000Y-56200000D02*
X136144000Y-53998500D01*
X123086500Y-74168000D02*
X124714000Y-74168000D01*
X128016000Y-70866000D02*
X129032000Y-70866000D01*
X124714000Y-74168000D02*
X128016000Y-70866000D01*
X132334000Y-63500000D02*
X132334000Y-70866000D01*
X133552190Y-62230000D02*
X132334000Y-63500000D01*
X137194010Y-58588180D02*
X133552190Y-62230000D01*
X137194010Y-56422010D02*
X137194010Y-58588180D01*
X136972000Y-56200000D02*
X137194010Y-56422010D01*
X136144000Y-56200000D02*
X136972000Y-56200000D01*
%TO.N,/leda*%
X155938000Y-59944000D02*
X157188000Y-59944000D01*
X156879010Y-59615010D02*
X164412990Y-59615010D01*
X156820000Y-59556000D02*
X156879010Y-59615010D01*
X166116000Y-57912000D02*
X166116000Y-54356000D01*
X164412990Y-59615010D02*
X166116000Y-57912000D01*
%TO.N,/ledb*%
X155938000Y-58674000D02*
X157188000Y-58674000D01*
X161036000Y-55320000D02*
X161036000Y-54356000D01*
X158070000Y-58286000D02*
X161036000Y-55320000D01*
X156820000Y-58286000D02*
X158070000Y-58286000D01*
D21*
%TO.N,/sda*%
X122936000Y-97404000D02*
X122740000Y-97600000D01*
X122936000Y-93368500D02*
X122936000Y-97404000D01*
D20*
X155436000Y-55880000D02*
X153924000Y-55880000D01*
X155570000Y-55746000D02*
X155436000Y-55880000D01*
X156820000Y-55746000D02*
X155570000Y-55746000D01*
D21*
%TO.N,/scl*%
X125222000Y-97542000D02*
X125280000Y-97600000D01*
X125222000Y-93368500D02*
X125222000Y-97542000D01*
D20*
X156820000Y-51936000D02*
X144152000Y-51936000D01*
X143002000Y-53086000D02*
X143002000Y-63246000D01*
X144152000Y-51936000D02*
X143002000Y-53086000D01*
%TO.N,/FLASH*%
X121160500Y-66395000D02*
X121261500Y-66294000D01*
X118010600Y-66395000D02*
X121160500Y-66395000D01*
%TO.N,/TXD*%
X156686000Y-53340000D02*
X156820000Y-53206000D01*
X153924000Y-53340000D02*
X156686000Y-53340000D01*
%TO.N,/RXD*%
X153804000Y-54476000D02*
X156820000Y-54476000D01*
%TO.N,/RESET*%
X121108500Y-74015000D02*
X121261500Y-74168000D01*
X118010600Y-74015000D02*
X121108500Y-74015000D01*
%TO.N,Net-(R1-Pad2)*%
X160511500Y-60826000D02*
X160528000Y-60809500D01*
X156820000Y-60826000D02*
X160511500Y-60826000D01*
%TO.N,/irq*%
X158733500Y-50666000D02*
X159615500Y-49784000D01*
X156820000Y-50666000D02*
X158733500Y-50666000D01*
X156820000Y-50666000D02*
X143898000Y-50666000D01*
X143898000Y-50666000D02*
X142240000Y-52324000D01*
X141829999Y-64359999D02*
X141986000Y-64516000D01*
X141829999Y-52734001D02*
X141829999Y-64359999D01*
X142240000Y-52324000D02*
X141829999Y-52734001D01*
%TO.N,Net-(D1-Pad2)*%
X163576000Y-58777500D02*
X163576000Y-54356000D01*
%TO.N,Net-(R5-Pad1)*%
X156820000Y-65906000D02*
X156820000Y-67208000D01*
X156820000Y-67208000D02*
X154940000Y-69088000D01*
X154940000Y-69088000D02*
X136144000Y-69088000D01*
X133350000Y-66294000D02*
X133350000Y-66040000D01*
X136144000Y-69088000D02*
X133350000Y-66294000D01*
X123340500Y-66040000D02*
X123086500Y-66294000D01*
X129032000Y-66040000D02*
X123340500Y-66040000D01*
%TD*%
D22*
%TO.N,GND*%
X171241868Y-93345000D02*
X170156860Y-94430009D01*
X170113552Y-94465551D01*
X169971717Y-94638377D01*
X169929384Y-94717577D01*
X169866324Y-94835554D01*
X169801423Y-95049502D01*
X169779509Y-95272000D01*
X169785001Y-95327761D01*
X169785001Y-96341273D01*
X169760537Y-96295506D01*
X169681185Y-96198815D01*
X169584494Y-96119463D01*
X169474180Y-96060498D01*
X169354482Y-96024188D01*
X169230000Y-96011928D01*
X168665750Y-96015000D01*
X168507000Y-96173750D01*
X168507000Y-97373000D01*
X168527000Y-97373000D01*
X168527000Y-97627000D01*
X168507000Y-97627000D01*
X168507000Y-97647000D01*
X168253000Y-97647000D01*
X168253000Y-97627000D01*
X167053750Y-97627000D01*
X166895000Y-97785750D01*
X166891928Y-98350000D01*
X166904188Y-98474482D01*
X166940498Y-98594180D01*
X166985836Y-98679000D01*
X128837024Y-98679000D01*
X129015178Y-98481355D01*
X129164157Y-98231252D01*
X129261481Y-97956891D01*
X129140814Y-97727000D01*
X127947000Y-97727000D01*
X127947000Y-97747000D01*
X127693000Y-97747000D01*
X127693000Y-97727000D01*
X127673000Y-97727000D01*
X127673000Y-97473000D01*
X127693000Y-97473000D01*
X127693000Y-96279845D01*
X127947000Y-96279845D01*
X127947000Y-97473000D01*
X129140814Y-97473000D01*
X129261481Y-97243109D01*
X129164157Y-96968748D01*
X129015178Y-96718645D01*
X128953303Y-96650000D01*
X166891928Y-96650000D01*
X166895000Y-97214250D01*
X167053750Y-97373000D01*
X168253000Y-97373000D01*
X168253000Y-96173750D01*
X168094250Y-96015000D01*
X167530000Y-96011928D01*
X167405518Y-96024188D01*
X167285820Y-96060498D01*
X167175506Y-96119463D01*
X167078815Y-96198815D01*
X166999463Y-96295506D01*
X166940498Y-96405820D01*
X166904188Y-96525518D01*
X166891928Y-96650000D01*
X128953303Y-96650000D01*
X128820269Y-96502412D01*
X128586920Y-96328359D01*
X128324099Y-96203175D01*
X128176890Y-96158524D01*
X127947000Y-96279845D01*
X127693000Y-96279845D01*
X127463110Y-96158524D01*
X127315901Y-96203175D01*
X127053080Y-96328359D01*
X126819731Y-96502412D01*
X126624822Y-96718645D01*
X126555195Y-96835534D01*
X126433475Y-96653368D01*
X126357000Y-96576893D01*
X126357000Y-94189461D01*
X126410405Y-94124387D01*
X126492472Y-93970851D01*
X126543008Y-93804255D01*
X126560072Y-93631001D01*
X126560072Y-93105999D01*
X126543008Y-92932745D01*
X126492472Y-92766149D01*
X126445622Y-92678500D01*
X170575369Y-92678500D01*
X171241868Y-93345000D01*
%TA.AperFunction,Conductor*%
D23*
G36*
X171241868Y-93345000D02*
G01*
X170156860Y-94430009D01*
X170113552Y-94465551D01*
X169971717Y-94638377D01*
X169929384Y-94717577D01*
X169866324Y-94835554D01*
X169801423Y-95049502D01*
X169779509Y-95272000D01*
X169785001Y-95327761D01*
X169785001Y-96341273D01*
X169760537Y-96295506D01*
X169681185Y-96198815D01*
X169584494Y-96119463D01*
X169474180Y-96060498D01*
X169354482Y-96024188D01*
X169230000Y-96011928D01*
X168665750Y-96015000D01*
X168507000Y-96173750D01*
X168507000Y-97373000D01*
X168527000Y-97373000D01*
X168527000Y-97627000D01*
X168507000Y-97627000D01*
X168507000Y-97647000D01*
X168253000Y-97647000D01*
X168253000Y-97627000D01*
X167053750Y-97627000D01*
X166895000Y-97785750D01*
X166891928Y-98350000D01*
X166904188Y-98474482D01*
X166940498Y-98594180D01*
X166985836Y-98679000D01*
X128837024Y-98679000D01*
X129015178Y-98481355D01*
X129164157Y-98231252D01*
X129261481Y-97956891D01*
X129140814Y-97727000D01*
X127947000Y-97727000D01*
X127947000Y-97747000D01*
X127693000Y-97747000D01*
X127693000Y-97727000D01*
X127673000Y-97727000D01*
X127673000Y-97473000D01*
X127693000Y-97473000D01*
X127693000Y-96279845D01*
X127947000Y-96279845D01*
X127947000Y-97473000D01*
X129140814Y-97473000D01*
X129261481Y-97243109D01*
X129164157Y-96968748D01*
X129015178Y-96718645D01*
X128953303Y-96650000D01*
X166891928Y-96650000D01*
X166895000Y-97214250D01*
X167053750Y-97373000D01*
X168253000Y-97373000D01*
X168253000Y-96173750D01*
X168094250Y-96015000D01*
X167530000Y-96011928D01*
X167405518Y-96024188D01*
X167285820Y-96060498D01*
X167175506Y-96119463D01*
X167078815Y-96198815D01*
X166999463Y-96295506D01*
X166940498Y-96405820D01*
X166904188Y-96525518D01*
X166891928Y-96650000D01*
X128953303Y-96650000D01*
X128820269Y-96502412D01*
X128586920Y-96328359D01*
X128324099Y-96203175D01*
X128176890Y-96158524D01*
X127947000Y-96279845D01*
X127693000Y-96279845D01*
X127463110Y-96158524D01*
X127315901Y-96203175D01*
X127053080Y-96328359D01*
X126819731Y-96502412D01*
X126624822Y-96718645D01*
X126555195Y-96835534D01*
X126433475Y-96653368D01*
X126357000Y-96576893D01*
X126357000Y-94189461D01*
X126410405Y-94124387D01*
X126492472Y-93970851D01*
X126543008Y-93804255D01*
X126560072Y-93631001D01*
X126560072Y-93105999D01*
X126543008Y-92932745D01*
X126492472Y-92766149D01*
X126445622Y-92678500D01*
X170575369Y-92678500D01*
X171241868Y-93345000D01*
G37*
%TD.AperFunction*%
D22*
X116709415Y-65093815D02*
X116630063Y-65190506D01*
X116571098Y-65300820D01*
X116534788Y-65420518D01*
X116522528Y-65545000D01*
X116522528Y-67245000D01*
X116534788Y-67369482D01*
X116571098Y-67489180D01*
X116630063Y-67599494D01*
X116709415Y-67696185D01*
X116806106Y-67775537D01*
X116916420Y-67834502D01*
X116988980Y-67856513D01*
X116857125Y-67988368D01*
X116694610Y-68231589D01*
X116582668Y-68501842D01*
X116525600Y-68788740D01*
X116525600Y-69081260D01*
X116582668Y-69368158D01*
X116694610Y-69638411D01*
X116857125Y-69881632D01*
X117063968Y-70088475D01*
X117238360Y-70205000D01*
X117063968Y-70321525D01*
X116857125Y-70528368D01*
X116694610Y-70771589D01*
X116582668Y-71041842D01*
X116525600Y-71328740D01*
X116525600Y-71621260D01*
X116582668Y-71908158D01*
X116694610Y-72178411D01*
X116857125Y-72421632D01*
X117063968Y-72628475D01*
X117238360Y-72745000D01*
X117063968Y-72861525D01*
X116857125Y-73068368D01*
X116694610Y-73311589D01*
X116582668Y-73581842D01*
X116525600Y-73868740D01*
X116525600Y-74161260D01*
X116582668Y-74448158D01*
X116694610Y-74718411D01*
X116857125Y-74961632D01*
X117063968Y-75168475D01*
X117238360Y-75285000D01*
X117063968Y-75401525D01*
X116857125Y-75608368D01*
X116694610Y-75851589D01*
X116582668Y-76121842D01*
X116525600Y-76408740D01*
X116525600Y-76701260D01*
X116582668Y-76988158D01*
X116694610Y-77258411D01*
X116857125Y-77501632D01*
X117063968Y-77708475D01*
X117246134Y-77830195D01*
X117129245Y-77899822D01*
X116913012Y-78094731D01*
X116738959Y-78328080D01*
X116613775Y-78590901D01*
X116569124Y-78738110D01*
X116690445Y-78968000D01*
X117883600Y-78968000D01*
X117883600Y-78948000D01*
X118137600Y-78948000D01*
X118137600Y-78968000D01*
X119330755Y-78968000D01*
X119452076Y-78738110D01*
X119407425Y-78590901D01*
X119282241Y-78328080D01*
X119108188Y-78094731D01*
X118891955Y-77899822D01*
X118775066Y-77830195D01*
X118957232Y-77708475D01*
X118975707Y-77690000D01*
X120534869Y-77690000D01*
X121801001Y-78956133D01*
X121801000Y-90722539D01*
X121747595Y-90787613D01*
X121665528Y-90941149D01*
X121614992Y-91107745D01*
X121597928Y-91280999D01*
X121597928Y-91806001D01*
X121614992Y-91979255D01*
X121665528Y-92145851D01*
X121747595Y-92299387D01*
X121858038Y-92433962D01*
X121884891Y-92456000D01*
X121858038Y-92478038D01*
X121747595Y-92612613D01*
X121665528Y-92766149D01*
X121614992Y-92932745D01*
X121597928Y-93105999D01*
X121597928Y-93631001D01*
X121614992Y-93804255D01*
X121665528Y-93970851D01*
X121747595Y-94124387D01*
X121801000Y-94189461D01*
X121801001Y-96441425D01*
X121793368Y-96446525D01*
X121661513Y-96578380D01*
X121639502Y-96505820D01*
X121580537Y-96395506D01*
X121501185Y-96298815D01*
X121404494Y-96219463D01*
X121294180Y-96160498D01*
X121174482Y-96124188D01*
X121050000Y-96111928D01*
X119350000Y-96111928D01*
X119225518Y-96124188D01*
X119105820Y-96160498D01*
X118995506Y-96219463D01*
X118898815Y-96298815D01*
X118819463Y-96395506D01*
X118760498Y-96505820D01*
X118724188Y-96625518D01*
X118711928Y-96750000D01*
X118711928Y-98450000D01*
X118724188Y-98574482D01*
X118755893Y-98679000D01*
X116360000Y-98679000D01*
X116360000Y-79451890D01*
X116569124Y-79451890D01*
X116613775Y-79599099D01*
X116738959Y-79861920D01*
X116913012Y-80095269D01*
X117129245Y-80290178D01*
X117379348Y-80439157D01*
X117653709Y-80536481D01*
X117883600Y-80415814D01*
X117883600Y-79222000D01*
X118137600Y-79222000D01*
X118137600Y-80415814D01*
X118367491Y-80536481D01*
X118641852Y-80439157D01*
X118891955Y-80290178D01*
X119108188Y-80095269D01*
X119282241Y-79861920D01*
X119407425Y-79599099D01*
X119452076Y-79451890D01*
X119330755Y-79222000D01*
X118137600Y-79222000D01*
X117883600Y-79222000D01*
X116690445Y-79222000D01*
X116569124Y-79451890D01*
X116360000Y-79451890D01*
X116360000Y-65060000D01*
X116750619Y-65060000D01*
X116709415Y-65093815D01*
%TA.AperFunction,Conductor*%
D23*
G36*
X116709415Y-65093815D02*
G01*
X116630063Y-65190506D01*
X116571098Y-65300820D01*
X116534788Y-65420518D01*
X116522528Y-65545000D01*
X116522528Y-67245000D01*
X116534788Y-67369482D01*
X116571098Y-67489180D01*
X116630063Y-67599494D01*
X116709415Y-67696185D01*
X116806106Y-67775537D01*
X116916420Y-67834502D01*
X116988980Y-67856513D01*
X116857125Y-67988368D01*
X116694610Y-68231589D01*
X116582668Y-68501842D01*
X116525600Y-68788740D01*
X116525600Y-69081260D01*
X116582668Y-69368158D01*
X116694610Y-69638411D01*
X116857125Y-69881632D01*
X117063968Y-70088475D01*
X117238360Y-70205000D01*
X117063968Y-70321525D01*
X116857125Y-70528368D01*
X116694610Y-70771589D01*
X116582668Y-71041842D01*
X116525600Y-71328740D01*
X116525600Y-71621260D01*
X116582668Y-71908158D01*
X116694610Y-72178411D01*
X116857125Y-72421632D01*
X117063968Y-72628475D01*
X117238360Y-72745000D01*
X117063968Y-72861525D01*
X116857125Y-73068368D01*
X116694610Y-73311589D01*
X116582668Y-73581842D01*
X116525600Y-73868740D01*
X116525600Y-74161260D01*
X116582668Y-74448158D01*
X116694610Y-74718411D01*
X116857125Y-74961632D01*
X117063968Y-75168475D01*
X117238360Y-75285000D01*
X117063968Y-75401525D01*
X116857125Y-75608368D01*
X116694610Y-75851589D01*
X116582668Y-76121842D01*
X116525600Y-76408740D01*
X116525600Y-76701260D01*
X116582668Y-76988158D01*
X116694610Y-77258411D01*
X116857125Y-77501632D01*
X117063968Y-77708475D01*
X117246134Y-77830195D01*
X117129245Y-77899822D01*
X116913012Y-78094731D01*
X116738959Y-78328080D01*
X116613775Y-78590901D01*
X116569124Y-78738110D01*
X116690445Y-78968000D01*
X117883600Y-78968000D01*
X117883600Y-78948000D01*
X118137600Y-78948000D01*
X118137600Y-78968000D01*
X119330755Y-78968000D01*
X119452076Y-78738110D01*
X119407425Y-78590901D01*
X119282241Y-78328080D01*
X119108188Y-78094731D01*
X118891955Y-77899822D01*
X118775066Y-77830195D01*
X118957232Y-77708475D01*
X118975707Y-77690000D01*
X120534869Y-77690000D01*
X121801001Y-78956133D01*
X121801000Y-90722539D01*
X121747595Y-90787613D01*
X121665528Y-90941149D01*
X121614992Y-91107745D01*
X121597928Y-91280999D01*
X121597928Y-91806001D01*
X121614992Y-91979255D01*
X121665528Y-92145851D01*
X121747595Y-92299387D01*
X121858038Y-92433962D01*
X121884891Y-92456000D01*
X121858038Y-92478038D01*
X121747595Y-92612613D01*
X121665528Y-92766149D01*
X121614992Y-92932745D01*
X121597928Y-93105999D01*
X121597928Y-93631001D01*
X121614992Y-93804255D01*
X121665528Y-93970851D01*
X121747595Y-94124387D01*
X121801000Y-94189461D01*
X121801001Y-96441425D01*
X121793368Y-96446525D01*
X121661513Y-96578380D01*
X121639502Y-96505820D01*
X121580537Y-96395506D01*
X121501185Y-96298815D01*
X121404494Y-96219463D01*
X121294180Y-96160498D01*
X121174482Y-96124188D01*
X121050000Y-96111928D01*
X119350000Y-96111928D01*
X119225518Y-96124188D01*
X119105820Y-96160498D01*
X118995506Y-96219463D01*
X118898815Y-96298815D01*
X118819463Y-96395506D01*
X118760498Y-96505820D01*
X118724188Y-96625518D01*
X118711928Y-96750000D01*
X118711928Y-98450000D01*
X118724188Y-98574482D01*
X118755893Y-98679000D01*
X116360000Y-98679000D01*
X116360000Y-79451890D01*
X116569124Y-79451890D01*
X116613775Y-79599099D01*
X116738959Y-79861920D01*
X116913012Y-80095269D01*
X117129245Y-80290178D01*
X117379348Y-80439157D01*
X117653709Y-80536481D01*
X117883600Y-80415814D01*
X117883600Y-79222000D01*
X118137600Y-79222000D01*
X118137600Y-80415814D01*
X118367491Y-80536481D01*
X118641852Y-80439157D01*
X118891955Y-80290178D01*
X119108188Y-80095269D01*
X119282241Y-79861920D01*
X119407425Y-79599099D01*
X119452076Y-79451890D01*
X119330755Y-79222000D01*
X118137600Y-79222000D01*
X117883600Y-79222000D01*
X116690445Y-79222000D01*
X116569124Y-79451890D01*
X116360000Y-79451890D01*
X116360000Y-65060000D01*
X116750619Y-65060000D01*
X116709415Y-65093815D01*
G37*
%TD.AperFunction*%
D22*
X159450038Y-61699962D02*
X159476891Y-61722000D01*
X159450038Y-61744038D01*
X159339595Y-61878613D01*
X159257528Y-62032149D01*
X159206992Y-62198745D01*
X159189928Y-62371999D01*
X159189928Y-62897001D01*
X159206992Y-63070255D01*
X159257528Y-63236851D01*
X159339595Y-63390387D01*
X159450038Y-63524962D01*
X159584613Y-63635405D01*
X159738149Y-63717472D01*
X159904745Y-63768008D01*
X160077999Y-63785072D01*
X160978001Y-63785072D01*
X161136106Y-63769500D01*
X163115749Y-63769500D01*
X163171500Y-63774991D01*
X163227251Y-63769500D01*
X163227252Y-63769500D01*
X163393999Y-63753077D01*
X163607947Y-63688176D01*
X163805123Y-63582784D01*
X163977949Y-63440949D01*
X164013496Y-63397635D01*
X164339135Y-63071996D01*
X164382449Y-63036449D01*
X164524284Y-62863623D01*
X164629676Y-62666447D01*
X164694577Y-62452499D01*
X164711000Y-62285752D01*
X164711000Y-62285743D01*
X164716490Y-62230001D01*
X164711000Y-62174259D01*
X164711000Y-61737500D01*
X166505001Y-61737500D01*
X166505000Y-65222248D01*
X166499509Y-65278000D01*
X166505000Y-65333751D01*
X166521423Y-65500498D01*
X166586324Y-65714446D01*
X166691716Y-65911623D01*
X166833551Y-66084449D01*
X166876865Y-66119996D01*
X167306004Y-66549135D01*
X167341551Y-66592449D01*
X167514377Y-66734284D01*
X167711553Y-66839676D01*
X167925501Y-66904577D01*
X168092248Y-66921000D01*
X168092257Y-66921000D01*
X168147999Y-66926490D01*
X168203741Y-66921000D01*
X177075869Y-66921000D01*
X177935001Y-67780133D01*
X177935000Y-93287000D01*
X177325373Y-93287000D01*
X177336502Y-93266180D01*
X177372812Y-93146482D01*
X177385072Y-93022000D01*
X177382000Y-92807750D01*
X177223250Y-92649000D01*
X176149000Y-92649000D01*
X176149000Y-92669000D01*
X175895000Y-92669000D01*
X175895000Y-92649000D01*
X174820750Y-92649000D01*
X174662000Y-92807750D01*
X174658928Y-93022000D01*
X174671188Y-93146482D01*
X174707498Y-93266180D01*
X174718627Y-93287000D01*
X174394132Y-93287000D01*
X173942995Y-92835864D01*
X173907449Y-92792551D01*
X173864141Y-92757009D01*
X173129132Y-92022000D01*
X174658928Y-92022000D01*
X174662000Y-92236250D01*
X174820750Y-92395000D01*
X175895000Y-92395000D01*
X175895000Y-91545750D01*
X176149000Y-91545750D01*
X176149000Y-92395000D01*
X177223250Y-92395000D01*
X177382000Y-92236250D01*
X177385072Y-92022000D01*
X177372812Y-91897518D01*
X177336502Y-91777820D01*
X177277537Y-91667506D01*
X177198185Y-91570815D01*
X177101494Y-91491463D01*
X176991180Y-91432498D01*
X176871482Y-91396188D01*
X176747000Y-91383928D01*
X176307750Y-91387000D01*
X176149000Y-91545750D01*
X175895000Y-91545750D01*
X175736250Y-91387000D01*
X175297000Y-91383928D01*
X175172518Y-91396188D01*
X175052820Y-91432498D01*
X174942506Y-91491463D01*
X174845815Y-91570815D01*
X174766463Y-91667506D01*
X174707498Y-91777820D01*
X174671188Y-91897518D01*
X174658928Y-92022000D01*
X173129132Y-92022000D01*
X171887496Y-90780365D01*
X171851949Y-90737051D01*
X171679123Y-90595216D01*
X171481947Y-90489824D01*
X171267999Y-90424923D01*
X171101252Y-90408500D01*
X171101251Y-90408500D01*
X171045500Y-90403009D01*
X170989749Y-90408500D01*
X125830106Y-90408500D01*
X125672001Y-90392928D01*
X124771999Y-90392928D01*
X124613894Y-90408500D01*
X124071000Y-90408500D01*
X124071000Y-78541741D01*
X124076490Y-78485999D01*
X124071000Y-78430257D01*
X124071000Y-78430248D01*
X124054577Y-78263501D01*
X123989676Y-78049553D01*
X123884284Y-77852377D01*
X123751024Y-77690000D01*
X128367249Y-77690000D01*
X128423000Y-77695491D01*
X128478751Y-77690000D01*
X128478752Y-77690000D01*
X128645499Y-77673577D01*
X128859447Y-77608676D01*
X129056623Y-77503284D01*
X129229449Y-77361449D01*
X129264996Y-77318136D01*
X131319146Y-75263987D01*
X131362449Y-75228449D01*
X131445651Y-75127068D01*
X131504284Y-75055623D01*
X131609676Y-74858447D01*
X131674577Y-74644499D01*
X131696491Y-74422000D01*
X131691000Y-74366248D01*
X131691000Y-71681145D01*
X131843744Y-71783205D01*
X132032102Y-71861226D01*
X132232061Y-71901000D01*
X132435939Y-71901000D01*
X132635898Y-71861226D01*
X132824256Y-71783205D01*
X132993774Y-71669937D01*
X133137937Y-71525774D01*
X133251205Y-71356256D01*
X133329226Y-71167898D01*
X133369000Y-70967939D01*
X133369000Y-70764061D01*
X133329226Y-70564102D01*
X133251205Y-70375744D01*
X133137937Y-70206226D01*
X133094000Y-70162289D01*
X133094000Y-67112801D01*
X135580201Y-69599003D01*
X135603999Y-69628001D01*
X135719724Y-69722974D01*
X135851753Y-69793546D01*
X135995014Y-69837003D01*
X136106667Y-69848000D01*
X136106675Y-69848000D01*
X136144000Y-69851676D01*
X136181325Y-69848000D01*
X154902678Y-69848000D01*
X154940000Y-69851676D01*
X154977322Y-69848000D01*
X154977333Y-69848000D01*
X155088986Y-69837003D01*
X155232247Y-69793546D01*
X155364276Y-69722974D01*
X155480001Y-69628001D01*
X155503803Y-69598998D01*
X157331008Y-67771795D01*
X157360001Y-67748001D01*
X157383795Y-67719008D01*
X157383799Y-67719004D01*
X157454973Y-67632277D01*
X157455083Y-67632072D01*
X157525546Y-67500247D01*
X157569003Y-67356986D01*
X157580000Y-67245333D01*
X157580000Y-67245324D01*
X157583676Y-67208001D01*
X157580000Y-67170678D01*
X157580000Y-66994072D01*
X157820000Y-66994072D01*
X157944482Y-66981812D01*
X158064180Y-66945502D01*
X158174494Y-66886537D01*
X158271185Y-66807185D01*
X158350537Y-66710494D01*
X158409502Y-66600180D01*
X158445812Y-66480482D01*
X158458072Y-66356000D01*
X158458072Y-65456000D01*
X158445812Y-65331518D01*
X158427454Y-65271000D01*
X158445812Y-65210482D01*
X158458072Y-65086000D01*
X158458072Y-64186000D01*
X158445812Y-64061518D01*
X158427454Y-64001000D01*
X158445812Y-63940482D01*
X158458072Y-63816000D01*
X158458072Y-62916000D01*
X158445812Y-62791518D01*
X158427454Y-62731000D01*
X158445812Y-62670482D01*
X158458072Y-62546000D01*
X158458072Y-61646000D01*
X158452163Y-61586000D01*
X159356512Y-61586000D01*
X159450038Y-61699962D01*
%TA.AperFunction,Conductor*%
D23*
G36*
X159450038Y-61699962D02*
G01*
X159476891Y-61722000D01*
X159450038Y-61744038D01*
X159339595Y-61878613D01*
X159257528Y-62032149D01*
X159206992Y-62198745D01*
X159189928Y-62371999D01*
X159189928Y-62897001D01*
X159206992Y-63070255D01*
X159257528Y-63236851D01*
X159339595Y-63390387D01*
X159450038Y-63524962D01*
X159584613Y-63635405D01*
X159738149Y-63717472D01*
X159904745Y-63768008D01*
X160077999Y-63785072D01*
X160978001Y-63785072D01*
X161136106Y-63769500D01*
X163115749Y-63769500D01*
X163171500Y-63774991D01*
X163227251Y-63769500D01*
X163227252Y-63769500D01*
X163393999Y-63753077D01*
X163607947Y-63688176D01*
X163805123Y-63582784D01*
X163977949Y-63440949D01*
X164013496Y-63397635D01*
X164339135Y-63071996D01*
X164382449Y-63036449D01*
X164524284Y-62863623D01*
X164629676Y-62666447D01*
X164694577Y-62452499D01*
X164711000Y-62285752D01*
X164711000Y-62285743D01*
X164716490Y-62230001D01*
X164711000Y-62174259D01*
X164711000Y-61737500D01*
X166505001Y-61737500D01*
X166505000Y-65222248D01*
X166499509Y-65278000D01*
X166505000Y-65333751D01*
X166521423Y-65500498D01*
X166586324Y-65714446D01*
X166691716Y-65911623D01*
X166833551Y-66084449D01*
X166876865Y-66119996D01*
X167306004Y-66549135D01*
X167341551Y-66592449D01*
X167514377Y-66734284D01*
X167711553Y-66839676D01*
X167925501Y-66904577D01*
X168092248Y-66921000D01*
X168092257Y-66921000D01*
X168147999Y-66926490D01*
X168203741Y-66921000D01*
X177075869Y-66921000D01*
X177935001Y-67780133D01*
X177935000Y-93287000D01*
X177325373Y-93287000D01*
X177336502Y-93266180D01*
X177372812Y-93146482D01*
X177385072Y-93022000D01*
X177382000Y-92807750D01*
X177223250Y-92649000D01*
X176149000Y-92649000D01*
X176149000Y-92669000D01*
X175895000Y-92669000D01*
X175895000Y-92649000D01*
X174820750Y-92649000D01*
X174662000Y-92807750D01*
X174658928Y-93022000D01*
X174671188Y-93146482D01*
X174707498Y-93266180D01*
X174718627Y-93287000D01*
X174394132Y-93287000D01*
X173942995Y-92835864D01*
X173907449Y-92792551D01*
X173864141Y-92757009D01*
X173129132Y-92022000D01*
X174658928Y-92022000D01*
X174662000Y-92236250D01*
X174820750Y-92395000D01*
X175895000Y-92395000D01*
X175895000Y-91545750D01*
X176149000Y-91545750D01*
X176149000Y-92395000D01*
X177223250Y-92395000D01*
X177382000Y-92236250D01*
X177385072Y-92022000D01*
X177372812Y-91897518D01*
X177336502Y-91777820D01*
X177277537Y-91667506D01*
X177198185Y-91570815D01*
X177101494Y-91491463D01*
X176991180Y-91432498D01*
X176871482Y-91396188D01*
X176747000Y-91383928D01*
X176307750Y-91387000D01*
X176149000Y-91545750D01*
X175895000Y-91545750D01*
X175736250Y-91387000D01*
X175297000Y-91383928D01*
X175172518Y-91396188D01*
X175052820Y-91432498D01*
X174942506Y-91491463D01*
X174845815Y-91570815D01*
X174766463Y-91667506D01*
X174707498Y-91777820D01*
X174671188Y-91897518D01*
X174658928Y-92022000D01*
X173129132Y-92022000D01*
X171887496Y-90780365D01*
X171851949Y-90737051D01*
X171679123Y-90595216D01*
X171481947Y-90489824D01*
X171267999Y-90424923D01*
X171101252Y-90408500D01*
X171101251Y-90408500D01*
X171045500Y-90403009D01*
X170989749Y-90408500D01*
X125830106Y-90408500D01*
X125672001Y-90392928D01*
X124771999Y-90392928D01*
X124613894Y-90408500D01*
X124071000Y-90408500D01*
X124071000Y-78541741D01*
X124076490Y-78485999D01*
X124071000Y-78430257D01*
X124071000Y-78430248D01*
X124054577Y-78263501D01*
X123989676Y-78049553D01*
X123884284Y-77852377D01*
X123751024Y-77690000D01*
X128367249Y-77690000D01*
X128423000Y-77695491D01*
X128478751Y-77690000D01*
X128478752Y-77690000D01*
X128645499Y-77673577D01*
X128859447Y-77608676D01*
X129056623Y-77503284D01*
X129229449Y-77361449D01*
X129264996Y-77318136D01*
X131319146Y-75263987D01*
X131362449Y-75228449D01*
X131445651Y-75127068D01*
X131504284Y-75055623D01*
X131609676Y-74858447D01*
X131674577Y-74644499D01*
X131696491Y-74422000D01*
X131691000Y-74366248D01*
X131691000Y-71681145D01*
X131843744Y-71783205D01*
X132032102Y-71861226D01*
X132232061Y-71901000D01*
X132435939Y-71901000D01*
X132635898Y-71861226D01*
X132824256Y-71783205D01*
X132993774Y-71669937D01*
X133137937Y-71525774D01*
X133251205Y-71356256D01*
X133329226Y-71167898D01*
X133369000Y-70967939D01*
X133369000Y-70764061D01*
X133329226Y-70564102D01*
X133251205Y-70375744D01*
X133137937Y-70206226D01*
X133094000Y-70162289D01*
X133094000Y-67112801D01*
X135580201Y-69599003D01*
X135603999Y-69628001D01*
X135719724Y-69722974D01*
X135851753Y-69793546D01*
X135995014Y-69837003D01*
X136106667Y-69848000D01*
X136106675Y-69848000D01*
X136144000Y-69851676D01*
X136181325Y-69848000D01*
X154902678Y-69848000D01*
X154940000Y-69851676D01*
X154977322Y-69848000D01*
X154977333Y-69848000D01*
X155088986Y-69837003D01*
X155232247Y-69793546D01*
X155364276Y-69722974D01*
X155480001Y-69628001D01*
X155503803Y-69598998D01*
X157331008Y-67771795D01*
X157360001Y-67748001D01*
X157383795Y-67719008D01*
X157383799Y-67719004D01*
X157454973Y-67632277D01*
X157455083Y-67632072D01*
X157525546Y-67500247D01*
X157569003Y-67356986D01*
X157580000Y-67245333D01*
X157580000Y-67245324D01*
X157583676Y-67208001D01*
X157580000Y-67170678D01*
X157580000Y-66994072D01*
X157820000Y-66994072D01*
X157944482Y-66981812D01*
X158064180Y-66945502D01*
X158174494Y-66886537D01*
X158271185Y-66807185D01*
X158350537Y-66710494D01*
X158409502Y-66600180D01*
X158445812Y-66480482D01*
X158458072Y-66356000D01*
X158458072Y-65456000D01*
X158445812Y-65331518D01*
X158427454Y-65271000D01*
X158445812Y-65210482D01*
X158458072Y-65086000D01*
X158458072Y-64186000D01*
X158445812Y-64061518D01*
X158427454Y-64001000D01*
X158445812Y-63940482D01*
X158458072Y-63816000D01*
X158458072Y-62916000D01*
X158445812Y-62791518D01*
X158427454Y-62731000D01*
X158445812Y-62670482D01*
X158458072Y-62546000D01*
X158458072Y-61646000D01*
X158452163Y-61586000D01*
X159356512Y-61586000D01*
X159450038Y-61699962D01*
G37*
%TD.AperFunction*%
D22*
X128372226Y-71669937D02*
X128541744Y-71783205D01*
X128730102Y-71861226D01*
X128930061Y-71901000D01*
X129133939Y-71901000D01*
X129333898Y-71861226D01*
X129421000Y-71825147D01*
X129421000Y-73951867D01*
X127952869Y-75420000D01*
X123723410Y-75420000D01*
X123842387Y-75356405D01*
X123976962Y-75245962D01*
X124087405Y-75111387D01*
X124169472Y-74957851D01*
X124178527Y-74928000D01*
X124676678Y-74928000D01*
X124714000Y-74931676D01*
X124751322Y-74928000D01*
X124751333Y-74928000D01*
X124862986Y-74917003D01*
X125006247Y-74873546D01*
X125138276Y-74802974D01*
X125254001Y-74708001D01*
X125277804Y-74678997D01*
X128329545Y-71627256D01*
X128372226Y-71669937D01*
%TA.AperFunction,Conductor*%
D23*
G36*
X128372226Y-71669937D02*
G01*
X128541744Y-71783205D01*
X128730102Y-71861226D01*
X128930061Y-71901000D01*
X129133939Y-71901000D01*
X129333898Y-71861226D01*
X129421000Y-71825147D01*
X129421000Y-73951867D01*
X127952869Y-75420000D01*
X123723410Y-75420000D01*
X123842387Y-75356405D01*
X123976962Y-75245962D01*
X124087405Y-75111387D01*
X124169472Y-74957851D01*
X124178527Y-74928000D01*
X124676678Y-74928000D01*
X124714000Y-74931676D01*
X124751322Y-74928000D01*
X124751333Y-74928000D01*
X124862986Y-74917003D01*
X125006247Y-74873546D01*
X125138276Y-74802974D01*
X125254001Y-74708001D01*
X125277804Y-74678997D01*
X128329545Y-71627256D01*
X128372226Y-71669937D01*
G37*
%TD.AperFunction*%
D22*
X128372226Y-66843937D02*
X128541744Y-66957205D01*
X128730102Y-67035226D01*
X128930061Y-67075000D01*
X129133939Y-67075000D01*
X129333898Y-67035226D01*
X129421000Y-66999147D01*
X129421000Y-69906853D01*
X129333898Y-69870774D01*
X129133939Y-69831000D01*
X128930061Y-69831000D01*
X128730102Y-69870774D01*
X128541744Y-69948795D01*
X128372226Y-70062063D01*
X128328289Y-70106000D01*
X128053322Y-70106000D01*
X128015999Y-70102324D01*
X127978676Y-70106000D01*
X127978667Y-70106000D01*
X127867014Y-70116997D01*
X127723753Y-70160454D01*
X127591724Y-70231026D01*
X127475999Y-70325999D01*
X127452201Y-70354997D01*
X124399199Y-73408000D01*
X124178527Y-73408000D01*
X124169472Y-73378149D01*
X124087405Y-73224613D01*
X123976962Y-73090038D01*
X123842387Y-72979595D01*
X123688851Y-72897528D01*
X123522255Y-72846992D01*
X123349001Y-72829928D01*
X122823999Y-72829928D01*
X122650745Y-72846992D01*
X122484149Y-72897528D01*
X122330613Y-72979595D01*
X122196038Y-73090038D01*
X122174000Y-73116891D01*
X122151962Y-73090038D01*
X122017387Y-72979595D01*
X121863851Y-72897528D01*
X121697255Y-72846992D01*
X121524001Y-72829928D01*
X120998999Y-72829928D01*
X120825745Y-72846992D01*
X120659149Y-72897528D01*
X120505613Y-72979595D01*
X120371038Y-73090038D01*
X120260595Y-73224613D01*
X120244353Y-73255000D01*
X119288778Y-73255000D01*
X119164075Y-73068368D01*
X118957232Y-72861525D01*
X118782840Y-72745000D01*
X118957232Y-72628475D01*
X119164075Y-72421632D01*
X119326590Y-72178411D01*
X119438532Y-71908158D01*
X119495600Y-71621260D01*
X119495600Y-71328740D01*
X119438532Y-71041842D01*
X119326590Y-70771589D01*
X119164075Y-70528368D01*
X118957232Y-70321525D01*
X118782840Y-70205000D01*
X118957232Y-70088475D01*
X119164075Y-69881632D01*
X119326590Y-69638411D01*
X119438532Y-69368158D01*
X119495600Y-69081260D01*
X119495600Y-68788740D01*
X119438532Y-68501842D01*
X119326590Y-68231589D01*
X119164075Y-67988368D01*
X119032220Y-67856513D01*
X119104780Y-67834502D01*
X119215094Y-67775537D01*
X119311785Y-67696185D01*
X119391137Y-67599494D01*
X119450102Y-67489180D01*
X119486412Y-67369482D01*
X119498672Y-67245000D01*
X119498672Y-67155000D01*
X120216558Y-67155000D01*
X120260595Y-67237387D01*
X120371038Y-67371962D01*
X120505613Y-67482405D01*
X120659149Y-67564472D01*
X120825745Y-67615008D01*
X120998999Y-67632072D01*
X121524001Y-67632072D01*
X121697255Y-67615008D01*
X121863851Y-67564472D01*
X122017387Y-67482405D01*
X122151962Y-67371962D01*
X122174000Y-67345109D01*
X122196038Y-67371962D01*
X122330613Y-67482405D01*
X122484149Y-67564472D01*
X122650745Y-67615008D01*
X122823999Y-67632072D01*
X123349001Y-67632072D01*
X123522255Y-67615008D01*
X123688851Y-67564472D01*
X123842387Y-67482405D01*
X123976962Y-67371962D01*
X124087405Y-67237387D01*
X124169472Y-67083851D01*
X124220008Y-66917255D01*
X124231557Y-66800000D01*
X128328289Y-66800000D01*
X128372226Y-66843937D01*
%TA.AperFunction,Conductor*%
D23*
G36*
X128372226Y-66843937D02*
G01*
X128541744Y-66957205D01*
X128730102Y-67035226D01*
X128930061Y-67075000D01*
X129133939Y-67075000D01*
X129333898Y-67035226D01*
X129421000Y-66999147D01*
X129421000Y-69906853D01*
X129333898Y-69870774D01*
X129133939Y-69831000D01*
X128930061Y-69831000D01*
X128730102Y-69870774D01*
X128541744Y-69948795D01*
X128372226Y-70062063D01*
X128328289Y-70106000D01*
X128053322Y-70106000D01*
X128015999Y-70102324D01*
X127978676Y-70106000D01*
X127978667Y-70106000D01*
X127867014Y-70116997D01*
X127723753Y-70160454D01*
X127591724Y-70231026D01*
X127475999Y-70325999D01*
X127452201Y-70354997D01*
X124399199Y-73408000D01*
X124178527Y-73408000D01*
X124169472Y-73378149D01*
X124087405Y-73224613D01*
X123976962Y-73090038D01*
X123842387Y-72979595D01*
X123688851Y-72897528D01*
X123522255Y-72846992D01*
X123349001Y-72829928D01*
X122823999Y-72829928D01*
X122650745Y-72846992D01*
X122484149Y-72897528D01*
X122330613Y-72979595D01*
X122196038Y-73090038D01*
X122174000Y-73116891D01*
X122151962Y-73090038D01*
X122017387Y-72979595D01*
X121863851Y-72897528D01*
X121697255Y-72846992D01*
X121524001Y-72829928D01*
X120998999Y-72829928D01*
X120825745Y-72846992D01*
X120659149Y-72897528D01*
X120505613Y-72979595D01*
X120371038Y-73090038D01*
X120260595Y-73224613D01*
X120244353Y-73255000D01*
X119288778Y-73255000D01*
X119164075Y-73068368D01*
X118957232Y-72861525D01*
X118782840Y-72745000D01*
X118957232Y-72628475D01*
X119164075Y-72421632D01*
X119326590Y-72178411D01*
X119438532Y-71908158D01*
X119495600Y-71621260D01*
X119495600Y-71328740D01*
X119438532Y-71041842D01*
X119326590Y-70771589D01*
X119164075Y-70528368D01*
X118957232Y-70321525D01*
X118782840Y-70205000D01*
X118957232Y-70088475D01*
X119164075Y-69881632D01*
X119326590Y-69638411D01*
X119438532Y-69368158D01*
X119495600Y-69081260D01*
X119495600Y-68788740D01*
X119438532Y-68501842D01*
X119326590Y-68231589D01*
X119164075Y-67988368D01*
X119032220Y-67856513D01*
X119104780Y-67834502D01*
X119215094Y-67775537D01*
X119311785Y-67696185D01*
X119391137Y-67599494D01*
X119450102Y-67489180D01*
X119486412Y-67369482D01*
X119498672Y-67245000D01*
X119498672Y-67155000D01*
X120216558Y-67155000D01*
X120260595Y-67237387D01*
X120371038Y-67371962D01*
X120505613Y-67482405D01*
X120659149Y-67564472D01*
X120825745Y-67615008D01*
X120998999Y-67632072D01*
X121524001Y-67632072D01*
X121697255Y-67615008D01*
X121863851Y-67564472D01*
X122017387Y-67482405D01*
X122151962Y-67371962D01*
X122174000Y-67345109D01*
X122196038Y-67371962D01*
X122330613Y-67482405D01*
X122484149Y-67564472D01*
X122650745Y-67615008D01*
X122823999Y-67632072D01*
X123349001Y-67632072D01*
X123522255Y-67615008D01*
X123688851Y-67564472D01*
X123842387Y-67482405D01*
X123976962Y-67371962D01*
X124087405Y-67237387D01*
X124169472Y-67083851D01*
X124220008Y-66917255D01*
X124231557Y-66800000D01*
X128328289Y-66800000D01*
X128372226Y-66843937D01*
G37*
%TD.AperFunction*%
D22*
X138181928Y-53656000D02*
X138194188Y-53780482D01*
X138212546Y-53841000D01*
X138194188Y-53901518D01*
X138181928Y-54026000D01*
X138181928Y-54926000D01*
X138194188Y-55050482D01*
X138212546Y-55111000D01*
X138194188Y-55171518D01*
X138181928Y-55296000D01*
X138181928Y-56196000D01*
X138194188Y-56320482D01*
X138212546Y-56381000D01*
X138194188Y-56441518D01*
X138181928Y-56566000D01*
X138181928Y-57466000D01*
X138194188Y-57590482D01*
X138212546Y-57651000D01*
X138194188Y-57711518D01*
X138181928Y-57836000D01*
X138181928Y-58736000D01*
X138194188Y-58860482D01*
X138212546Y-58921000D01*
X138194188Y-58981518D01*
X138181928Y-59106000D01*
X138181928Y-60006000D01*
X138194188Y-60130482D01*
X138212546Y-60191000D01*
X138194188Y-60251518D01*
X138181928Y-60376000D01*
X138181928Y-61276000D01*
X138194188Y-61400482D01*
X138212546Y-61461000D01*
X138194188Y-61521518D01*
X138181928Y-61646000D01*
X138181928Y-62546000D01*
X138194188Y-62670482D01*
X138212546Y-62731000D01*
X138194188Y-62791518D01*
X138181928Y-62916000D01*
X138181928Y-63816000D01*
X138194188Y-63940482D01*
X138212546Y-64001000D01*
X138194188Y-64061518D01*
X138181928Y-64186000D01*
X138181928Y-65086000D01*
X138194188Y-65210482D01*
X138212546Y-65271000D01*
X138194188Y-65331518D01*
X138181928Y-65456000D01*
X138181928Y-66356000D01*
X138194188Y-66480482D01*
X138230498Y-66600180D01*
X138289463Y-66710494D01*
X138368815Y-66807185D01*
X138465506Y-66886537D01*
X138575820Y-66945502D01*
X138695518Y-66981812D01*
X138820000Y-66994072D01*
X140820000Y-66994072D01*
X140944482Y-66981812D01*
X141064180Y-66945502D01*
X141174494Y-66886537D01*
X141271185Y-66807185D01*
X141350537Y-66710494D01*
X141409502Y-66600180D01*
X141445812Y-66480482D01*
X141458072Y-66356000D01*
X141458072Y-65456000D01*
X141453015Y-65404655D01*
X141495744Y-65433205D01*
X141664264Y-65503009D01*
X141624463Y-65551506D01*
X141565498Y-65661820D01*
X141529188Y-65781518D01*
X141516928Y-65906000D01*
X141520000Y-66620250D01*
X141678750Y-66779000D01*
X142478000Y-66779000D01*
X142478000Y-66759000D01*
X142732000Y-66759000D01*
X142732000Y-66779000D01*
X142752000Y-66779000D01*
X142752000Y-67033000D01*
X142732000Y-67033000D01*
X142732000Y-67053000D01*
X142478000Y-67053000D01*
X142478000Y-67033000D01*
X141678750Y-67033000D01*
X141520000Y-67191750D01*
X141516928Y-67906000D01*
X141529188Y-68030482D01*
X141565498Y-68150180D01*
X141624463Y-68260494D01*
X141679864Y-68328000D01*
X136458802Y-68328000D01*
X134366375Y-66235574D01*
X134385000Y-66141939D01*
X134385000Y-65938061D01*
X134345226Y-65738102D01*
X134267205Y-65549744D01*
X134153937Y-65380226D01*
X134009774Y-65236063D01*
X133840256Y-65122795D01*
X133651898Y-65044774D01*
X133451939Y-65005000D01*
X133248061Y-65005000D01*
X133094000Y-65035644D01*
X133094000Y-63805573D01*
X134095232Y-62761759D01*
X137705013Y-59151979D01*
X137734011Y-59128181D01*
X137828984Y-59012456D01*
X137899556Y-58880427D01*
X137943013Y-58737166D01*
X137954010Y-58625513D01*
X137954010Y-58625504D01*
X137957686Y-58588181D01*
X137954010Y-58550858D01*
X137954010Y-56459343D01*
X137957687Y-56422010D01*
X137943013Y-56273024D01*
X137899556Y-56129764D01*
X137899556Y-56129763D01*
X137828984Y-55997734D01*
X137734011Y-55882009D01*
X137705008Y-55858207D01*
X137535804Y-55689003D01*
X137512001Y-55659999D01*
X137430260Y-55592916D01*
X137357405Y-55456614D01*
X137246962Y-55322038D01*
X137112386Y-55211595D01*
X136958850Y-55129528D01*
X136906102Y-55113527D01*
X137050387Y-55036405D01*
X137184962Y-54925962D01*
X137295405Y-54791387D01*
X137377472Y-54637851D01*
X137428008Y-54471255D01*
X137435347Y-54396745D01*
X137446001Y-54388001D01*
X137469804Y-54358997D01*
X138181928Y-53646873D01*
X138181928Y-53656000D01*
%TA.AperFunction,Conductor*%
D23*
G36*
X138181928Y-53656000D02*
G01*
X138194188Y-53780482D01*
X138212546Y-53841000D01*
X138194188Y-53901518D01*
X138181928Y-54026000D01*
X138181928Y-54926000D01*
X138194188Y-55050482D01*
X138212546Y-55111000D01*
X138194188Y-55171518D01*
X138181928Y-55296000D01*
X138181928Y-56196000D01*
X138194188Y-56320482D01*
X138212546Y-56381000D01*
X138194188Y-56441518D01*
X138181928Y-56566000D01*
X138181928Y-57466000D01*
X138194188Y-57590482D01*
X138212546Y-57651000D01*
X138194188Y-57711518D01*
X138181928Y-57836000D01*
X138181928Y-58736000D01*
X138194188Y-58860482D01*
X138212546Y-58921000D01*
X138194188Y-58981518D01*
X138181928Y-59106000D01*
X138181928Y-60006000D01*
X138194188Y-60130482D01*
X138212546Y-60191000D01*
X138194188Y-60251518D01*
X138181928Y-60376000D01*
X138181928Y-61276000D01*
X138194188Y-61400482D01*
X138212546Y-61461000D01*
X138194188Y-61521518D01*
X138181928Y-61646000D01*
X138181928Y-62546000D01*
X138194188Y-62670482D01*
X138212546Y-62731000D01*
X138194188Y-62791518D01*
X138181928Y-62916000D01*
X138181928Y-63816000D01*
X138194188Y-63940482D01*
X138212546Y-64001000D01*
X138194188Y-64061518D01*
X138181928Y-64186000D01*
X138181928Y-65086000D01*
X138194188Y-65210482D01*
X138212546Y-65271000D01*
X138194188Y-65331518D01*
X138181928Y-65456000D01*
X138181928Y-66356000D01*
X138194188Y-66480482D01*
X138230498Y-66600180D01*
X138289463Y-66710494D01*
X138368815Y-66807185D01*
X138465506Y-66886537D01*
X138575820Y-66945502D01*
X138695518Y-66981812D01*
X138820000Y-66994072D01*
X140820000Y-66994072D01*
X140944482Y-66981812D01*
X141064180Y-66945502D01*
X141174494Y-66886537D01*
X141271185Y-66807185D01*
X141350537Y-66710494D01*
X141409502Y-66600180D01*
X141445812Y-66480482D01*
X141458072Y-66356000D01*
X141458072Y-65456000D01*
X141453015Y-65404655D01*
X141495744Y-65433205D01*
X141664264Y-65503009D01*
X141624463Y-65551506D01*
X141565498Y-65661820D01*
X141529188Y-65781518D01*
X141516928Y-65906000D01*
X141520000Y-66620250D01*
X141678750Y-66779000D01*
X142478000Y-66779000D01*
X142478000Y-66759000D01*
X142732000Y-66759000D01*
X142732000Y-66779000D01*
X142752000Y-66779000D01*
X142752000Y-67033000D01*
X142732000Y-67033000D01*
X142732000Y-67053000D01*
X142478000Y-67053000D01*
X142478000Y-67033000D01*
X141678750Y-67033000D01*
X141520000Y-67191750D01*
X141516928Y-67906000D01*
X141529188Y-68030482D01*
X141565498Y-68150180D01*
X141624463Y-68260494D01*
X141679864Y-68328000D01*
X136458802Y-68328000D01*
X134366375Y-66235574D01*
X134385000Y-66141939D01*
X134385000Y-65938061D01*
X134345226Y-65738102D01*
X134267205Y-65549744D01*
X134153937Y-65380226D01*
X134009774Y-65236063D01*
X133840256Y-65122795D01*
X133651898Y-65044774D01*
X133451939Y-65005000D01*
X133248061Y-65005000D01*
X133094000Y-65035644D01*
X133094000Y-63805573D01*
X134095232Y-62761759D01*
X137705013Y-59151979D01*
X137734011Y-59128181D01*
X137828984Y-59012456D01*
X137899556Y-58880427D01*
X137943013Y-58737166D01*
X137954010Y-58625513D01*
X137954010Y-58625504D01*
X137957686Y-58588181D01*
X137954010Y-58550858D01*
X137954010Y-56459343D01*
X137957687Y-56422010D01*
X137943013Y-56273024D01*
X137899556Y-56129764D01*
X137899556Y-56129763D01*
X137828984Y-55997734D01*
X137734011Y-55882009D01*
X137705008Y-55858207D01*
X137535804Y-55689003D01*
X137512001Y-55659999D01*
X137430260Y-55592916D01*
X137357405Y-55456614D01*
X137246962Y-55322038D01*
X137112386Y-55211595D01*
X136958850Y-55129528D01*
X136906102Y-55113527D01*
X137050387Y-55036405D01*
X137184962Y-54925962D01*
X137295405Y-54791387D01*
X137377472Y-54637851D01*
X137428008Y-54471255D01*
X137435347Y-54396745D01*
X137446001Y-54388001D01*
X137469804Y-54358997D01*
X138181928Y-53646873D01*
X138181928Y-53656000D01*
G37*
%TD.AperFunction*%
D22*
X153006795Y-52849744D02*
X152928774Y-53038102D01*
X152889000Y-53238061D01*
X152889000Y-53441939D01*
X152928774Y-53641898D01*
X153000714Y-53815575D01*
X153000063Y-53816226D01*
X152886795Y-53985744D01*
X152808774Y-54174102D01*
X152769000Y-54374061D01*
X152769000Y-54577939D01*
X152808774Y-54777898D01*
X152886795Y-54966256D01*
X153000063Y-55135774D01*
X153105824Y-55241535D01*
X153006795Y-55389744D01*
X152928774Y-55578102D01*
X152889000Y-55778061D01*
X152889000Y-55981939D01*
X152928774Y-56181898D01*
X153006795Y-56370256D01*
X153120063Y-56539774D01*
X153264226Y-56683937D01*
X153433744Y-56797205D01*
X153622102Y-56875226D01*
X153822061Y-56915000D01*
X154025939Y-56915000D01*
X154225898Y-56875226D01*
X154414256Y-56797205D01*
X154583774Y-56683937D01*
X154627711Y-56640000D01*
X155181928Y-56640000D01*
X155181928Y-57466000D01*
X155194188Y-57590482D01*
X155212546Y-57651000D01*
X155194188Y-57711518D01*
X155181928Y-57836000D01*
X155181928Y-58596786D01*
X155174323Y-58674000D01*
X155188997Y-58822986D01*
X155191215Y-58830299D01*
X155194188Y-58860482D01*
X155212546Y-58921000D01*
X155194188Y-58981518D01*
X155181928Y-59106000D01*
X155181928Y-59866786D01*
X155174323Y-59944000D01*
X155188997Y-60092986D01*
X155191215Y-60100299D01*
X155194188Y-60130482D01*
X155212546Y-60191000D01*
X155194188Y-60251518D01*
X155181928Y-60376000D01*
X155181928Y-61276000D01*
X155194188Y-61400482D01*
X155212546Y-61461000D01*
X155194188Y-61521518D01*
X155181928Y-61646000D01*
X155181928Y-62546000D01*
X155194188Y-62670482D01*
X155212546Y-62731000D01*
X155194188Y-62791518D01*
X155181928Y-62916000D01*
X155181928Y-63816000D01*
X155194188Y-63940482D01*
X155212546Y-64001000D01*
X155194188Y-64061518D01*
X155181928Y-64186000D01*
X155181928Y-65086000D01*
X155194188Y-65210482D01*
X155212546Y-65271000D01*
X155194188Y-65331518D01*
X155181928Y-65456000D01*
X155181928Y-66356000D01*
X155194188Y-66480482D01*
X155230498Y-66600180D01*
X155289463Y-66710494D01*
X155368815Y-66807185D01*
X155465506Y-66886537D01*
X155575820Y-66945502D01*
X155695518Y-66981812D01*
X155820000Y-66994072D01*
X155959125Y-66994072D01*
X155123072Y-67830126D01*
X155123072Y-65906000D01*
X155110812Y-65781518D01*
X155074502Y-65661820D01*
X155015537Y-65551506D01*
X154936185Y-65454815D01*
X154839494Y-65375463D01*
X154729180Y-65316498D01*
X154609482Y-65280188D01*
X154485000Y-65267928D01*
X153585000Y-65267928D01*
X153460518Y-65280188D01*
X153400000Y-65298546D01*
X153339482Y-65280188D01*
X153215000Y-65267928D01*
X152315000Y-65267928D01*
X152190518Y-65280188D01*
X152130000Y-65298546D01*
X152069482Y-65280188D01*
X151945000Y-65267928D01*
X151045000Y-65267928D01*
X150920518Y-65280188D01*
X150860000Y-65298546D01*
X150799482Y-65280188D01*
X150675000Y-65267928D01*
X149775000Y-65267928D01*
X149650518Y-65280188D01*
X149590000Y-65298546D01*
X149529482Y-65280188D01*
X149405000Y-65267928D01*
X148505000Y-65267928D01*
X148380518Y-65280188D01*
X148320000Y-65298546D01*
X148259482Y-65280188D01*
X148135000Y-65267928D01*
X147235000Y-65267928D01*
X147110518Y-65280188D01*
X147050000Y-65298546D01*
X146989482Y-65280188D01*
X146865000Y-65267928D01*
X145965000Y-65267928D01*
X145840518Y-65280188D01*
X145780000Y-65298546D01*
X145719482Y-65280188D01*
X145595000Y-65267928D01*
X144695000Y-65267928D01*
X144570518Y-65280188D01*
X144510000Y-65298546D01*
X144449482Y-65280188D01*
X144325000Y-65267928D01*
X143425000Y-65267928D01*
X143300518Y-65280188D01*
X143240000Y-65298546D01*
X143179482Y-65280188D01*
X143055000Y-65267928D01*
X142890750Y-65271000D01*
X142732002Y-65429748D01*
X142732002Y-65271000D01*
X142694711Y-65271000D01*
X142789937Y-65175774D01*
X142903205Y-65006256D01*
X142981226Y-64817898D01*
X143021000Y-64617939D01*
X143021000Y-64414061D01*
X142994533Y-64281000D01*
X143103939Y-64281000D01*
X143303898Y-64241226D01*
X143492256Y-64163205D01*
X143661774Y-64049937D01*
X143805937Y-63905774D01*
X143919205Y-63736256D01*
X143997226Y-63547898D01*
X144037000Y-63347939D01*
X144037000Y-63144061D01*
X143997226Y-62944102D01*
X143919205Y-62755744D01*
X143805937Y-62586226D01*
X143762000Y-62542289D01*
X143762000Y-59396000D01*
X144181928Y-59396000D01*
X144194188Y-59520482D01*
X144230498Y-59640180D01*
X144289463Y-59750494D01*
X144368815Y-59847185D01*
X144465506Y-59926537D01*
X144575820Y-59985502D01*
X144695518Y-60021812D01*
X144820000Y-60034072D01*
X147034250Y-60031000D01*
X147193000Y-59872250D01*
X147193000Y-57023000D01*
X147447000Y-57023000D01*
X147447000Y-59872250D01*
X147605750Y-60031000D01*
X149820000Y-60034072D01*
X149944482Y-60021812D01*
X150064180Y-59985502D01*
X150174494Y-59926537D01*
X150271185Y-59847185D01*
X150350537Y-59750494D01*
X150409502Y-59640180D01*
X150445812Y-59520482D01*
X150458072Y-59396000D01*
X150455000Y-57181750D01*
X150296250Y-57023000D01*
X147447000Y-57023000D01*
X147193000Y-57023000D01*
X144343750Y-57023000D01*
X144185000Y-57181750D01*
X144181928Y-59396000D01*
X143762000Y-59396000D01*
X143762000Y-54396000D01*
X144181928Y-54396000D01*
X144185000Y-56610250D01*
X144343750Y-56769000D01*
X147193000Y-56769000D01*
X147193000Y-53919750D01*
X147447000Y-53919750D01*
X147447000Y-56769000D01*
X150296250Y-56769000D01*
X150455000Y-56610250D01*
X150458072Y-54396000D01*
X150445812Y-54271518D01*
X150409502Y-54151820D01*
X150350537Y-54041506D01*
X150271185Y-53944815D01*
X150174494Y-53865463D01*
X150064180Y-53806498D01*
X149944482Y-53770188D01*
X149820000Y-53757928D01*
X147605750Y-53761000D01*
X147447000Y-53919750D01*
X147193000Y-53919750D01*
X147034250Y-53761000D01*
X144820000Y-53757928D01*
X144695518Y-53770188D01*
X144575820Y-53806498D01*
X144465506Y-53865463D01*
X144368815Y-53944815D01*
X144289463Y-54041506D01*
X144230498Y-54151820D01*
X144194188Y-54271518D01*
X144181928Y-54396000D01*
X143762000Y-54396000D01*
X143762000Y-53400801D01*
X144466802Y-52696000D01*
X153109523Y-52696000D01*
X153006795Y-52849744D01*
%TA.AperFunction,Conductor*%
D23*
G36*
X153006795Y-52849744D02*
G01*
X152928774Y-53038102D01*
X152889000Y-53238061D01*
X152889000Y-53441939D01*
X152928774Y-53641898D01*
X153000714Y-53815575D01*
X153000063Y-53816226D01*
X152886795Y-53985744D01*
X152808774Y-54174102D01*
X152769000Y-54374061D01*
X152769000Y-54577939D01*
X152808774Y-54777898D01*
X152886795Y-54966256D01*
X153000063Y-55135774D01*
X153105824Y-55241535D01*
X153006795Y-55389744D01*
X152928774Y-55578102D01*
X152889000Y-55778061D01*
X152889000Y-55981939D01*
X152928774Y-56181898D01*
X153006795Y-56370256D01*
X153120063Y-56539774D01*
X153264226Y-56683937D01*
X153433744Y-56797205D01*
X153622102Y-56875226D01*
X153822061Y-56915000D01*
X154025939Y-56915000D01*
X154225898Y-56875226D01*
X154414256Y-56797205D01*
X154583774Y-56683937D01*
X154627711Y-56640000D01*
X155181928Y-56640000D01*
X155181928Y-57466000D01*
X155194188Y-57590482D01*
X155212546Y-57651000D01*
X155194188Y-57711518D01*
X155181928Y-57836000D01*
X155181928Y-58596786D01*
X155174323Y-58674000D01*
X155188997Y-58822986D01*
X155191215Y-58830299D01*
X155194188Y-58860482D01*
X155212546Y-58921000D01*
X155194188Y-58981518D01*
X155181928Y-59106000D01*
X155181928Y-59866786D01*
X155174323Y-59944000D01*
X155188997Y-60092986D01*
X155191215Y-60100299D01*
X155194188Y-60130482D01*
X155212546Y-60191000D01*
X155194188Y-60251518D01*
X155181928Y-60376000D01*
X155181928Y-61276000D01*
X155194188Y-61400482D01*
X155212546Y-61461000D01*
X155194188Y-61521518D01*
X155181928Y-61646000D01*
X155181928Y-62546000D01*
X155194188Y-62670482D01*
X155212546Y-62731000D01*
X155194188Y-62791518D01*
X155181928Y-62916000D01*
X155181928Y-63816000D01*
X155194188Y-63940482D01*
X155212546Y-64001000D01*
X155194188Y-64061518D01*
X155181928Y-64186000D01*
X155181928Y-65086000D01*
X155194188Y-65210482D01*
X155212546Y-65271000D01*
X155194188Y-65331518D01*
X155181928Y-65456000D01*
X155181928Y-66356000D01*
X155194188Y-66480482D01*
X155230498Y-66600180D01*
X155289463Y-66710494D01*
X155368815Y-66807185D01*
X155465506Y-66886537D01*
X155575820Y-66945502D01*
X155695518Y-66981812D01*
X155820000Y-66994072D01*
X155959125Y-66994072D01*
X155123072Y-67830126D01*
X155123072Y-65906000D01*
X155110812Y-65781518D01*
X155074502Y-65661820D01*
X155015537Y-65551506D01*
X154936185Y-65454815D01*
X154839494Y-65375463D01*
X154729180Y-65316498D01*
X154609482Y-65280188D01*
X154485000Y-65267928D01*
X153585000Y-65267928D01*
X153460518Y-65280188D01*
X153400000Y-65298546D01*
X153339482Y-65280188D01*
X153215000Y-65267928D01*
X152315000Y-65267928D01*
X152190518Y-65280188D01*
X152130000Y-65298546D01*
X152069482Y-65280188D01*
X151945000Y-65267928D01*
X151045000Y-65267928D01*
X150920518Y-65280188D01*
X150860000Y-65298546D01*
X150799482Y-65280188D01*
X150675000Y-65267928D01*
X149775000Y-65267928D01*
X149650518Y-65280188D01*
X149590000Y-65298546D01*
X149529482Y-65280188D01*
X149405000Y-65267928D01*
X148505000Y-65267928D01*
X148380518Y-65280188D01*
X148320000Y-65298546D01*
X148259482Y-65280188D01*
X148135000Y-65267928D01*
X147235000Y-65267928D01*
X147110518Y-65280188D01*
X147050000Y-65298546D01*
X146989482Y-65280188D01*
X146865000Y-65267928D01*
X145965000Y-65267928D01*
X145840518Y-65280188D01*
X145780000Y-65298546D01*
X145719482Y-65280188D01*
X145595000Y-65267928D01*
X144695000Y-65267928D01*
X144570518Y-65280188D01*
X144510000Y-65298546D01*
X144449482Y-65280188D01*
X144325000Y-65267928D01*
X143425000Y-65267928D01*
X143300518Y-65280188D01*
X143240000Y-65298546D01*
X143179482Y-65280188D01*
X143055000Y-65267928D01*
X142890750Y-65271000D01*
X142732002Y-65429748D01*
X142732002Y-65271000D01*
X142694711Y-65271000D01*
X142789937Y-65175774D01*
X142903205Y-65006256D01*
X142981226Y-64817898D01*
X143021000Y-64617939D01*
X143021000Y-64414061D01*
X142994533Y-64281000D01*
X143103939Y-64281000D01*
X143303898Y-64241226D01*
X143492256Y-64163205D01*
X143661774Y-64049937D01*
X143805937Y-63905774D01*
X143919205Y-63736256D01*
X143997226Y-63547898D01*
X144037000Y-63347939D01*
X144037000Y-63144061D01*
X143997226Y-62944102D01*
X143919205Y-62755744D01*
X143805937Y-62586226D01*
X143762000Y-62542289D01*
X143762000Y-59396000D01*
X144181928Y-59396000D01*
X144194188Y-59520482D01*
X144230498Y-59640180D01*
X144289463Y-59750494D01*
X144368815Y-59847185D01*
X144465506Y-59926537D01*
X144575820Y-59985502D01*
X144695518Y-60021812D01*
X144820000Y-60034072D01*
X147034250Y-60031000D01*
X147193000Y-59872250D01*
X147193000Y-57023000D01*
X147447000Y-57023000D01*
X147447000Y-59872250D01*
X147605750Y-60031000D01*
X149820000Y-60034072D01*
X149944482Y-60021812D01*
X150064180Y-59985502D01*
X150174494Y-59926537D01*
X150271185Y-59847185D01*
X150350537Y-59750494D01*
X150409502Y-59640180D01*
X150445812Y-59520482D01*
X150458072Y-59396000D01*
X150455000Y-57181750D01*
X150296250Y-57023000D01*
X147447000Y-57023000D01*
X147193000Y-57023000D01*
X144343750Y-57023000D01*
X144185000Y-57181750D01*
X144181928Y-59396000D01*
X143762000Y-59396000D01*
X143762000Y-54396000D01*
X144181928Y-54396000D01*
X144185000Y-56610250D01*
X144343750Y-56769000D01*
X147193000Y-56769000D01*
X147193000Y-53919750D01*
X147447000Y-53919750D01*
X147447000Y-56769000D01*
X150296250Y-56769000D01*
X150455000Y-56610250D01*
X150458072Y-54396000D01*
X150445812Y-54271518D01*
X150409502Y-54151820D01*
X150350537Y-54041506D01*
X150271185Y-53944815D01*
X150174494Y-53865463D01*
X150064180Y-53806498D01*
X149944482Y-53770188D01*
X149820000Y-53757928D01*
X147605750Y-53761000D01*
X147447000Y-53919750D01*
X147193000Y-53919750D01*
X147034250Y-53761000D01*
X144820000Y-53757928D01*
X144695518Y-53770188D01*
X144575820Y-53806498D01*
X144465506Y-53865463D01*
X144368815Y-53944815D01*
X144289463Y-54041506D01*
X144230498Y-54151820D01*
X144194188Y-54271518D01*
X144181928Y-54396000D01*
X143762000Y-54396000D01*
X143762000Y-53400801D01*
X144466802Y-52696000D01*
X153109523Y-52696000D01*
X153006795Y-52849744D01*
G37*
%TD.AperFunction*%
D22*
X134829498Y-49105820D02*
X134793188Y-49225518D01*
X134780928Y-49350000D01*
X134784000Y-49564250D01*
X134942750Y-49723000D01*
X136017000Y-49723000D01*
X136017000Y-49703000D01*
X136271000Y-49703000D01*
X136271000Y-49723000D01*
X136291000Y-49723000D01*
X136291000Y-49977000D01*
X136271000Y-49977000D01*
X136271000Y-49997000D01*
X136017000Y-49997000D01*
X136017000Y-49977000D01*
X134942750Y-49977000D01*
X134784000Y-50135750D01*
X134780928Y-50350000D01*
X134793188Y-50474482D01*
X134829498Y-50594180D01*
X134866440Y-50663293D01*
X134757553Y-50696324D01*
X134560377Y-50801716D01*
X134430857Y-50908011D01*
X133706364Y-51632505D01*
X133663051Y-51668051D01*
X133521216Y-51840877D01*
X133444183Y-51984998D01*
X133415824Y-52038054D01*
X133350923Y-52252002D01*
X133329009Y-52474500D01*
X133334500Y-52530251D01*
X133334500Y-52713000D01*
X131627751Y-52713000D01*
X131572000Y-52707509D01*
X131516248Y-52713000D01*
X131349501Y-52729423D01*
X131135553Y-52794324D01*
X130938377Y-52899716D01*
X130765551Y-53041551D01*
X130730008Y-53084860D01*
X129792860Y-54022009D01*
X129749552Y-54057551D01*
X129607717Y-54230377D01*
X129560525Y-54318667D01*
X129502324Y-54427554D01*
X129437423Y-54641502D01*
X129415509Y-54864000D01*
X129421001Y-54919761D01*
X129421000Y-56825043D01*
X129401506Y-56835463D01*
X129304815Y-56914815D01*
X129225463Y-57011506D01*
X129166498Y-57121820D01*
X129130188Y-57241518D01*
X129117928Y-57366000D01*
X129117928Y-58966000D01*
X129130188Y-59090482D01*
X129166498Y-59210180D01*
X129225463Y-59320494D01*
X129304815Y-59417185D01*
X129401506Y-59496537D01*
X129421001Y-59506957D01*
X129421001Y-65080853D01*
X129333898Y-65044774D01*
X129133939Y-65005000D01*
X128930061Y-65005000D01*
X128730102Y-65044774D01*
X128541744Y-65122795D01*
X128372226Y-65236063D01*
X128328289Y-65280000D01*
X124029454Y-65280000D01*
X123976962Y-65216038D01*
X123842387Y-65105595D01*
X123757085Y-65060000D01*
X127067581Y-65060000D01*
X127100000Y-65063193D01*
X127132419Y-65060000D01*
X127229383Y-65050450D01*
X127353793Y-65012710D01*
X127468450Y-64951425D01*
X127540650Y-64892171D01*
X127556601Y-64887333D01*
X127578557Y-64875597D01*
X127597803Y-64859803D01*
X127613597Y-64840557D01*
X127625333Y-64818601D01*
X127632560Y-64794776D01*
X127632900Y-64791023D01*
X127651425Y-64768450D01*
X127712710Y-64653793D01*
X127750450Y-64529383D01*
X127763193Y-64400000D01*
X127760000Y-64367581D01*
X127760000Y-49060000D01*
X134853990Y-49060000D01*
X134829498Y-49105820D01*
%TA.AperFunction,Conductor*%
D23*
G36*
X134829498Y-49105820D02*
G01*
X134793188Y-49225518D01*
X134780928Y-49350000D01*
X134784000Y-49564250D01*
X134942750Y-49723000D01*
X136017000Y-49723000D01*
X136017000Y-49703000D01*
X136271000Y-49703000D01*
X136271000Y-49723000D01*
X136291000Y-49723000D01*
X136291000Y-49977000D01*
X136271000Y-49977000D01*
X136271000Y-49997000D01*
X136017000Y-49997000D01*
X136017000Y-49977000D01*
X134942750Y-49977000D01*
X134784000Y-50135750D01*
X134780928Y-50350000D01*
X134793188Y-50474482D01*
X134829498Y-50594180D01*
X134866440Y-50663293D01*
X134757553Y-50696324D01*
X134560377Y-50801716D01*
X134430857Y-50908011D01*
X133706364Y-51632505D01*
X133663051Y-51668051D01*
X133521216Y-51840877D01*
X133444183Y-51984998D01*
X133415824Y-52038054D01*
X133350923Y-52252002D01*
X133329009Y-52474500D01*
X133334500Y-52530251D01*
X133334500Y-52713000D01*
X131627751Y-52713000D01*
X131572000Y-52707509D01*
X131516248Y-52713000D01*
X131349501Y-52729423D01*
X131135553Y-52794324D01*
X130938377Y-52899716D01*
X130765551Y-53041551D01*
X130730008Y-53084860D01*
X129792860Y-54022009D01*
X129749552Y-54057551D01*
X129607717Y-54230377D01*
X129560525Y-54318667D01*
X129502324Y-54427554D01*
X129437423Y-54641502D01*
X129415509Y-54864000D01*
X129421001Y-54919761D01*
X129421000Y-56825043D01*
X129401506Y-56835463D01*
X129304815Y-56914815D01*
X129225463Y-57011506D01*
X129166498Y-57121820D01*
X129130188Y-57241518D01*
X129117928Y-57366000D01*
X129117928Y-58966000D01*
X129130188Y-59090482D01*
X129166498Y-59210180D01*
X129225463Y-59320494D01*
X129304815Y-59417185D01*
X129401506Y-59496537D01*
X129421001Y-59506957D01*
X129421001Y-65080853D01*
X129333898Y-65044774D01*
X129133939Y-65005000D01*
X128930061Y-65005000D01*
X128730102Y-65044774D01*
X128541744Y-65122795D01*
X128372226Y-65236063D01*
X128328289Y-65280000D01*
X124029454Y-65280000D01*
X123976962Y-65216038D01*
X123842387Y-65105595D01*
X123757085Y-65060000D01*
X127067581Y-65060000D01*
X127100000Y-65063193D01*
X127132419Y-65060000D01*
X127229383Y-65050450D01*
X127353793Y-65012710D01*
X127468450Y-64951425D01*
X127540650Y-64892171D01*
X127556601Y-64887333D01*
X127578557Y-64875597D01*
X127597803Y-64859803D01*
X127613597Y-64840557D01*
X127625333Y-64818601D01*
X127632560Y-64794776D01*
X127632900Y-64791023D01*
X127651425Y-64768450D01*
X127712710Y-64653793D01*
X127750450Y-64529383D01*
X127763193Y-64400000D01*
X127760000Y-64367581D01*
X127760000Y-49060000D01*
X134853990Y-49060000D01*
X134829498Y-49105820D01*
G37*
%TD.AperFunction*%
D22*
X135384001Y-54901546D02*
X135384000Y-55112889D01*
X135329150Y-55129528D01*
X135175614Y-55211595D01*
X135041038Y-55322038D01*
X134930595Y-55456614D01*
X134848528Y-55610150D01*
X134797992Y-55776746D01*
X134780928Y-55950000D01*
X134780928Y-56450000D01*
X134797992Y-56623254D01*
X134848528Y-56789850D01*
X134930595Y-56943386D01*
X135041038Y-57077962D01*
X135047594Y-57083342D01*
X134967815Y-57148815D01*
X134888463Y-57245506D01*
X134829498Y-57355820D01*
X134793188Y-57475518D01*
X134780928Y-57600000D01*
X134784000Y-57814250D01*
X134942750Y-57973000D01*
X136017000Y-57973000D01*
X136017000Y-57953000D01*
X136271000Y-57953000D01*
X136271000Y-57973000D01*
X136291000Y-57973000D01*
X136291000Y-58227000D01*
X136271000Y-58227000D01*
X136271000Y-58247000D01*
X136017000Y-58247000D01*
X136017000Y-58227000D01*
X134942750Y-58227000D01*
X134784000Y-58385750D01*
X134780928Y-58600000D01*
X134793188Y-58724482D01*
X134829498Y-58844180D01*
X134888463Y-58954494D01*
X134967815Y-59051185D01*
X135064506Y-59130537D01*
X135174820Y-59189502D01*
X135294518Y-59225812D01*
X135419000Y-59238072D01*
X135469671Y-59237718D01*
X133035593Y-61671796D01*
X133029560Y-61676961D01*
X133009152Y-61698237D01*
X132988391Y-61718998D01*
X132983373Y-61725113D01*
X131816868Y-62941231D01*
X131793999Y-62959999D01*
X131765169Y-62995129D01*
X131759685Y-63000846D01*
X131741497Y-63023974D01*
X131699026Y-63075725D01*
X131695265Y-63082761D01*
X131691000Y-63088184D01*
X131691000Y-59506957D01*
X131710494Y-59496537D01*
X131807185Y-59417185D01*
X131886537Y-59320494D01*
X131945502Y-59210180D01*
X131961117Y-59158702D01*
X132242903Y-59158702D01*
X132314486Y-59402671D01*
X132569996Y-59523571D01*
X132844184Y-59592300D01*
X133126512Y-59606217D01*
X133406130Y-59564787D01*
X133672292Y-59469603D01*
X133797514Y-59402671D01*
X133869097Y-59158702D01*
X133056000Y-58345605D01*
X132242903Y-59158702D01*
X131961117Y-59158702D01*
X131981812Y-59090482D01*
X131994072Y-58966000D01*
X131994072Y-58958785D01*
X132063298Y-58979097D01*
X132876395Y-58166000D01*
X133235605Y-58166000D01*
X134048702Y-58979097D01*
X134292671Y-58907514D01*
X134413571Y-58652004D01*
X134482300Y-58377816D01*
X134496217Y-58095488D01*
X134454787Y-57815870D01*
X134359603Y-57549708D01*
X134292671Y-57424486D01*
X134048702Y-57352903D01*
X133235605Y-58166000D01*
X132876395Y-58166000D01*
X132063298Y-57352903D01*
X131994072Y-57373215D01*
X131994072Y-57366000D01*
X131981812Y-57241518D01*
X131961118Y-57173298D01*
X132242903Y-57173298D01*
X133056000Y-57986395D01*
X133869097Y-57173298D01*
X133797514Y-56929329D01*
X133542004Y-56808429D01*
X133267816Y-56739700D01*
X132985488Y-56725783D01*
X132705870Y-56767213D01*
X132439708Y-56862397D01*
X132314486Y-56929329D01*
X132242903Y-57173298D01*
X131961118Y-57173298D01*
X131945502Y-57121820D01*
X131886537Y-57011506D01*
X131807185Y-56914815D01*
X131710494Y-56835463D01*
X131691000Y-56825043D01*
X131691000Y-55334131D01*
X132042132Y-54983000D01*
X133648539Y-54983000D01*
X133713613Y-55036405D01*
X133867149Y-55118472D01*
X134033745Y-55169008D01*
X134206999Y-55186072D01*
X134732001Y-55186072D01*
X134905255Y-55169008D01*
X135071851Y-55118472D01*
X135225387Y-55036405D01*
X135359962Y-54925962D01*
X135382000Y-54899109D01*
X135384001Y-54901546D01*
%TA.AperFunction,Conductor*%
D23*
G36*
X135384001Y-54901546D02*
G01*
X135384000Y-55112889D01*
X135329150Y-55129528D01*
X135175614Y-55211595D01*
X135041038Y-55322038D01*
X134930595Y-55456614D01*
X134848528Y-55610150D01*
X134797992Y-55776746D01*
X134780928Y-55950000D01*
X134780928Y-56450000D01*
X134797992Y-56623254D01*
X134848528Y-56789850D01*
X134930595Y-56943386D01*
X135041038Y-57077962D01*
X135047594Y-57083342D01*
X134967815Y-57148815D01*
X134888463Y-57245506D01*
X134829498Y-57355820D01*
X134793188Y-57475518D01*
X134780928Y-57600000D01*
X134784000Y-57814250D01*
X134942750Y-57973000D01*
X136017000Y-57973000D01*
X136017000Y-57953000D01*
X136271000Y-57953000D01*
X136271000Y-57973000D01*
X136291000Y-57973000D01*
X136291000Y-58227000D01*
X136271000Y-58227000D01*
X136271000Y-58247000D01*
X136017000Y-58247000D01*
X136017000Y-58227000D01*
X134942750Y-58227000D01*
X134784000Y-58385750D01*
X134780928Y-58600000D01*
X134793188Y-58724482D01*
X134829498Y-58844180D01*
X134888463Y-58954494D01*
X134967815Y-59051185D01*
X135064506Y-59130537D01*
X135174820Y-59189502D01*
X135294518Y-59225812D01*
X135419000Y-59238072D01*
X135469671Y-59237718D01*
X133035593Y-61671796D01*
X133029560Y-61676961D01*
X133009152Y-61698237D01*
X132988391Y-61718998D01*
X132983373Y-61725113D01*
X131816868Y-62941231D01*
X131793999Y-62959999D01*
X131765169Y-62995129D01*
X131759685Y-63000846D01*
X131741497Y-63023974D01*
X131699026Y-63075725D01*
X131695265Y-63082761D01*
X131691000Y-63088184D01*
X131691000Y-59506957D01*
X131710494Y-59496537D01*
X131807185Y-59417185D01*
X131886537Y-59320494D01*
X131945502Y-59210180D01*
X131961117Y-59158702D01*
X132242903Y-59158702D01*
X132314486Y-59402671D01*
X132569996Y-59523571D01*
X132844184Y-59592300D01*
X133126512Y-59606217D01*
X133406130Y-59564787D01*
X133672292Y-59469603D01*
X133797514Y-59402671D01*
X133869097Y-59158702D01*
X133056000Y-58345605D01*
X132242903Y-59158702D01*
X131961117Y-59158702D01*
X131981812Y-59090482D01*
X131994072Y-58966000D01*
X131994072Y-58958785D01*
X132063298Y-58979097D01*
X132876395Y-58166000D01*
X133235605Y-58166000D01*
X134048702Y-58979097D01*
X134292671Y-58907514D01*
X134413571Y-58652004D01*
X134482300Y-58377816D01*
X134496217Y-58095488D01*
X134454787Y-57815870D01*
X134359603Y-57549708D01*
X134292671Y-57424486D01*
X134048702Y-57352903D01*
X133235605Y-58166000D01*
X132876395Y-58166000D01*
X132063298Y-57352903D01*
X131994072Y-57373215D01*
X131994072Y-57366000D01*
X131981812Y-57241518D01*
X131961118Y-57173298D01*
X132242903Y-57173298D01*
X133056000Y-57986395D01*
X133869097Y-57173298D01*
X133797514Y-56929329D01*
X133542004Y-56808429D01*
X133267816Y-56739700D01*
X132985488Y-56725783D01*
X132705870Y-56767213D01*
X132439708Y-56862397D01*
X132314486Y-56929329D01*
X132242903Y-57173298D01*
X131961118Y-57173298D01*
X131945502Y-57121820D01*
X131886537Y-57011506D01*
X131807185Y-56914815D01*
X131710494Y-56835463D01*
X131691000Y-56825043D01*
X131691000Y-55334131D01*
X132042132Y-54983000D01*
X133648539Y-54983000D01*
X133713613Y-55036405D01*
X133867149Y-55118472D01*
X134033745Y-55169008D01*
X134206999Y-55186072D01*
X134732001Y-55186072D01*
X134905255Y-55169008D01*
X135071851Y-55118472D01*
X135225387Y-55036405D01*
X135359962Y-54925962D01*
X135382000Y-54899109D01*
X135384001Y-54901546D01*
G37*
%TD.AperFunction*%
D22*
X162597495Y-55548312D02*
X162816001Y-55694313D01*
X162816000Y-57685473D01*
X162786149Y-57694528D01*
X162632613Y-57776595D01*
X162498038Y-57887038D01*
X162387595Y-58021613D01*
X162305528Y-58175149D01*
X162254992Y-58341745D01*
X162237928Y-58514999D01*
X162237928Y-58855010D01*
X158574653Y-58855010D01*
X158610001Y-58826001D01*
X158633804Y-58796997D01*
X161536731Y-55894072D01*
X161936000Y-55894072D01*
X162060482Y-55881812D01*
X162180180Y-55845502D01*
X162290494Y-55786537D01*
X162387185Y-55707185D01*
X162466537Y-55610494D01*
X162525502Y-55500180D01*
X162531056Y-55481873D01*
X162597495Y-55548312D01*
%TA.AperFunction,Conductor*%
D23*
G36*
X162597495Y-55548312D02*
G01*
X162816001Y-55694313D01*
X162816000Y-57685473D01*
X162786149Y-57694528D01*
X162632613Y-57776595D01*
X162498038Y-57887038D01*
X162387595Y-58021613D01*
X162305528Y-58175149D01*
X162254992Y-58341745D01*
X162237928Y-58514999D01*
X162237928Y-58855010D01*
X158574653Y-58855010D01*
X158610001Y-58826001D01*
X158633804Y-58796997D01*
X161536731Y-55894072D01*
X161936000Y-55894072D01*
X162060482Y-55881812D01*
X162180180Y-55845502D01*
X162290494Y-55786537D01*
X162387185Y-55707185D01*
X162466537Y-55610494D01*
X162525502Y-55500180D01*
X162531056Y-55481873D01*
X162597495Y-55548312D01*
G37*
%TD.AperFunction*%
D22*
X160550038Y-50861962D02*
X160684613Y-50972405D01*
X160838149Y-51054472D01*
X161004745Y-51105008D01*
X161177999Y-51122072D01*
X161703001Y-51122072D01*
X161876255Y-51105008D01*
X162042851Y-51054472D01*
X162196387Y-50972405D01*
X162261461Y-50919000D01*
X166915869Y-50919000D01*
X167013000Y-51016132D01*
X167013000Y-53109228D01*
X166843095Y-52995701D01*
X166563743Y-52879989D01*
X166267184Y-52821000D01*
X165964816Y-52821000D01*
X165668257Y-52879989D01*
X165388905Y-52995701D01*
X165137495Y-53163688D01*
X164923688Y-53377495D01*
X164846000Y-53493763D01*
X164768312Y-53377495D01*
X164554505Y-53163688D01*
X164303095Y-52995701D01*
X164023743Y-52879989D01*
X163727184Y-52821000D01*
X163424816Y-52821000D01*
X163128257Y-52879989D01*
X162848905Y-52995701D01*
X162597495Y-53163688D01*
X162531056Y-53230127D01*
X162525502Y-53211820D01*
X162466537Y-53101506D01*
X162387185Y-53004815D01*
X162290494Y-52925463D01*
X162180180Y-52866498D01*
X162060482Y-52830188D01*
X161936000Y-52817928D01*
X160136000Y-52817928D01*
X160011518Y-52830188D01*
X159891820Y-52866498D01*
X159781506Y-52925463D01*
X159684815Y-53004815D01*
X159605463Y-53101506D01*
X159546498Y-53211820D01*
X159510188Y-53331518D01*
X159497928Y-53456000D01*
X159497928Y-55256000D01*
X159510188Y-55380482D01*
X159546498Y-55500180D01*
X159605463Y-55610494D01*
X159634870Y-55646327D01*
X158458072Y-56823126D01*
X158458072Y-56566000D01*
X158445812Y-56441518D01*
X158427454Y-56381000D01*
X158445812Y-56320482D01*
X158458072Y-56196000D01*
X158458072Y-55296000D01*
X158445812Y-55171518D01*
X158427454Y-55111000D01*
X158445812Y-55050482D01*
X158458072Y-54926000D01*
X158458072Y-54026000D01*
X158445812Y-53901518D01*
X158427454Y-53841000D01*
X158445812Y-53780482D01*
X158458072Y-53656000D01*
X158458072Y-52756000D01*
X158445812Y-52631518D01*
X158427454Y-52571000D01*
X158445812Y-52510482D01*
X158458072Y-52386000D01*
X158458072Y-51486000D01*
X158452163Y-51426000D01*
X158696178Y-51426000D01*
X158733500Y-51429676D01*
X158770822Y-51426000D01*
X158770833Y-51426000D01*
X158882486Y-51415003D01*
X159025747Y-51371546D01*
X159157776Y-51300974D01*
X159273501Y-51206001D01*
X159297303Y-51176998D01*
X159352298Y-51122003D01*
X159352999Y-51122072D01*
X159878001Y-51122072D01*
X160051255Y-51105008D01*
X160217851Y-51054472D01*
X160371387Y-50972405D01*
X160505962Y-50861962D01*
X160528000Y-50835109D01*
X160550038Y-50861962D01*
%TA.AperFunction,Conductor*%
D23*
G36*
X160550038Y-50861962D02*
G01*
X160684613Y-50972405D01*
X160838149Y-51054472D01*
X161004745Y-51105008D01*
X161177999Y-51122072D01*
X161703001Y-51122072D01*
X161876255Y-51105008D01*
X162042851Y-51054472D01*
X162196387Y-50972405D01*
X162261461Y-50919000D01*
X166915869Y-50919000D01*
X167013000Y-51016132D01*
X167013000Y-53109228D01*
X166843095Y-52995701D01*
X166563743Y-52879989D01*
X166267184Y-52821000D01*
X165964816Y-52821000D01*
X165668257Y-52879989D01*
X165388905Y-52995701D01*
X165137495Y-53163688D01*
X164923688Y-53377495D01*
X164846000Y-53493763D01*
X164768312Y-53377495D01*
X164554505Y-53163688D01*
X164303095Y-52995701D01*
X164023743Y-52879989D01*
X163727184Y-52821000D01*
X163424816Y-52821000D01*
X163128257Y-52879989D01*
X162848905Y-52995701D01*
X162597495Y-53163688D01*
X162531056Y-53230127D01*
X162525502Y-53211820D01*
X162466537Y-53101506D01*
X162387185Y-53004815D01*
X162290494Y-52925463D01*
X162180180Y-52866498D01*
X162060482Y-52830188D01*
X161936000Y-52817928D01*
X160136000Y-52817928D01*
X160011518Y-52830188D01*
X159891820Y-52866498D01*
X159781506Y-52925463D01*
X159684815Y-53004815D01*
X159605463Y-53101506D01*
X159546498Y-53211820D01*
X159510188Y-53331518D01*
X159497928Y-53456000D01*
X159497928Y-55256000D01*
X159510188Y-55380482D01*
X159546498Y-55500180D01*
X159605463Y-55610494D01*
X159634870Y-55646327D01*
X158458072Y-56823126D01*
X158458072Y-56566000D01*
X158445812Y-56441518D01*
X158427454Y-56381000D01*
X158445812Y-56320482D01*
X158458072Y-56196000D01*
X158458072Y-55296000D01*
X158445812Y-55171518D01*
X158427454Y-55111000D01*
X158445812Y-55050482D01*
X158458072Y-54926000D01*
X158458072Y-54026000D01*
X158445812Y-53901518D01*
X158427454Y-53841000D01*
X158445812Y-53780482D01*
X158458072Y-53656000D01*
X158458072Y-52756000D01*
X158445812Y-52631518D01*
X158427454Y-52571000D01*
X158445812Y-52510482D01*
X158458072Y-52386000D01*
X158458072Y-51486000D01*
X158452163Y-51426000D01*
X158696178Y-51426000D01*
X158733500Y-51429676D01*
X158770822Y-51426000D01*
X158770833Y-51426000D01*
X158882486Y-51415003D01*
X159025747Y-51371546D01*
X159157776Y-51300974D01*
X159273501Y-51206001D01*
X159297303Y-51176998D01*
X159352298Y-51122003D01*
X159352999Y-51122072D01*
X159878001Y-51122072D01*
X160051255Y-51105008D01*
X160217851Y-51054472D01*
X160371387Y-50972405D01*
X160505962Y-50861962D01*
X160528000Y-50835109D01*
X160550038Y-50861962D01*
G37*
%TD.AperFunction*%
D22*
X138185000Y-49110250D02*
X138343750Y-49269000D01*
X139693000Y-49269000D01*
X139693000Y-49249000D01*
X139947000Y-49249000D01*
X139947000Y-49269000D01*
X141296250Y-49269000D01*
X141455000Y-49110250D01*
X141455940Y-49060000D01*
X155184060Y-49060000D01*
X155185000Y-49110250D01*
X155343750Y-49269000D01*
X156693000Y-49269000D01*
X156693000Y-49249000D01*
X156947000Y-49249000D01*
X156947000Y-49269000D01*
X158296250Y-49269000D01*
X158455000Y-49110250D01*
X158455940Y-49060000D01*
X158512552Y-49060000D01*
X158481992Y-49160745D01*
X158464928Y-49333999D01*
X158464928Y-49859771D01*
X158455819Y-49868880D01*
X158458072Y-49846000D01*
X158455000Y-49681750D01*
X158296250Y-49523000D01*
X156947000Y-49523000D01*
X156947000Y-49543000D01*
X156693000Y-49543000D01*
X156693000Y-49523000D01*
X155343750Y-49523000D01*
X155185000Y-49681750D01*
X155181928Y-49846000D01*
X155187837Y-49906000D01*
X143935322Y-49906000D01*
X143897999Y-49902324D01*
X143860676Y-49906000D01*
X143860667Y-49906000D01*
X143749014Y-49916997D01*
X143605753Y-49960454D01*
X143473723Y-50031026D01*
X143400014Y-50091518D01*
X143357999Y-50125999D01*
X143334201Y-50154997D01*
X141728998Y-51760201D01*
X141458072Y-52031127D01*
X141458072Y-51486000D01*
X141445812Y-51361518D01*
X141427454Y-51301000D01*
X141445812Y-51240482D01*
X141458072Y-51116000D01*
X141458072Y-50216000D01*
X141445812Y-50091518D01*
X141427454Y-50031000D01*
X141445812Y-49970482D01*
X141458072Y-49846000D01*
X141455000Y-49681750D01*
X141296250Y-49523000D01*
X139947000Y-49523000D01*
X139947000Y-49538017D01*
X139875752Y-49531000D01*
X139693000Y-49531000D01*
X139693000Y-49523000D01*
X138343750Y-49523000D01*
X138335750Y-49531000D01*
X138111752Y-49531000D01*
X138056000Y-49525509D01*
X137833501Y-49547423D01*
X137619553Y-49612324D01*
X137422377Y-49717716D01*
X137415941Y-49722998D01*
X137345252Y-49722998D01*
X137504000Y-49564250D01*
X137507072Y-49350000D01*
X137494812Y-49225518D01*
X137458502Y-49105820D01*
X137434010Y-49060000D01*
X138184060Y-49060000D01*
X138185000Y-49110250D01*
%TA.AperFunction,Conductor*%
D23*
G36*
X138185000Y-49110250D02*
G01*
X138343750Y-49269000D01*
X139693000Y-49269000D01*
X139693000Y-49249000D01*
X139947000Y-49249000D01*
X139947000Y-49269000D01*
X141296250Y-49269000D01*
X141455000Y-49110250D01*
X141455940Y-49060000D01*
X155184060Y-49060000D01*
X155185000Y-49110250D01*
X155343750Y-49269000D01*
X156693000Y-49269000D01*
X156693000Y-49249000D01*
X156947000Y-49249000D01*
X156947000Y-49269000D01*
X158296250Y-49269000D01*
X158455000Y-49110250D01*
X158455940Y-49060000D01*
X158512552Y-49060000D01*
X158481992Y-49160745D01*
X158464928Y-49333999D01*
X158464928Y-49859771D01*
X158455819Y-49868880D01*
X158458072Y-49846000D01*
X158455000Y-49681750D01*
X158296250Y-49523000D01*
X156947000Y-49523000D01*
X156947000Y-49543000D01*
X156693000Y-49543000D01*
X156693000Y-49523000D01*
X155343750Y-49523000D01*
X155185000Y-49681750D01*
X155181928Y-49846000D01*
X155187837Y-49906000D01*
X143935322Y-49906000D01*
X143897999Y-49902324D01*
X143860676Y-49906000D01*
X143860667Y-49906000D01*
X143749014Y-49916997D01*
X143605753Y-49960454D01*
X143473723Y-50031026D01*
X143400014Y-50091518D01*
X143357999Y-50125999D01*
X143334201Y-50154997D01*
X141728998Y-51760201D01*
X141458072Y-52031127D01*
X141458072Y-51486000D01*
X141445812Y-51361518D01*
X141427454Y-51301000D01*
X141445812Y-51240482D01*
X141458072Y-51116000D01*
X141458072Y-50216000D01*
X141445812Y-50091518D01*
X141427454Y-50031000D01*
X141445812Y-49970482D01*
X141458072Y-49846000D01*
X141455000Y-49681750D01*
X141296250Y-49523000D01*
X139947000Y-49523000D01*
X139947000Y-49538017D01*
X139875752Y-49531000D01*
X139693000Y-49531000D01*
X139693000Y-49523000D01*
X138343750Y-49523000D01*
X138335750Y-49531000D01*
X138111752Y-49531000D01*
X138056000Y-49525509D01*
X137833501Y-49547423D01*
X137619553Y-49612324D01*
X137422377Y-49717716D01*
X137415941Y-49722998D01*
X137345252Y-49722998D01*
X137504000Y-49564250D01*
X137507072Y-49350000D01*
X137494812Y-49225518D01*
X137458502Y-49105820D01*
X137434010Y-49060000D01*
X138184060Y-49060000D01*
X138185000Y-49110250D01*
G37*
%TD.AperFunction*%
%TD*%
M02*
