%TF.GenerationSoftware,KiCad,Pcbnew,5.1.9+dfsg1-1*%
%TF.CreationDate,2021-05-25T15:42:46+02:00*%
%TF.ProjectId,vscp-din-wireless-esp32,76736370-2d64-4696-9e2d-776972656c65,rev?*%
%TF.SameCoordinates,Original*%
%TF.FileFunction,Paste,Top*%
%TF.FilePolarity,Positive*%
%FSLAX46Y46*%
G04 Gerber Fmt 4.6, Leading zero omitted, Abs format (unit mm)*
G04 Created by KiCad (PCBNEW 5.1.9+dfsg1-1) date 2021-05-25 15:42:46*
%MOMM*%
%LPD*%
G01*
G04 APERTURE LIST*
%ADD10R,2.000000X0.900000*%
%ADD11R,0.900000X2.000000*%
%ADD12R,5.000000X5.000000*%
G04 APERTURE END LIST*
%TO.C,R2*%
G36*
G01*
X164026001Y-59290000D02*
X163125999Y-59290000D01*
G75*
G02*
X162876000Y-59040001I0J249999D01*
G01*
X162876000Y-58514999D01*
G75*
G02*
X163125999Y-58265000I249999J0D01*
G01*
X164026001Y-58265000D01*
G75*
G02*
X164276000Y-58514999I0J-249999D01*
G01*
X164276000Y-59040001D01*
G75*
G02*
X164026001Y-59290000I-249999J0D01*
G01*
G37*
G36*
G01*
X164026001Y-61115000D02*
X163125999Y-61115000D01*
G75*
G02*
X162876000Y-60865001I0J249999D01*
G01*
X162876000Y-60339999D01*
G75*
G02*
X163125999Y-60090000I249999J0D01*
G01*
X164026001Y-60090000D01*
G75*
G02*
X164276000Y-60339999I0J-249999D01*
G01*
X164276000Y-60865001D01*
G75*
G02*
X164026001Y-61115000I-249999J0D01*
G01*
G37*
%TD*%
D10*
%TO.C,U1*%
X156820000Y-49396000D03*
X156820000Y-50666000D03*
X156820000Y-51936000D03*
X156820000Y-53206000D03*
X156820000Y-54476000D03*
X156820000Y-55746000D03*
X156820000Y-57016000D03*
X156820000Y-58286000D03*
X156820000Y-59556000D03*
X156820000Y-60826000D03*
X156820000Y-62096000D03*
X156820000Y-63366000D03*
X156820000Y-64636000D03*
X156820000Y-65906000D03*
D11*
X154035000Y-66906000D03*
X152765000Y-66906000D03*
X151495000Y-66906000D03*
X150225000Y-66906000D03*
X148955000Y-66906000D03*
X147685000Y-66906000D03*
X146415000Y-66906000D03*
X145145000Y-66906000D03*
X143875000Y-66906000D03*
X142605000Y-66906000D03*
D10*
X139820000Y-65906000D03*
X139820000Y-64636000D03*
X139820000Y-63366000D03*
X139820000Y-62096000D03*
X139820000Y-60826000D03*
X139820000Y-59556000D03*
X139820000Y-58286000D03*
X139820000Y-57016000D03*
X139820000Y-55746000D03*
X139820000Y-54476000D03*
X139820000Y-53206000D03*
X139820000Y-51936000D03*
X139820000Y-50666000D03*
X139820000Y-49396000D03*
D12*
X147320000Y-56896000D03*
%TD*%
%TO.C,R6*%
G36*
G01*
X160928000Y-50234001D02*
X160928000Y-49333999D01*
G75*
G02*
X161177999Y-49084000I249999J0D01*
G01*
X161703001Y-49084000D01*
G75*
G02*
X161953000Y-49333999I0J-249999D01*
G01*
X161953000Y-50234001D01*
G75*
G02*
X161703001Y-50484000I-249999J0D01*
G01*
X161177999Y-50484000D01*
G75*
G02*
X160928000Y-50234001I0J249999D01*
G01*
G37*
G36*
G01*
X159103000Y-50234001D02*
X159103000Y-49333999D01*
G75*
G02*
X159352999Y-49084000I249999J0D01*
G01*
X159878001Y-49084000D01*
G75*
G02*
X160128000Y-49333999I0J-249999D01*
G01*
X160128000Y-50234001D01*
G75*
G02*
X159878001Y-50484000I-249999J0D01*
G01*
X159352999Y-50484000D01*
G75*
G02*
X159103000Y-50234001I0J249999D01*
G01*
G37*
%TD*%
%TO.C,R8*%
G36*
G01*
X125672001Y-92056000D02*
X124771999Y-92056000D01*
G75*
G02*
X124522000Y-91806001I0J249999D01*
G01*
X124522000Y-91280999D01*
G75*
G02*
X124771999Y-91031000I249999J0D01*
G01*
X125672001Y-91031000D01*
G75*
G02*
X125922000Y-91280999I0J-249999D01*
G01*
X125922000Y-91806001D01*
G75*
G02*
X125672001Y-92056000I-249999J0D01*
G01*
G37*
G36*
G01*
X125672001Y-93881000D02*
X124771999Y-93881000D01*
G75*
G02*
X124522000Y-93631001I0J249999D01*
G01*
X124522000Y-93105999D01*
G75*
G02*
X124771999Y-92856000I249999J0D01*
G01*
X125672001Y-92856000D01*
G75*
G02*
X125922000Y-93105999I0J-249999D01*
G01*
X125922000Y-93631001D01*
G75*
G02*
X125672001Y-93881000I-249999J0D01*
G01*
G37*
%TD*%
%TO.C,R7*%
G36*
G01*
X123386001Y-92056000D02*
X122485999Y-92056000D01*
G75*
G02*
X122236000Y-91806001I0J249999D01*
G01*
X122236000Y-91280999D01*
G75*
G02*
X122485999Y-91031000I249999J0D01*
G01*
X123386001Y-91031000D01*
G75*
G02*
X123636000Y-91280999I0J-249999D01*
G01*
X123636000Y-91806001D01*
G75*
G02*
X123386001Y-92056000I-249999J0D01*
G01*
G37*
G36*
G01*
X123386001Y-93881000D02*
X122485999Y-93881000D01*
G75*
G02*
X122236000Y-93631001I0J249999D01*
G01*
X122236000Y-93105999D01*
G75*
G02*
X122485999Y-92856000I249999J0D01*
G01*
X123386001Y-92856000D01*
G75*
G02*
X123636000Y-93105999I0J-249999D01*
G01*
X123636000Y-93631001D01*
G75*
G02*
X123386001Y-93881000I-249999J0D01*
G01*
G37*
%TD*%
%TO.C,R4*%
G36*
G01*
X135782000Y-54298001D02*
X135782000Y-53397999D01*
G75*
G02*
X136031999Y-53148000I249999J0D01*
G01*
X136557001Y-53148000D01*
G75*
G02*
X136807000Y-53397999I0J-249999D01*
G01*
X136807000Y-54298001D01*
G75*
G02*
X136557001Y-54548000I-249999J0D01*
G01*
X136031999Y-54548000D01*
G75*
G02*
X135782000Y-54298001I0J249999D01*
G01*
G37*
G36*
G01*
X133957000Y-54298001D02*
X133957000Y-53397999D01*
G75*
G02*
X134206999Y-53148000I249999J0D01*
G01*
X134732001Y-53148000D01*
G75*
G02*
X134982000Y-53397999I0J-249999D01*
G01*
X134982000Y-54298001D01*
G75*
G02*
X134732001Y-54548000I-249999J0D01*
G01*
X134206999Y-54548000D01*
G75*
G02*
X133957000Y-54298001I0J249999D01*
G01*
G37*
%TD*%
%TO.C,R5*%
G36*
G01*
X121774000Y-65843999D02*
X121774000Y-66744001D01*
G75*
G02*
X121524001Y-66994000I-249999J0D01*
G01*
X120998999Y-66994000D01*
G75*
G02*
X120749000Y-66744001I0J249999D01*
G01*
X120749000Y-65843999D01*
G75*
G02*
X120998999Y-65594000I249999J0D01*
G01*
X121524001Y-65594000D01*
G75*
G02*
X121774000Y-65843999I0J-249999D01*
G01*
G37*
G36*
G01*
X123599000Y-65843999D02*
X123599000Y-66744001D01*
G75*
G02*
X123349001Y-66994000I-249999J0D01*
G01*
X122823999Y-66994000D01*
G75*
G02*
X122574000Y-66744001I0J249999D01*
G01*
X122574000Y-65843999D01*
G75*
G02*
X122823999Y-65594000I249999J0D01*
G01*
X123349001Y-65594000D01*
G75*
G02*
X123599000Y-65843999I0J-249999D01*
G01*
G37*
%TD*%
%TO.C,R3*%
G36*
G01*
X122574000Y-74618001D02*
X122574000Y-73717999D01*
G75*
G02*
X122823999Y-73468000I249999J0D01*
G01*
X123349001Y-73468000D01*
G75*
G02*
X123599000Y-73717999I0J-249999D01*
G01*
X123599000Y-74618001D01*
G75*
G02*
X123349001Y-74868000I-249999J0D01*
G01*
X122823999Y-74868000D01*
G75*
G02*
X122574000Y-74618001I0J249999D01*
G01*
G37*
G36*
G01*
X120749000Y-74618001D02*
X120749000Y-73717999D01*
G75*
G02*
X120998999Y-73468000I249999J0D01*
G01*
X121524001Y-73468000D01*
G75*
G02*
X121774000Y-73717999I0J-249999D01*
G01*
X121774000Y-74618001D01*
G75*
G02*
X121524001Y-74868000I-249999J0D01*
G01*
X120998999Y-74868000D01*
G75*
G02*
X120749000Y-74618001I0J249999D01*
G01*
G37*
%TD*%
%TO.C,R1*%
G36*
G01*
X160978001Y-61322000D02*
X160077999Y-61322000D01*
G75*
G02*
X159828000Y-61072001I0J249999D01*
G01*
X159828000Y-60546999D01*
G75*
G02*
X160077999Y-60297000I249999J0D01*
G01*
X160978001Y-60297000D01*
G75*
G02*
X161228000Y-60546999I0J-249999D01*
G01*
X161228000Y-61072001D01*
G75*
G02*
X160978001Y-61322000I-249999J0D01*
G01*
G37*
G36*
G01*
X160978001Y-63147000D02*
X160077999Y-63147000D01*
G75*
G02*
X159828000Y-62897001I0J249999D01*
G01*
X159828000Y-62371999D01*
G75*
G02*
X160077999Y-62122000I249999J0D01*
G01*
X160978001Y-62122000D01*
G75*
G02*
X161228000Y-62371999I0J-249999D01*
G01*
X161228000Y-62897001D01*
G75*
G02*
X160978001Y-63147000I-249999J0D01*
G01*
G37*
%TD*%
%TO.C,C4*%
G36*
G01*
X176497000Y-93022000D02*
X175547000Y-93022000D01*
G75*
G02*
X175297000Y-92772000I0J250000D01*
G01*
X175297000Y-92272000D01*
G75*
G02*
X175547000Y-92022000I250000J0D01*
G01*
X176497000Y-92022000D01*
G75*
G02*
X176747000Y-92272000I0J-250000D01*
G01*
X176747000Y-92772000D01*
G75*
G02*
X176497000Y-93022000I-250000J0D01*
G01*
G37*
G36*
G01*
X176497000Y-94922000D02*
X175547000Y-94922000D01*
G75*
G02*
X175297000Y-94672000I0J250000D01*
G01*
X175297000Y-94172000D01*
G75*
G02*
X175547000Y-93922000I250000J0D01*
G01*
X176497000Y-93922000D01*
G75*
G02*
X176747000Y-94172000I0J-250000D01*
G01*
X176747000Y-94672000D01*
G75*
G02*
X176497000Y-94922000I-250000J0D01*
G01*
G37*
%TD*%
%TO.C,C1*%
G36*
G01*
X136619000Y-50350000D02*
X135669000Y-50350000D01*
G75*
G02*
X135419000Y-50100000I0J250000D01*
G01*
X135419000Y-49600000D01*
G75*
G02*
X135669000Y-49350000I250000J0D01*
G01*
X136619000Y-49350000D01*
G75*
G02*
X136869000Y-49600000I0J-250000D01*
G01*
X136869000Y-50100000D01*
G75*
G02*
X136619000Y-50350000I-250000J0D01*
G01*
G37*
G36*
G01*
X136619000Y-52250000D02*
X135669000Y-52250000D01*
G75*
G02*
X135419000Y-52000000I0J250000D01*
G01*
X135419000Y-51500000D01*
G75*
G02*
X135669000Y-51250000I250000J0D01*
G01*
X136619000Y-51250000D01*
G75*
G02*
X136869000Y-51500000I0J-250000D01*
G01*
X136869000Y-52000000D01*
G75*
G02*
X136619000Y-52250000I-250000J0D01*
G01*
G37*
%TD*%
%TO.C,C3*%
G36*
G01*
X135669000Y-57600000D02*
X136619000Y-57600000D01*
G75*
G02*
X136869000Y-57850000I0J-250000D01*
G01*
X136869000Y-58350000D01*
G75*
G02*
X136619000Y-58600000I-250000J0D01*
G01*
X135669000Y-58600000D01*
G75*
G02*
X135419000Y-58350000I0J250000D01*
G01*
X135419000Y-57850000D01*
G75*
G02*
X135669000Y-57600000I250000J0D01*
G01*
G37*
G36*
G01*
X135669000Y-55700000D02*
X136619000Y-55700000D01*
G75*
G02*
X136869000Y-55950000I0J-250000D01*
G01*
X136869000Y-56450000D01*
G75*
G02*
X136619000Y-56700000I-250000J0D01*
G01*
X135669000Y-56700000D01*
G75*
G02*
X135419000Y-56450000I0J250000D01*
G01*
X135419000Y-55950000D01*
G75*
G02*
X135669000Y-55700000I250000J0D01*
G01*
G37*
%TD*%
M02*
